<svg xmlns="http://www.w3.org/2000/svg" viewBox="0 0 255.37 205.24"><title>icon</title><g id="Layer_2" data-name="Layer 2"><g id="Layer_1-2" data-name="Layer 1"><path d="M228.12,119.65c.53-2.15,2.16-3.47,3.65-4.89a6.37,6.37,0,0,1,2.86-1.23,6.8,6.8,0,0,0,1.18-.15c.52-.17,1-.42.95-1.06a1.11,1.11,0,0,0-1.07-1.08c-.31,0-.63,0-.95-.06a11.43,11.43,0,0,1-6.57-6.15l0,0c-1.22-2.36-2.45-4.71-2.54-7.47-.12-4-.48-8-.78-12-.28-3.82-.53-7.65-.88-11.46a4.54,4.54,0,0,1,.24-2.84c.66-.23.94.29,1.27.67a8.73,8.73,0,0,1,2,6.57,112.69,112.69,0,0,0,0,11.77q.11,3.39,0,6.8a4.43,4.43,0,0,0,1.48,3.8c.52.41.16,1.43.91,1.57s1.21-.39,1.82-.59a25,25,0,0,1,7.54-1.09c.65,0,1.29,0,1.94,0a2,2,0,0,0,2.11-1.91,21.66,21.66,0,0,0,.06-2.55,1.6,1.6,0,0,1,.23-.95c.79-.17.67.53.77.9.23.94.37,1.9.55,2.86.43,2.26,1.24,4.28,3.43,5.43a.56.56,0,0,1,.26.39c-.59.64-1.46.29-2.15.63,1.52.75,3,1.63,5,1.49-.58-.76-1.34-.67-1.92-1s-1.26-.34-.79-1.22a5.49,5.49,0,0,1,2.87-.08,3.43,3.43,0,0,1,2.89,3.4,14.78,14.78,0,0,1-.06,2.9,11,11,0,0,0,0,3.62,6.06,6.06,0,0,1,0,2.4,3.33,3.33,0,0,1-3.06,2.81l-1.92.27a4,4,0,0,0-3.48,2.62,6.84,6.84,0,0,1-.72,1.26,5.28,5.28,0,0,0-1.14,3.49,19.8,19.8,0,0,1-.35,3.61c-.1.68-.06,1.57-1,1.82-.61-1.87-.25-3.76-.18-5.43-.34,1.83-.91,3.88.42,5.82a10,10,0,0,1,.12,3.5c-.46,6.29-1.51,12.54-1.1,18.88a1.84,1.84,0,0,1-.16.83,13.76,13.76,0,0,1-1.58,7,24.36,24.36,0,0,0-1.39,3.62,19.28,19.28,0,0,1-4.94,3.17,1,1,0,0,1-1-.56c-.07-.71-.42-1-1.14-.75-4.12,1.39-8.4,1.45-12.67,1.44a25.27,25.27,0,0,1-4.42-.36c-.77-2.58-1.18-5.21-.14-7.78.84-2.08,2.64-3.08,4.73-3.63.62-.16,1.26-.27,1.89-.4,1.3-.27,2.39-.78,2.62-2.29a2.18,2.18,0,0,1,1.12-1.37,4.48,4.48,0,0,0,2-3.83,28.09,28.09,0,0,0-.35-4.58,11.22,11.22,0,0,0,.29-2.89c0-6.23,0-12.46,0-18.69A16.53,16.53,0,0,1,228.12,119.65Z" style="fill:#8b6e62"/><path d="M21.92,110.88c-.9.22-2-.33-2.66.74-.11.36-.48.47-.74.67.13.38.57.26.72.55.17.75.73.9,1.37.87a3.22,3.22,0,0,1,1.31.12,3.51,3.51,0,0,1,1.34,1.7,14.22,14.22,0,0,1,.71,2c.13.46.29,1-.25,1.29a14.68,14.68,0,0,1-3.36.33c-4.3.28-8.59.53-12.89.79a3.67,3.67,0,0,1-2.12-.53,8.29,8.29,0,0,1-.17-4c.2-2.39.3-4.76-.84-7a22.39,22.39,0,0,1-.54-2.29c0-.51.43-.76.81-1,3.1-1.76,5.5-4.08,6.34-7.69a1.28,1.28,0,0,1,.3-.53,3.12,3.12,0,0,0,.65-2.28c-.28-4.84.39-9.61.82-14.41A45.42,45.42,0,0,0,13,71.77a8.29,8.29,0,0,1,.86-4.6,15.56,15.56,0,0,1,1.39-1.65q1.57-1.93-.83-2.64c-.16-.05-.3-.1-.36-.27a9.56,9.56,0,0,1,.16-2.2,21.92,21.92,0,0,1,2.28-3.58,4.62,4.62,0,0,1,3.1-1.73,48.92,48.92,0,0,0,5.24-1.9,9.21,9.21,0,0,1,6.24-.73,2.85,2.85,0,0,0,2.34.75c.69,0,1.37-.06,2.06,0,2,0,3,.78,3.26,2.71A17.19,17.19,0,0,1,38.93,61a12.82,12.82,0,0,0,.11,4.7c-.55.93-1.46.69-2.29.71-.87-1.23-2.46-1.22-3.67,0-.83,1.48-1.63,3-2.51,4.41A5.85,5.85,0,0,0,30,74.86a.85.85,0,0,1-.17.45c-2.08,2-1.8,4.55-1.53,7.06a12.33,12.33,0,0,1-.09,3.38c0,3.76,0,7.53-.27,11.29-.22,3.18-.74,6.27-2.67,8.94-.35.24-.49,0-.64-.28s-.38-.58-.75-.35a.68.68,0,0,0-.2,1c.13.25.39.41.55.65.07,1-.6,1.59-1,2.35A4.22,4.22,0,0,1,21.92,110.88Z" style="fill:#6d4d41"/><path d="M187.28,198.41c-.09,1.12-.09,2.26-.29,3.36-.35,1.91-2,3-4.17,3.22-4.17.35-8.33.22-12.49.22q-46.54,0-93.09,0a19.09,19.09,0,0,1-5.13-.64,3.76,3.76,0,0,1-2.89-3.09,14,14,0,0,1-.36-2.75c0-5.35,0-10.69,0-16,0-1.26-.43-2.47-.25-3.73a1.77,1.77,0,0,1,1,2.2c-.49,3.18.27,6.21.94,9.25s1.21,5.78.48,8.78c-.32,1.3.69,2.68,2.12,3.32a6.22,6.22,0,0,0,2.63.39H180.62a8.77,8.77,0,0,0,2.17-.19,3.72,3.72,0,0,0,3-2.87,4.26,4.26,0,0,1,.43-1.38A.79.79,0,0,1,187.28,198.41Z" style="fill:#f7f7f7"/><path d="M186.33,198.42c-.12,3.29-1.73,4.85-5,4.85q-53.17,0-106.34,0a5.07,5.07,0,0,1-4-2.3,1.79,1.79,0,0,1-.3-1.62c1-3.17.2-6.24-.48-9.32-.55-2.48-1.26-5-1-7.53.15-1.27.36-2.48-.52-3.56,0-1.7,0-3.4,0-5.1-.65-4-.23-8-.36-11.95-.06-2,0-4,0-5.94.11-1.61,0-3.23,0-4.84a7.56,7.56,0,0,1,.51-3.19c.83-.41.87.31,1.09.76.28,3.25.07,6.51.12,9.77a88.13,88.13,0,0,0,1.07,18.21,56.27,56.27,0,0,1,1.09,13,2.48,2.48,0,0,0,.46,1.59,6.49,6.49,0,0,0,1.05,2.28,2,2,0,0,1,.16.76,7.4,7.4,0,0,1-.09,1.76,2.06,2.06,0,0,1-.23.55,13.07,13.07,0,0,1-1,1.3,2.67,2.67,0,0,0-.17,1.78c.28,1.56.75,2,2.36,2,20.09.08,40.18-.14,60.27.09,14.82.17,29.64.06,44.46.16.53,0,1.06,0,1.58,0,2.18-.1,2.88-.81,3-3a8.33,8.33,0,0,1,.16-2.17c.32-.66.81-.37,1.2-.13C186,197,186.59,197.49,186.33,198.42Z" style="fill:#bebfbf"/><path d="M19.48,55.46a3.81,3.81,0,0,0-2.89,1.71c-.76,1-1.45,2.12-2.16,3.18-2.92,3.49-3.23,7.77-3.52,12-.38,5.28-.46,10.58-.55,15.88,0,3.43-.62,6.84-.77,10.27a2.56,2.56,0,0,1-2,2.66l.81-7.68c.21-1.92.5-3.83.62-5.75.22-3.42.51-6.85.46-10.27,0-2.49-.17-5-.19-7.5a18,18,0,0,1,3.9-11.46C16.47,54.24,21,51.75,26,50.15a34.19,34.19,0,0,1,12.31-1.47,7.55,7.55,0,0,1,3.41.62A2.8,2.8,0,0,1,43.36,52c-.06,1.94,0,3.89,0,5.83-.09,2.23.37,4.42.27,6.65-.11,2.62-1.21,4.2-3.52,4.73a7.17,7.17,0,0,1-2.17.09,4.9,4.9,0,0,0-4.82,2.85,18.29,18.29,0,0,0-2.17,8.1c-.42,6.67-.08,13.35-.22,20A2.91,2.91,0,0,1,29,103.12a1.39,1.39,0,0,1-.57-1.18c.63-4.36.88-8.75,1.1-13.14.18-3.55,0-7.11.09-10.66,0-.85,0-1.7.05-2.54a3.42,3.42,0,0,0,.18-.83c1.32-5.39,4.37-7.77,9-8,.28,0,.57,0,.85,0A2.13,2.13,0,0,0,42,64.25c-.43-2.59.16-5.08.45-7.6a6.56,6.56,0,0,0-.28-3,2.71,2.71,0,0,0-1.84-1.79c-4.85-1.38-9.7-1.82-14.57-.1a13.55,13.55,0,0,0-3.84,2.06A28.27,28.27,0,0,1,19.48,55.46Z" style="fill:#f1eeed"/><path d="M224.19,71.31l1.11,16c.26,3.75.56,7.5.79,11.25a8.22,8.22,0,0,0,1,3.46,7.24,7.24,0,0,1,1.07,3.06c-2.88-.49-4.35-2.86-4.64-5.62-.83-8.14-.37-16.32-.48-24.48,0-2.51-1.13-4.45-3-5a12.23,12.23,0,0,0-3.56-.59,7.74,7.74,0,0,1-3.06-.61c-1.88-.86-2.07-2.68-2-4.34.18-3,.18-6,.2-9.08a25.5,25.5,0,0,1,0-3.71A3.11,3.11,0,0,1,214,48.66a18.45,18.45,0,0,1,6.59-.29,46.27,46.27,0,0,1,10.68,2.45,22.05,22.05,0,0,1,5.91,3,2.87,2.87,0,0,1,1.42,2.84c-.8.19-1.35-.37-2-.69-.81-.42-1.59-.88-2.41-1.28a1.4,1.4,0,0,1-.32-.22c-2.29-2.55-5.26-3.38-8.55-3.29-2.87.07-5.73-.23-8.6-.25-3.41,0-4.08.67-4.09,4,0,2.72,0,5.43,0,8.14,0,2.93.93,3.91,3.87,4.15a11.92,11.92,0,0,1,5.3,1.61,5.77,5.77,0,0,1,2.34,2.23Z" style="fill:#f4f2f2"/><path d="M184.36,37v1.94c.58,1.78.42,3.67.71,5.5.33,2.08.89,4.1,1.23,6.17.6,4.92.59,9.89,1,14.83,0,.32,0,.65,0,1,0,6.16.05,12.32,0,18.47a77.76,77.76,0,0,0,1,10.33c.24,1.91.53,3.83.65,5.75.48,7.68.2,15.37.26,23.06,0,2.75,0,5.51,0,8.26a.58.58,0,0,1-.44.12,2.65,2.65,0,0,1-1.6-1.86,6.1,6.1,0,0,1-.3-2c0-8.78,0-17.56,0-26.34.07-4.08,0-8.15,0-12.23a1.78,1.78,0,0,0-.22-.93,4.6,4.6,0,0,1-.67-1.37,26.16,26.16,0,0,1-.1-3.76c-.11-3.39.34-6.78.23-10.17-.21-6.23-.82-12.42-1.58-18.59-.6-5-1.14-10-1.55-14.95a7,7,0,0,1,.14-2.77A.89.89,0,0,1,184.36,37Z" style="fill:#e8e3e1"/><path d="M42.37,174.1c-.93.75-2.12.71-3.19.94A15.2,15.2,0,0,1,32,174.8c-2.21-.6-4.49-.31-6.7-.84-5.82-1.38-10-4.93-12.91-10a21.83,21.83,0,0,1-3.1-11.65c.1-5.18.11-10.37,0-15.55A37.52,37.52,0,0,0,7.8,126.28a6.45,6.45,0,0,0-5.35-4.69c-2.12-.36-2.42-.68-2.39-2.86a8.33,8.33,0,0,1,.2-3.22c.62.64.42,1.45.37,2.18a1.89,1.89,0,0,0,1.54,2.12,9.88,9.88,0,0,0,2.85.46,2.8,2.8,0,0,1,1.42.24c1.85,2.55,3.87,5,4.31,8.3a14.78,14.78,0,0,1,.12,2.3c-.06,6.07.32,12.12.7,18.18.12,1.93,0,3.88.23,5.82a15.7,15.7,0,0,0,2.41,7,12.55,12.55,0,0,0,3.07,5.55,12.31,12.31,0,0,0,4.48,2.81,5.58,5.58,0,0,1,1.44.63,4.36,4.36,0,0,0,1.85,1.11c2.31.54,4.56,1.35,7,1.25,2.17-.1,4.33.38,6.51.25a15.6,15.6,0,0,0,2.05-.17A2,2,0,0,1,42.37,174.1Z" style="fill:#e8e2e1"/><path d="M248.57,105.06c-2.36-1.06-3.4-3-3.91-5.44a25.72,25.72,0,0,0-.94-4.33,1.37,1.37,0,0,1-.16-.82c.17-5.92-.88-11.73-1.59-17.58a61.81,61.81,0,0,1-.59-9.89c0-.56-.09-1.15.4-1.58a4.86,4.86,0,0,0,.92,1.64,8.16,8.16,0,0,1,1.71,5c.31,4.43.15,8.88.3,13.32a80.14,80.14,0,0,0,1.15,13.47c.58,2.84,2.14,4.32,5,4.56,3,.26,4.67,1.89,4.49,4.86-.17,2.79,0,5.55,0,8.33s-1.34,4.45-4,4.73a6.14,6.14,0,0,0-4.55,2.82c-.36.48-.78.92-1.17,1.38-.73-.89-.15-1.79,0-2.69.42-1.78,1.77-2.51,3.39-2.87a14,14,0,0,1,2-.24c1.92-.17,3.17-1.29,3-3.22-.17-2.59,0-5.16.07-7.74,0-2.41-1.25-3.63-3.67-3.7-.65,0-1.29,0-1.94,0Z" style="fill:#cdc2be"/><path d="M186.33,198.42a2.65,2.65,0,0,0-2-1.91c-.87.19-1.1-.4-1.23-1a6.47,6.47,0,0,1,0-1.76,2.14,2.14,0,0,1,.07-.43,1.88,1.88,0,0,1,.55-.94c1.53-.88,1.95-2.21,2.05-4,.32-5.17.12-10.33.2-15.5a7,7,0,0,1,.1-1.21,4.27,4.27,0,0,0,.17-1.07c-.08-8,1-16,1.49-24a64.53,64.53,0,0,1,.92-7.58,5.33,5.33,0,0,1,.4-1.52c.3-.44.67-.64,1.17-.31-.27,4.38-.33,8.77-.66,13.16-.2,2.77-.4,5.54-.57,8.32-.22,3.65-.6,7.29-.91,10.94-.1,1.16-.18,2.33-.23,3.49-.15,3.91-.4,7.82-.62,11.72-.18,3.17.17,6.37-.59,9.52a5.61,5.61,0,0,0,.67,4.11Z" style="fill:#e9e9e9"/><path d="M234,170.21l4.86-3c.28,2.26-1.09,3.53-2.83,4.49a35,35,0,0,1-13.55,4.11c-2.59.26-5.17.14-7.75.18-2.06,0-3.08-1.1-3.08-3.2V160c0-2.34.91-3.28,3.29-3.34,1.09,0,2.18,0,3.28,0a.82.82,0,0,1,.27,1.12,3.44,3.44,0,0,1-2.77.94c-2.31,0-2.78.48-2.73,2.81s-.37,4.5-.27,6.77a18.24,18.24,0,0,0,.62,3.82,1.66,1.66,0,0,0,1.73,1.4c3.91,0,7.84.34,11.74-.23a12.51,12.51,0,0,0,5.9-2.37A14.16,14.16,0,0,1,234,170.21Z" style="fill:#f8f7f7"/><path d="M7.6,101.17a3.62,3.62,0,0,0,1.72-3.26c.26-5.36.76-10.7.82-16.08a90.11,90.11,0,0,1,.63-12c.4-2.87.55-5.81,2.38-8.27a4.05,4.05,0,0,1,1.28-1.26,9.72,9.72,0,0,1-.24,2.41.72.72,0,0,1,.1.65,35.14,35.14,0,0,0-1.93,9.23c-.9,7.48-.74,15-.74,22.52a3.69,3.69,0,0,1-.36,2.12c-.7,3.68-3,6.11-6.12,7.93-.42.24-.81.52-1.21.78a.72.72,0,0,1-.44.3c-.53.07-1.05.14-1.58.23a3.39,3.39,0,0,1-1.33-.23,2.66,2.66,0,0,1,2-2.35,17.32,17.32,0,0,1,2.23-.56A3.58,3.58,0,0,0,7.6,101.17Z" style="fill:#af9f98"/><path d="M22.93,115.49l-1-1.66c4.54.34,5.74,2.49,6.81,6.48.12.42.18.85.27,1.28.75,1.61.76,3.43,1.45,5.06a2.42,2.42,0,0,0,.24.55c-.06,7.2.39,14.41.26,21.62a3.57,3.57,0,0,1-.22,2.7c-.71,0-.84-.54-1-1a9.6,9.6,0,0,1-.39-2.51c-.08-5.18-.74-10.32-1.14-15.47-.27-3.51-.63-7-1-10.51-.28-2.63-1-4.92-3.73-6C23.28,115.86,23.12,115.63,22.93,115.49Z" style="fill:#dfd9d7"/><path d="M245.63,122.79c0,.9,0,1.79,0,2.69a99.21,99.21,0,0,0-1.25,14.19c-.17,4.79-.44,9.58-.92,14.35a3,3,0,0,1-1.69,2.61,34.71,34.71,0,0,1-.15-8.7c.19-2.84.6-5.68.83-8.52a37.38,37.38,0,0,0,.22-6.17.13.13,0,0,1,0-.22,6.07,6.07,0,0,0,.89-3.9A9,9,0,0,1,245.63,122.79Z" style="fill:#baa9a2"/><path d="M218.4,157.54c-.08-.31-.16-.62-.23-.94,3.67-1.66,5.3-4.54,5.1-8.53,0-.64,0-1.28,0-1.93a11.33,11.33,0,0,1,.3-5,6.61,6.61,0,0,0,.31-2.39c0-2.88-.05-5.76,0-8.63A12,12,0,0,1,225.2,124c.34-1.89,1-3.58,2.92-4.38-.13,1.65-.71,3.22-1,4.84-1.24,9.56-2.56,19.1-2.56,28.77a3,3,0,0,1-2.56,3.37,24,24,0,0,0-2.49.9C219.16,157.65,218.78,157.88,218.4,157.54Z" style="fill:#e0d9d6"/><path d="M241.78,65.42a70.65,70.65,0,0,0,.8,13.39,98.38,98.38,0,0,1,1.33,14.44,5.4,5.4,0,0,1-.19,2l0,1a.43.43,0,0,1-.38.09,2.27,2.27,0,0,1-.92-2c-.47-5.39-.45-10.83-1.87-16.1a14.52,14.52,0,0,1-.11-2.55c0-2.94.12-5.88-.11-8.83-.34-4.34-2.52-7.75-5.2-11-.34-.4-.93-.72-.66-1.42l4.15,2.12a50.32,50.32,0,0,0,2.19,4.93A9.78,9.78,0,0,1,241.78,65.42Z" style="fill:#84695f"/><path d="M153.25,14.85a9.45,9.45,0,0,0,3.39,2.25,8,8,0,0,1,3.4,2.42,1,1,0,0,1,.14,1.09c-.53.39-.9-.07-1.29-.28-5.2-2.85-10.5-5.53-15.76-8.3a22.51,22.51,0,0,1-2.63-1.11A14.74,14.74,0,0,0,134,6.72,4.34,4.34,0,0,1,132.63,6c-.37-.35-.78-.66-1.14-1a1.58,1.58,0,0,1-.44-2c1.21-.52,2.07.27,2.94.83a16.67,16.67,0,0,0,3.5,2.06,98.52,98.52,0,0,0,11.73,6.69C150.15,14.05,151.72,14.41,153.25,14.85Z" style="fill:#513a32"/><path d="M68.58,85.86l.07-1.21c.28-.63-.09-1.33.22-2h0a.61.61,0,0,1,.87.09,3.94,3.94,0,0,1,.26,2c0,8.12-.09,16.24-.06,24.36,0,3.79,0,7.59,0,11.39,0,2.24.05,4.49,0,6.73,0,.23,0,.46,0,.69-.14,1.34.25,2.72-.2,4a.79.79,0,0,1-1.21.29,3.62,3.62,0,0,1-.28-2.08,21.76,21.76,0,0,1,0-2.42c0-11.85,0-23.7,0-35.54C68.2,90.11,68.41,88,68.58,85.86Z" style="fill:#ada3a1"/><path d="M68.58,130.32l.06,2a1.27,1.27,0,0,1,.11,1.06,26,26,0,0,0,.11,8,14.26,14.26,0,0,1,.14,2.06c-.1,1.41,0,2.83-.08,4.24,0,.07,0,.14,0,.21a74.39,74.39,0,0,0-.27,8c-.51,0-.52-.46-.54-.8a44.63,44.63,0,0,0-1.29-6.9c-.45-2.05-.77-4.11-1.06-6.19.52-2,0-4-.15-6-.15-2.18.19-4.24,2.08-5.71A.68.68,0,0,1,68.58,130.32Z" style="fill:#d0d0d0"/><path d="M69.57,82.68h-.7a116.2,116.2,0,0,1-.18-15.16A134.31,134.31,0,0,1,70,51.15c.34-2.18.31-4.43,1.47-6.41A1.4,1.4,0,0,1,71.92,46c0,3.79.1,7.57,0,11.36a49.5,49.5,0,0,0-1.8,9.13C70,68.21,70,70,70,71.76c0,3,0,6,0,9C69.94,81.4,70.13,82.11,69.57,82.68Z" style="fill:#cfc9c9"/><path d="M210.65,56.22c-.06,2.82-.17,5.51,0,8.2.06,1.23-.5,1.74-1.62,1.75s-1.52-.63-1.54-1.7.22-2.33.23-3.49c0-1.36-.2-2.73-.2-4.09a40.1,40.1,0,0,1,.25-4.1c.07-.7.36-1.36,1.21-1.44s1.22.39,1.47,1.14C210.84,53.77,210.48,55.07,210.65,56.22Z" style="fill:#faf9f8"/><path d="M171.23,23.87l.49.48A6.78,6.78,0,0,0,176,27.07c.36.08.6.39.92.57a18.71,18.71,0,0,1,5.46,3.83,46.73,46.73,0,0,1,.38,5.54,20,20,0,0,0,.18,6.5c.21,1.68.44,3.35.58,5a3.14,3.14,0,0,1-.18,1.66c-.35.42-.59.08-.76-.16a6.23,6.23,0,0,1-1.48-3.75c.07-3.56,0-7.12,0-10.67a4.7,4.7,0,0,0-2.95-4.8c-3-1.4-5.76-3.12-8.64-4.68a2,2,0,0,1-.92-.76,1.41,1.41,0,0,1,0-1.19A6,6,0,0,1,171.23,23.87Z" style="fill:#795c51"/><path d="M68.58,130.32h-.93c0-12.87,0-25.73,0-38.6,0-2.06.69-3.91,1-5.87q0,12.33,0,24.66Q68.61,120.42,68.58,130.32Z" style="fill:#edebeb"/><path d="M65.72,142a53.87,53.87,0,0,1,1.44,6.28,72.91,72.91,0,0,1,1.45,7.61q0,9,0,18a8.8,8.8,0,0,1-.72-3.83c.25-4.87-.6-9.63-1.39-14.4A68.29,68.29,0,0,1,65.72,142Z" style="fill:#f7f7f7"/><path d="M79.81,27C81.9,25.54,84,24,86.1,22.6a57.89,57.89,0,0,1,14.14-7,.72.72,0,0,1,.68-.08c.22.93-.57,1.33-1,1.92a1.82,1.82,0,0,1-.45.29c-1.56.41-3.11.81-3.89,2.46-.11.24-.42.35-.68.45a4.69,4.69,0,0,0-3.74,1.68c-3.38,1.84-6.81,3.62-10.35,5.16A1,1,0,0,1,79.81,27Z" style="fill:#eceae9"/><path d="M106.56,11.71c5.79-3.64,11.6-7.23,17.5-10.7.52.54,1.12,1.06.82,2-2,.45-3.45,1.83-5,3a73.17,73.17,0,0,1-11.95,6.6c-.45.21-1,.52-1.46.06A.84.84,0,0,1,106.56,11.71Z" style="fill:#f1f0f0"/><path d="M80.79,27.27,91,22.16c.29,1.44-.74,2.1-1.7,2.74s-2,.93-2.86,1.6a18.66,18.66,0,0,1-5.82,2.89,1.91,1.91,0,0,0-1.28.83,2.3,2.3,0,0,1-2.51,1.26,1.16,1.16,0,0,0-1,.24,7.09,7.09,0,0,0-1,2.7,13.91,13.91,0,0,1-.09,2.89c-.16.67-.23,1.61-1.39,1.26a18.91,18.91,0,0,1,.13-7.42.41.41,0,0,0,0-.22c.16-.25.13-.67.58-.66,1.25.05,2.28-.7,3.43-1a3.29,3.29,0,0,0,2.17-1.38C79.94,27.49,80.4,27.45,80.79,27.27Z" style="fill:#442e29"/><path d="M42.37,174.1l-1.73-.25c1.63-1.85,1.06-4.18,1.3-6.31a21.51,21.51,0,0,0-.23-6.4c-.34-1.88-1-2.5-2.94-2.47a13.78,13.78,0,0,1-5-.92,1.9,1.9,0,0,1-1.35-1.27,3,3,0,0,1,.08-2c.43-.34.75-.06,1.09.18a4.87,4.87,0,0,0,5.19,2.7,6.34,6.34,0,0,1,2.52.16c1.86.61,2.45,1.62,2.11,3.56a14.82,14.82,0,0,0,0,4.1,18.48,18.48,0,0,1-.53,8A1.69,1.69,0,0,1,42.37,174.1Z" style="fill:#e6e0de"/><path d="M73.47,31.15l.06,7.54a3,3,0,0,1,.34,2.07,21.68,21.68,0,0,1-.11,3.69,17,17,0,0,0-.86,5.34c0,2.06,0,4.12,0,6.17a3.07,3.07,0,0,1-.18,1.31.71.71,0,0,1-.77.35,1.06,1.06,0,0,1-.39-.21q0-6.33,0-12.67c0-.64,0-1.27.07-1.9A30.74,30.74,0,0,0,72.15,35a8.74,8.74,0,0,1,.4-3.09Z" style="fill:#ada3a1"/><path d="M.58,106.29c.39-.39.79,0,1.18,0,.69,1.38.37,2.84.25,4.26a19.13,19.13,0,0,0,.29,6.36,2.81,2.81,0,0,0,.5,1.21,4.54,4.54,0,0,0,.6.36,4.54,4.54,0,0,0,2,.94l1.94.24c.22.35.83.58.34,1.14a1.39,1.39,0,0,1-1.39-.14,11.47,11.47,0,0,1-4.95-.77,1.54,1.54,0,0,1-1.12-1.73,25.8,25.8,0,0,0,0-2.64Q.43,110.89.58,106.29Z" style="fill:#8c6e62"/><path d="M124.79,2.9c.08-.76-.74-1.17-.73-1.89,3.08-1.73,6-1.06,8.79.68,1.65,1,3.22,2.14,4.83,3.21.27.46.36.88-.23,1.17a7.32,7.32,0,0,1-3-1.61A6,6,0,0,0,131.11,3l-.17,0a6,6,0,0,1-.89-.59c-1.41-1-1.7-1-2.94.18a1.59,1.59,0,0,1-1.06.47c-.33,0-.66.06-1,.07A.33.33,0,0,1,124.79,2.9Z" style="fill:#d9d5d4"/><path d="M137.45,6.07a1.89,1.89,0,0,0,.23-1.17,90.32,90.32,0,0,1,8.52,4.27,18.1,18.1,0,0,1,4.13,3.27c-.31.61-.77.48-1.26.27A63.68,63.68,0,0,1,137.45,6.07Z" style="fill:#f1f0f0"/><path d="M225.2,124c-1.47,4.94-.84,10-.95,15a4.23,4.23,0,0,1-.7,2.64,2.51,2.51,0,0,0-.29,1.64v2.79a6.86,6.86,0,0,1-.18-3.67,60.86,60.86,0,0,0,.18-6.88c.05-2.82.06-5.65,0-8.47,0-1.23.23-2.12,1.44-2.61C224.88,124.43,225,124.19,225.2,124Z" style="fill:#f8f7f6"/><path d="M228.17,105c1.28,1.59,2.35,3.36,4.09,4.53a10.53,10.53,0,0,0,2.4,1.36,2.5,2.5,0,0,1,0,2.87l-2.89,1c1.32-2.54.95-3.81-1.55-5.12C228.29,108.64,227.89,107,228.17,105Z" style="fill:#d8cecb"/><path d="M168.8,24.15v1.17a1.62,1.62,0,0,1-1.79.47,84.8,84.8,0,0,0-6.95-5.09l0-1.18,3.61,1a16.85,16.85,0,0,0,4.72,3.1A.67.67,0,0,1,168.8,24.15Z" style="fill:#705146"/><path d="M28.74,102.13c.09.33.18.66.26,1a14.06,14.06,0,0,1-1.48,4.58,6.29,6.29,0,0,1-5.6,3.18l1-1.64c2.59-1,3.84-3.18,4.69-5.68C27.83,103,28,102.27,28.74,102.13Z" style="fill:#dfdad7"/><path d="M186.31,50.61a25.12,25.12,0,0,1-1.71-7,28.3,28.3,0,0,1-.23-4.69,13.62,13.62,0,0,1,1.92,6.72C186.4,47.3,186.31,49,186.31,50.61Z" style="fill:#eeeae9"/><path d="M80.79,27.27c-1.34,2-3.6,2.38-5.62,3.22-.56.23-1.34-.46-1.67.44A3.62,3.62,0,0,1,76.22,28c1.17-.41,2.39-.68,3.59-1Z" style="fill:#cfc9c9"/><path d="M33.62,154.65a1.6,1.6,0,0,1-1-.24c-.95-.61-1-1.93-2-2.54a.4.4,0,0,1,0-.32,9.3,9.3,0,0,1,.29-2.73,3.4,3.4,0,0,1,2.66,3.65C33.62,153.2,33.61,153.93,33.62,154.65Z" style="fill:#f7f6f5"/><path d="M182.43,37l-.32-5.79a.18.18,0,0,1,.31,0c1.9,1,2.06,2.67,2,4.51,0,.44,0,.88,0,1.33a1.84,1.84,0,0,1-1,.25A.8.8,0,0,1,182.43,37Z" style="fill:#ede9e8"/><path d="M106.56,11.71l0,1a1.22,1.22,0,0,1-.69,1.07,12,12,0,0,1-4.88,1.8l-.78,0c.08-.09.21-.17.24-.27.57-2.27,2.47-2.55,4.33-2.89A4,4,0,0,0,106.56,11.71Z" style="fill:#f5f4f4"/><path d="M168.8,24.15c-.67-.36-1.31-.76-2-1a6.16,6.16,0,0,1-3.15-2.6c2.89.3,5.17,2,7.58,3.37C170.45,24.16,169.67,24.59,168.8,24.15Z" style="fill:#d2c9c6"/><path d="M72.55,31.92c0,2.33,0,4.66,0,7a8.79,8.79,0,0,1-1,3.93c.17-2.68-.64-5.34,0-8A7.5,7.5,0,0,1,72.55,31.92Z" style="fill:#d0caca"/><path d="M176.83,27.68c-.87-.3-1.76-.57-2.62-.9a3.74,3.74,0,0,1-2.49-2.43c2.34,0,4.29.66,5.13,3.14.08.05.1.09.07.13A.12.12,0,0,1,176.83,27.68Z" style="fill:#f0edeb"/><path d="M176.83,27.68a1.11,1.11,0,0,1,0-.19c.64,0,1.29,0,1.92.07,2.16.23,3.15,1.67,3.65,3.6l-.31,0C180.27,30.14,178.56,28.89,176.83,27.68Z" style="fill:#f0edec"/><path d="M149.07,12.71a2.73,2.73,0,0,0,1.26-.27c1.15.58,2.63.77,2.92,2.41A4.09,4.09,0,0,1,149.07,12.71Z" style="fill:#c5bdba"/><path d="M30.69,127.2a3.36,3.36,0,0,1-1.08-2.2,13.65,13.65,0,0,1-.61-3.41,3.4,3.4,0,0,1,1.71,3.56A17.48,17.48,0,0,0,30.69,127.2Z" style="fill:#f6f5f4"/><path d="M190.19,137.15a1.37,1.37,0,0,0-.92.25.91.91,0,0,1-.37-.73c-.06-1.21-.09-2.41-.22-3.62a.87.87,0,0,1,.29-.76h.27a2.9,2.9,0,0,1,1,2.58C190.18,135.62,190.2,136.39,190.19,137.15Z" style="fill:#e8e3e1"/><path d="M32.2,133.23a9.2,9.2,0,0,1,.16,5.23A6.13,6.13,0,0,1,32.2,133.23Z" style="fill:#f7f6f5"/><path d="M19.24,112.84h-.59c-.32,0-.68,0-.73-.43s.34-.38.58-.49.5-.2.76-.3C19.44,112,20.26,112.45,19.24,112.84Z" style="fill:#a18e89"/><path d="M68.87,82.69c-.07.66.19,1.34-.22,2C68.68,84,68.41,83.3,68.87,82.69Z" style="fill:#cfc9c9"/><path d="M234.44,54.57c.95,1.48,2.21,2.73,3.22,4.19a17.77,17.77,0,0,1,3.11,10.34v6.54c-.46,0-.52-.37-.54-.67a31.86,31.86,0,0,1,.18-6.62c-.27,1.21-.26,2.46-.41,3.68a16.79,16.79,0,0,0,.05,3.88c.14,1.28.27,2.57.38,3.86s.16,2.57.26,3.85c-.12-1.31-.14-2.63-.26-4a1.54,1.54,0,0,1,.35-1.36,18.87,18.87,0,0,1,1.15,5.49c.38,3.59.53,7.21.78,10.81-.56-.07-.42-.39-.19-.89-.86,1.66-.94,3.06.36,4.33a.49.49,0,0,1,.15.44,2.21,2.21,0,0,1-1.75,1.33,13.44,13.44,0,0,1-3.46.49,25.66,25.66,0,0,0-8.13.89,1.31,1.31,0,0,1-.83,0,3.6,3.6,0,0,1-1.72-3.47c.07-2.91.13-5.83,0-8.73-.12-2.3-.18-4.59-.2-6.88,0-1.37.35-2.72.24-4.1a9.54,9.54,0,0,0-2-5.92c-.27-.3-.48-.66-.92-.76h0c-.48-1-.18-2.06-.54-3,.06-1.2-.28-1.64-1.42-1.76a14.29,14.29,0,0,0-2.17,0,28.19,28.19,0,0,1-4.68-.25,1.44,1.44,0,0,1-1-.36,3.16,3.16,0,0,1-.24-1.66c-.08-2.82,0-5.64,0-8.46a2.53,2.53,0,0,1,.21-1.18,2,2,0,0,1,2-.44c3.06.43,6.14,0,9.2.41a13.82,13.82,0,0,1,3.2.61,3.21,3.21,0,0,0,3.95-.83,1.58,1.58,0,0,1,1.53.12A.25.25,0,0,1,234.44,54.57Z" style="fill:#6d4e42"/><path d="M218.4,157.54l5-1.82c1.16-.42.49-1.56.89-2.27,1.36-1.61,1.33-3.61,1.61-5.53.07-.53,0-1.17.78-1.29a10,10,0,0,1,.16,6.24,2.64,2.64,0,0,1-1,1.51,4.84,4.84,0,0,0-2.13,2.86c-.31,1.17-1.69,1.36-2.81,1.54a10.12,10.12,0,0,0-3.67,1.12c-2.84,1.7-3.25,4-2.85,7.23.12.94-.14,2,.38,2.84-.16,1.62,0,1.85,1.52,1.82a91.19,91.19,0,0,0,9.92-.21,27.5,27.5,0,0,0,5.52-1.29A2.5,2.5,0,0,1,233,170l1,.24a13.29,13.29,0,0,1-9,3.6c-3.35.17-6.72,0-10.08,0a1.73,1.73,0,0,1-1.8-1.3,17.19,17.19,0,0,1-.66-7.19c.12-1.54.19-3.07.21-4.6,0-1.8.6-2.38,2.44-2.38A5.08,5.08,0,0,0,218.4,157.54Z" style="fill:#8c7064"/><path d="M226.65,146.63c-.71,1-.59,2.2-.69,3.32-.13,1.4-.4,2.69-1.7,3.5a132.83,132.83,0,0,1,.68-13.67c.38-4.95,1.12-9.85,2-14.74a3.1,3.1,0,0,1,.21-.55c0,6.82,0,13.63,0,20.44C227.18,145.61,226.76,146,226.65,146.63Z" style="fill:#af9b93"/><path d="M233,170c-1.9,1.29-4.12,1.59-6.29,1.92-3.65.55-7.35.18-11,.26-.52,0-1.16,0-1.33-.57s-.3-1.22.42-1.61a60.41,60.41,0,0,0,12.32-.19,28.7,28.7,0,0,0,4.69-1.06c.45-.13,1-.45,1.35,0S233.21,169.56,233,170Z" style="fill:#846659"/><path d="M228.86,101.17a17.4,17.4,0,0,1,6.37-1.2,27.32,27.32,0,0,0,5.78-.43,3.07,3.07,0,0,0,2-1.27c.16-.66,0-1.39.48-2h.23c0,.77,0,1.53,0,2.3a2.3,2.3,0,0,1-2.64,2.56,27.89,27.89,0,0,0-9.52,1.17c-.68.23-1.3.92-2,.71C228.66,102.79,229.4,101.7,228.86,101.17Z" style="fill:#83695f"/><path d="M240.42,139.27v17.88h-.24V139.27Z" style="fill:#876a5d"/><path d="M248.56,105.05c.29.71,1,.78,1.57,1,.39.11.79.18,1.16.32a.86.86,0,0,1,.55.86c-.06.45-.51.29-.8.28-2,0-3.58-1-5.44-2a7.93,7.93,0,0,1,3-.45Z" style="fill:#87695c"/><path d="M234.66,113.79v-2.87c1.86-.06,2.5.32,2.48,1.47S236.4,113.81,234.66,113.79Z" style="fill:#a0877e"/><path d="M242.72,133a.54.54,0,0,1,0,.22c-1.33-1.17-1-2.71-.85-4.15a5.09,5.09,0,0,1,.89-2.11Z" style="fill:#856558"/><path d="M30.66,151.55a.34.34,0,0,0,.05.19,8,8,0,0,0,1.94,4.1v.49a2.68,2.68,0,0,0,2.89,2.35h.12c3.76.07,5.61,1.6,5.25,6.23-.11,1.25-.11,2.5-.15,3.75a2.39,2.39,0,0,1-.33,1.63.73.73,0,0,1-.82,0,2.6,2.6,0,0,1-.29-1.64c0-1.66,0-3.32,0-5a2.48,2.48,0,0,0-.23-1.38,1.81,1.81,0,0,0-.24,1.26c0,1.74,0,3.48,0,5.22a2.89,2.89,0,0,1-.22,1.42.73.73,0,0,1-.33.27,20.73,20.73,0,0,1-5,0c-2.47-.22-4.91-.25-7.14,1.07a6.25,6.25,0,0,1-3.23-.32c-4.53-1.31-7.7-4-8.8-8.74a.82.82,0,0,1,.28-.41c1.61-1,1.65-1.18.43-2.58a3.69,3.69,0,0,1-.77-1.19c-.38-2.44-.46-4.91-.7-7.35-.36-3.62-.66-7.24-.88-10.87-.13-2.13-.31-4.26-.35-6.4-.08-4.19-.82-8.2-3.18-11.78-.26-.39-.58-.8-.32-1.33a2.89,2.89,0,0,1,1.75-.3c4,0,8.05,0,12.07,0,1.51,0,1.56-.08,1.49-1.57a18.8,18.8,0,0,0-1-3.18c3,.92,4.27,2.56,4.61,5.94.38,3.9.81,7.79,1.15,11.69.4,4.55.74,9.1,1.08,13.65a22,22,0,0,0,.18,3.14A2.9,2.9,0,0,0,30.66,151.55Z" style="fill:#8b6e62"/><path d="M19.48,55.46c4.31-4.42,9.67-5.6,15.58-5a30.12,30.12,0,0,1,4.4.81c2.56.67,3.55,2,3.33,4.66-.11,1.41-.3,2.81-.5,4.21a12.34,12.34,0,0,0,0,3.74c.32,1.9-.71,3.35-2.45,3.25-5.1-.29-8,2.36-9.59,6.88a6.44,6.44,0,0,1-.3.65q-.12.17-.24,0c-.6-1.73.07-3.22.92-4.67q1.13-1.92,2.24-3.84a4.11,4.11,0,0,1,3.65,0A7.2,7.2,0,0,0,39,65.68c-.14-.45.14-.77.33-1.12,1.9-3.51,1.44-7.09.24-10.66-.35-1-1.28-1.41-2.87-1.18a31.5,31.5,0,0,1-4.34.17A1.85,1.85,0,0,1,31,52.56a15,15,0,0,0-7.7,1.63C22,54.72,20.74,55,19.48,55.46Z" style="fill:#76584d"/><path d="M28.74,102.13a14,14,0,0,0-1.53,3.25c-.83,1.94-2,3.48-4.26,3.86L24.13,107a1.48,1.48,0,0,1,.75-.94,17.18,17.18,0,0,0,2.64-8.45c.3-4,.29-8,.27-12a4.32,4.32,0,0,0,.66-3.12,6.32,6.32,0,0,1,.6-3.3,5.73,5.73,0,0,0,.34-2.49c0-.48-.15-1.08.53-1.32C29.93,84.33,30.12,93.26,28.74,102.13Z" style="fill:#957e76"/><path d="M11.26,97.28c0-5-.11-10,.05-15a81.53,81.53,0,0,1,1.87-16.69,7.33,7.33,0,0,1,.94-2.34,3.87,3.87,0,0,1,.05,3.68,24.48,24.48,0,0,0-.86,3.74c0,.62.11,1.18.12,1.77A59.24,59.24,0,0,1,13,80.81c-.27,2.11-.33,4.24-.55,6.36a44,44,0,0,0-.11,8A2.15,2.15,0,0,1,11.26,97.28Z" style="fill:#785b4f"/><path d="M31,52.56c2.09,0,4.17,0,6.27-.22,1.89-.18,2.45.36,2.92,2.15C41,57.69,41.43,60.88,40,64c-.28.57-.66,1.1-1,1.65-.43-.05-.5-.35-.48-.7a43.71,43.71,0,0,1,.17-4.71,12.3,12.3,0,0,0-.49-5.14,2.17,2.17,0,0,0-2.28-1.62,24.31,24.31,0,0,1-3.72,0C31.6,53.4,31,53.29,31,52.56Z" style="fill:#624033"/><path d="M23.9,118.67a1.18,1.18,0,0,1,.54,1.45c-.23.57-.85.5-1.38.5l-14.49,0a.51.51,0,0,1-.72,0c-.28-.27-.58-.52-.5-1,4.63-.32,9.26-.65,13.89-1C22.13,118.63,23,118.68,23.9,118.67Z" style="fill:#715146"/><path d="M3.46,118.69l-.72,0c-.62-3.75-1-7.5-.05-11.26a2.13,2.13,0,0,1,.78-1.33l.46-.08a3.37,3.37,0,0,1,.51,2.23c.49,3.06.87,6.12,0,9.17A1.7,1.7,0,0,1,3.46,118.69Z" style="fill:#69483c"/><path d="M14.44,75.42c2.61,6.08,1,12.14,0,18.2Z" style="fill:#715347"/><path d="M3.46,118.69a9.06,9.06,0,0,0,1-5.65,43,43,0,0,1,0-4.82c1.08,1,1.07,2.44,1.19,3.76.22,2.48-.39,4.94-.22,7.43C4.51,119.83,4,119.33,3.46,118.69Z" style="fill:#705146"/><path d="M29.92,75.4a1,1,0,0,0-.2.8A7.22,7.22,0,0,1,29.07,80c-.68,1.14-.12,2.51-.29,3.78a2.27,2.27,0,0,1-1,1.82c.56-1.55.05-3.11,0-4.65-.11-2.24,0-4.36,1.88-6,.08-.06.06-.23.08-.35H30Z" style="fill:#76594e"/><path d="M14.17,66.88c0-1.22,0-2.45-.05-3.68,0-.15,0-.29.07-.44.55-.41,1-.15,1.34.27s.85.84.58,1.56A4.87,4.87,0,0,1,14.17,66.88Z" style="fill:#593527"/><path d="M36.53,66.16H32.88a3.28,3.28,0,0,1,3.59-.77C37,65.67,36.81,65.88,36.53,66.16Z" style="fill:#67463a"/><path d="M24.88,106.07a1.35,1.35,0,0,1-.75.94,1,1,0,0,1-.9-.68,1.07,1.07,0,0,1,.25-1.21.83.83,0,0,1,.87-.25C25,105.06,24.82,105.61,24.88,106.07Z" style="fill:#66453b"/><path d="M69.6,132c0-1.38,0-2.75,0-4.13.63.53,1,1.48,2.14,1.12l.61,0c2.23,0,2.55.32,2.33,2.55a3.38,3.38,0,0,0,4.39,3.53,35.49,35.49,0,0,1,7.83-1.61c.32,0,.64-.09,1-.09,5.87.16,11.73-.22,17.59-.5,10.65-.52,21.3-.09,32-.24,5.3-.08,10.58-.59,15.89-.5,4.63.08,9.19.83,13.77,1.34a85.69,85.69,0,0,0,11.86.86,2.57,2.57,0,0,0,2.42-1.11,1.84,1.84,0,0,0,.21-1.85,1.56,1.56,0,0,0-1.67-.73c-3.6.16-7.21,0-10.81.07a6.36,6.36,0,0,1-1.45-.12c-.39-.1-1-.17-1-.58s.55-.5.92-.6a8.85,8.85,0,0,1,2.18-.19c3,0,6,.11,9-.21,1.45-.16,2.84-.67,4.31-.7a2.31,2.31,0,0,0,2.26-.65c.31-.3.74-.55,1,.09a23,23,0,0,1,.59,5.54c0,3.44.16,6.89,0,10.32-.34,6.71-.49,13.41-.5,20.13a2,2,0,0,1-.07.48,9.73,9.73,0,0,0-.71,5.44c.33,1.89-.11,3.79-.22,5.68a68.26,68.26,0,0,1-1.28,10.45,4.91,4.91,0,0,1-.45,1.5,7.1,7.1,0,0,0-1.57,3.39c-.24.87.49,1.25,1.16,1.57a.83.83,0,0,1,.41.33l-.3.72a3.8,3.8,0,0,1-1.94.59c-.53,0-1.05.06-1.58.06H75.69a3.26,3.26,0,0,1-2.22-.39,2,2,0,0,1-1-1.94,4.21,4.21,0,0,1-.34-2,59.62,59.62,0,0,0-.42-14.25c-.29-2.16,0-4.35-.3-6.53a13.29,13.29,0,0,0-.87-3.76,10.67,10.67,0,0,1-.86-5.19,3.27,3.27,0,0,0-.08-1.32l-.06-9.95c-.6-1.85-.31-3.76-.36-5.63-.08-3.07,0-6.13,0-9.2A3,3,0,0,1,69.6,132Z" style="fill:#757676"/><path d="M183.36,193.54c0,.56.06,1.11,0,1.67a1.09,1.09,0,0,0,.93,1.3c0,.81,0,1.62,0,2.43,0,2.23-1.14,3.36-3.37,3.36H151c-3.44,0-6.88.06-10.32,0-22.3-.5-44.61-.09-66.91-.18-1.42,0-1.37-1-1.68-1.74-.43-1-.74-2.1.42-2.93a.29.29,0,0,1,.4.11c1.1,3.13,1.45,3.38,4.79,3.38h103.9c1.24-.05,1.35-.17,1.4-1.44,0-.33,0-.65,0-1,.05-.74.14-1.5-.76-1.85a10.41,10.41,0,0,1-1.61-.52,5.84,5.84,0,0,0-2.84-.47q-11,.51-22,0c-.57,0-1.14,0-1.7,0-17.49,0-35-.12-52.47.06-6.72.07-13.44.1-20.15.18a18.38,18.38,0,0,1-3.15-.17,5.48,5.48,0,0,0-3.31.51c-.54.26-1,.45-1.58,0l0-1.95a2.4,2.4,0,0,1,1.19-.15H177.64a11.14,11.14,0,0,0,4.89-.63A.94.94,0,0,1,183.36,193.54Z" style="fill:#9c9d9d"/><path d="M73.48,196.22a2.42,2.42,0,0,0,1.6-.39,4.27,4.27,0,0,1,3.28-.53,17.43,17.43,0,0,0,3.38.19c5,0,10,.12,15.06,0,19.14-.5,38.29-.21,57.43-.16,6.83,0,13.67.1,20.5.17a15.24,15.24,0,0,0,2.77-.19,4.39,4.39,0,0,1,3.59.7c.48.39,1.15,0,1.57.46a1.9,1.9,0,0,1-1.47.4c-1,0-1.95,0-2.92,0q-51.27.07-102.54,0c-.83,0-1.72.22-2.46-.38Z" style="fill:#979998"/><path d="M183.36,193.54c-.28,0-.64,0-.83.11-1.49,1.14-3.23.87-4.91.87H75.3a2.88,2.88,0,0,1-1.78-.24c0-.24,0-.47,0-.71h62.08q22.41,0,44.83,0c1,0,2-.3,3-.26A.37.37,0,0,1,183.36,193.54Z" style="fill:#828484"/><path d="M73.27,196.48H182.66c1,.29.68,1.07.71,1.72a.9.9,0,0,1-.81.08,23.33,23.33,0,0,0-6.86-.67c-5.27,0-10.54-.07-15.8,0-28.22.51-56.45.09-84.67.22a3.48,3.48,0,0,1-2.46-.39H72.5Z" style="fill:#858787"/><path d="M69.64,158.56c0,.06.14.13.13.19-.49,3.16,1.34,5.82,1.87,8.76a17.19,17.19,0,0,1,.37,3.35c-.11,5.45,1.16,10.83.77,16.3a26.59,26.59,0,0,0-.27,4.46,2.3,2.3,0,0,1-.72-1.85c.28-5.4-.74-10.68-1.53-16a55.8,55.8,0,0,1-.68-9.4C69.63,162.44,69.62,160.5,69.64,158.56Z" style="fill:#7d7e7e"/><path d="M69.6,132q0,8.28,0,16.57c-.26-.24-.17-.78-.7-.77h0a16,16,0,0,1-.13-3.09,3,3,0,0,0-.11-1.3c0-2.49-.61-4.95-.52-7.46a17,17,0,0,1,.52-3.69Z" style="fill:#7d7e7e"/><path d="M223.75,68.11c.94,1,.32,2.13.45,3.2a10.72,10.72,0,0,0-7.75-3.72,10,10,0,0,1-1.08-.16c-2.07-.37-2.9-1.12-3-3.19q-.15-5.32,0-10.67c.05-2.13.66-2.8,2.81-2.82a105.73,105.73,0,0,1,13.32.38,8.29,8.29,0,0,1,5.71,3.35l-1.5,0c-.76.29-1.43-.11-2.11-.31-4.84-1.39-9.72-2.1-14.72-.94a4.88,4.88,0,0,0-1.83.6s-.06.08-.06.11c-.16,4-.91,8,.49,12,1.94-.06,3.87.4,5.82.25C221.1,67.47,222.52,67.62,223.75,68.11Z" style="fill:#84695f"/><path d="M186.05,127.42c-.85.46-1.29,1.82-2.64,1.21a6,6,0,0,0-4.64-.89,2.87,2.87,0,0,1-1,0c-4.16-.53-8.32.23-12.49,0a10.66,10.66,0,0,1-5-1.18,2.21,2.21,0,0,1-.53-1.21,21.2,21.2,0,0,1-.07-2.87c-.08-3.77.19-7.54-.34-11.29a2.53,2.53,0,0,1,.52-1.29c1-.81,2.28-1.13,3.26-2a7.73,7.73,0,0,0,2.55-3.55,1.21,1.21,0,0,1,.2-.3c1-.5,1.81-1.27,3-1a1.26,1.26,0,0,1,.16.91c-.83,2.25-2.61,3.73-4.29,5.28-.3.27-.62.52-.93.78a7.08,7.08,0,0,0-2.52,7.66c0,1.21,0,2.41,0,3.62-.07,1.54.26,3,1.81,3.77.13,0,.26.08.38.12a36,36,0,0,0,17.49,0,2,2,0,0,0,.35-.25,3.62,3.62,0,0,0,.72-2.73V95.39c0-.33,0-.65,0-1,0-2-.15-4,0-6,.17-3.79.68-7.55.89-11.33.06-1.13.09-2.26.15-3.38a81.77,81.77,0,0,1,.22-9.65,2.78,2.78,0,0,1,.28-1.39c.27-.25.44,0,.58.15a2.65,2.65,0,0,1,.37,1.51,139.25,139.25,0,0,0,1.65,18.57,3.5,3.5,0,0,0,.14,1.07c0,1.29,0,2.57.07,3.86a10.11,10.11,0,0,1,.34,3.1c0,8,0,16,0,24,0,3.72-.42,7.43-.28,11.15A1.57,1.57,0,0,1,186.05,127.42Z" style="fill:#705045"/><path d="M186.05,127.42q.13-13.87.26-27.75c0-4,0-7.92,0-11.87.27.2.14.79.69.73a2,2,0,0,1,.12,1.18c0,3.75,0,7.51,0,11.26a2.16,2.16,0,0,0,.12,1.18q0,13.36,0,26.73a3.67,3.67,0,0,0,1.68,3.41,41.59,41.59,0,0,1,.3,5.11,154.93,154.93,0,0,0-1.78,17.2c-.35,5.51-1.14,11-1,16.55a1.51,1.51,0,0,1-.19.55,1.43,1.43,0,0,1-.39-1.21,54.13,54.13,0,0,1,.12-6.11c0-3.44-.1-6.89,0-10.33.28-7,.63-14,.44-21C186.48,131.19,186.22,129.31,186.05,127.42Z" style="fill:#aaabab"/><path d="M186.27,83.94a33.18,33.18,0,0,1-1.4-7.84c-.37-4-.77-8-.75-12.1a1.84,1.84,0,0,0-.5-1.43l-.14-.16c-.34-.79,0-1.68-.36-2.48a27.63,27.63,0,0,1-.09-3.75,21.52,21.52,0,0,0-.17-4.09,2,2,0,0,1,.26-1.73c.19-3-.57-6-.82-9a13.67,13.67,0,0,1,.13-4.42,1.35,1.35,0,0,1,.93.27c.11,5.33.82,10.61,1.42,15.9.49,4.32,1,8.65,1.33,13a92.25,92.25,0,0,1,.38,11.63C186.39,79.83,186.36,81.88,186.27,83.94Z" style="fill:#b5a6a0"/><path d="M187.28,102.15c-.35-.37-.2-.84-.21-1.27q0-6.18,0-12.35c.41.35.24.83.25,1.25C187.29,93.91,187.28,98,187.28,102.15Z" style="fill:#e8e3e1"/><path d="M7.85,120.62l.72,0a20.55,20.55,0,0,1,3.54,8.79,20.39,20.39,0,0,1,.33,3c0,4.56.47,9.09.79,13.64.26,3.77.73,7.52.94,11.3a6.86,6.86,0,0,0,.24,1.18c-.14.24,0,.46,0,.69a13.74,13.74,0,0,0,.16,2.22.88.88,0,0,1-.2.73l-.33.27c-2.05-2.6-2.64-5.69-2.74-8.86-.25-7.95-.94-15.89-.86-23.85a10.05,10.05,0,0,0-2-5.64C7.78,123,7,121.81,6.3,120.65Z" style="fill:#907569"/><path d="M22.88,171.2c1.07.07,2.16-.24,3.2.23a25,25,0,0,0,6.52.37,28.22,28.22,0,0,1,4.31.21c1.58.23,3,0,3.51-1.79.08-1.94,0-3.87.19-5.81.24-2.35-.54-4.46-2.33-5a10.14,10.14,0,0,0-2.86-.41c-1.9,0-2.69-.77-2.76-2.69.57,1.47,2.09,1.24,3.19,1.71a8.61,8.61,0,0,0,3.25.24c1.79,0,2.48.59,2.86,2.33a28.13,28.13,0,0,1,.31,7.5,22.35,22.35,0,0,0-.14,2.3,3.36,3.36,0,0,1-1.49,3.44A27,27,0,0,1,35,174a14.05,14.05,0,0,0-1.44-.08c-2.76.3-5.36-.54-8-1.1A4.14,4.14,0,0,1,22.88,171.2Z" style="fill:#977e74"/><path d="M186.06,164.38c.41.35.24.83.24,1.25,0,2,0,4.05,0,6.07,0,4.61,0,9.21-.08,13.81,0,1.36-.09,2.73-.18,4.1a3.11,3.11,0,0,1-2.39,3h-.52a9.71,9.71,0,0,1,.21-5.1,72.92,72.92,0,0,0,1.53-10.09c.17-1.71.07-3.44.38-5.15a9.18,9.18,0,0,0-.08-3.13A6.52,6.52,0,0,1,186.06,164.38Z" style="fill:#959797"/><path d="M3.47,106.07a18.15,18.15,0,0,0-.78,8.5,27.89,27.89,0,0,1,.05,4.09,7.36,7.36,0,0,1-1.2-4.31c-.18-2.69.39-5.37.22-8.07A4.33,4.33,0,0,1,3.47,106.07Z" style="fill:#6d4d41"/><path d="M240.78,78.31v5.56c-.67-5.31-2.11-10.62-.25-16,0,2.16,0,4.32,0,6.48,0,.43-.16.9.23,1.26C240.77,76.53,240.78,77.42,240.78,78.31Z" style="fill:#68493d"/><path d="M243.46,96.31c-.2.64.48,1.5-.48,2-1.66-.76-1.95-2.67-.67-4.42.31.16.06.62.4.76A2.49,2.49,0,0,0,243.46,96.31Z" style="fill:#624032"/><path d="M160.06,20.7a20.67,20.67,0,0,1,6.8,4.86,25,25,0,0,1,2.5,2.44c.39.34.68.83,1.13,1.07a3.16,3.16,0,0,1,1.66,3.09,26.78,26.78,0,0,1,2.95,7.15,56,56,0,0,1,1.08,8.54c.29,4.69.55,9.38,2.09,13.88.11.33.36.75,0,1s-.66-.16-.94-.36a16.24,16.24,0,0,0-8.08-2.63c-1.2-.13-2.43,0-3.49-.77a1.88,1.88,0,0,0-1.17-.23A22,22,0,0,1,151,54.4c-.14-.09-.29-.16-.42-.25A14.94,14.94,0,0,1,145.93,50a12.12,12.12,0,0,0-3.43-3.19c-.76-.46-1.5-1-2.22-1.48a7.08,7.08,0,0,1-2.67-3.23,1.75,1.75,0,0,0-1-1.12,5.63,5.63,0,0,1-.73-.81,1.58,1.58,0,0,0-1.85-.52,1.65,1.65,0,0,0-1.1,1.71,8,8,0,0,0,.43,2,11.48,11.48,0,0,1,.49,2.37c.06,1.5-.79,2.2-2.23,1.79a27.06,27.06,0,0,1-5.79-2.78c-1.44-.81-2.88-1.65-4.26-2.57-1-.68-2-1.09-3.14-.4a.87.87,0,0,1-.71,0c-.43-.18-.48-.61-.62-1a1.64,1.64,0,0,0-2.15-1.23c-.54.08-1.06.46-1.63.12-.5-1.4.19-2.52.86-3.65,2.22-.58,2.22-2.61,2.72-4.27a1.35,1.35,0,0,0-1-1.61c-.7-.28-1.13.14-1.53.64a26.45,26.45,0,0,0-1.71,2.47c-2.38,5.73-6.38,10.36-10.18,15.13a57.11,57.11,0,0,0-3.82,5.31,6.62,6.62,0,0,1-2,1.92c-.55.38-1.06.84-.84,1.59a1.57,1.57,0,0,0,1.71,1.09,15,15,0,0,0,5.53-1.09,4.67,4.67,0,0,0,2.33-1.37,1.78,1.78,0,0,1,1.17-.76.45.45,0,0,1,.3.19,4.66,4.66,0,0,1-.38,2.36,6.26,6.26,0,0,1-2.08,2c-1,.27-2.08-.16-3.13-.14A93,93,0,0,0,87.45,61c-1.44.24-2.88.45-4.31.73-1.83.36-2.41,1.16-2.52,3a12.12,12.12,0,0,0,2.58,8.14,13.55,13.55,0,0,1,1.44,2.24,3.32,3.32,0,0,1,.47,2.55.56.56,0,0,1-.92.17c-1.4-1.28-2.7-1.06-4,.17-2-.4-2.57-1.49-1.91-3.32a6,6,0,0,1,.47-1,5.32,5.32,0,0,0-.24-5.94,3,3,0,0,1-.42-.74,3.12,3.12,0,0,1,.09-1.91,3.49,3.49,0,0,0,.59-1.17A77.87,77.87,0,0,0,80,55c.39-5.5-.32-11,0-16.46a3.29,3.29,0,0,1,1.46-2A137.78,137.78,0,0,1,94.84,27c3.63-2.34,7.3-4.65,10.77-7.22a18.4,18.4,0,0,1,5-2.8c1.22-.41,1.85-1.51,2.74-2.31a13.55,13.55,0,0,1,2.1-.46c.83-.2,1.5-.56,1.63-1.51A14.67,14.67,0,0,1,122.59,9,2.7,2.7,0,0,0,124,8.06a5.06,5.06,0,0,1,6.16-2.22,3.75,3.75,0,0,0,2.7,0l4,1.75a9.77,9.77,0,0,1,3.8,3.12c-.38,1,.36,1.07,1,1.25a1.59,1.59,0,0,0,1.7-.28q7.89,4.18,15.76,8.37C159.39,20.26,159.72,20.49,160.06,20.7Z" style="fill:#4d352d"/><path d="M132.82,5.87a1.45,1.45,0,0,1-2,.51,6,6,0,0,0-3.88-.29,3.43,3.43,0,0,0-2.66,2c-.17.39-.32.8-.84,1a18.9,18.9,0,0,0-6.18,3.63c-.06.06-.13.14-.2.14a6.18,6.18,0,0,0-3.84,1.93,4.43,4.43,0,0,1-2.74.06,1.16,1.16,0,0,1-.91-.88c.05-.7.6-1,1.07-1.4a19.94,19.94,0,0,1,5.91-3.29,13.92,13.92,0,0,0,7.79-5.66c.18-.28.49-.41.67-.69s.66-.12,1-.12c1.16,0,2.31-.3,3.48-.2A3.1,3.1,0,0,1,131.1,3h0C130.74,4.49,132.21,4.92,132.82,5.87Z" style="fill:#371f1a"/><path d="M143.27,11.71c-.66,1.5-1.65.53-2.5.3s-1.18-.71-.17-1.27Z" style="fill:#412820"/><path d="M109.72,13.66c.14.84.8.93,1.46,1s1.45,0,2.18,0c.07.06.09.11.07.17s0,.08-.07.08a5.14,5.14,0,0,1-3.3,2.62,13.42,13.42,0,0,0-4.4,2.63c-2.35,1.78-4.86,3.33-7.33,4.94-4.7,3.05-9.43,6.07-13.86,9.5a19.6,19.6,0,0,0-4.17,3.65,5.84,5.84,0,0,0-.59,2.94c-.09,5.46-.4,10.9-.69,16.36-.11,2-.06,4-.28,6.05a3.38,3.38,0,0,1-.39,1.63v2a2.4,2.4,0,0,1-.13,2.53,4.07,4.07,0,0,0-.5,2.1c0,1.66,0,3.32,0,5A5.48,5.48,0,0,0,77.82,78c.12.48.27,1,.84,1.08s.9-.21,1.18-.65a1.77,1.77,0,0,1,.46-.56c1.41-1.75,1.63-1.77,3.56-.54.32.21.6.55,1,.54a.7.7,0,0,1,.23.52c-.06.65-.56.84-1.07,1A14,14,0,0,0,80,81.68c-1.22.86-1.69,3.76-1,5.42.21.52.58,1,.45,1.6-1.81,2.69-1.78,5.64-1.53,8.74a45.69,45.69,0,0,1-.79,10.49c-.61,4.07-1.44,8.12-1.91,12.22-.16,1.36-.15,2.74-.41,4.09a4.51,4.51,0,0,1-2,3.21,1.23,1.23,0,0,1-.4.19c-.38,0-.77.09-1-.35.11-2.17.47-4.32.49-6.51a114.82,114.82,0,0,0-1-12.45,40.88,40.88,0,0,1-.2-4.69,40.14,40.14,0,0,0,.14,4.25c.24,6.11,0,12.22.1,18.33a2,2,0,0,1-.25,1.17.72.72,0,0,1-1,0l0-6.78a3,3,0,0,0,.1-1.32q0-11.72,0-23.42A11.17,11.17,0,0,1,70,93.12a18.49,18.49,0,0,0,.46-4.69,3.58,3.58,0,0,1,.84-2.71,1.07,1.07,0,0,1,1.29-.15,3.06,3.06,0,0,1,.31,1.88c0,1.88,0,3.76.13,5.63.13-2.77.09-5.55.12-8.32a62.84,62.84,0,0,1,.2-7.39,16.51,16.51,0,0,0-.25-4.59,1.28,1.28,0,0,0-.66-1.07,2,2,0,0,1-.15-1.5,81.38,81.38,0,0,1,.86-8.39c.54-4.32-.19-8.62,0-12.93a29.88,29.88,0,0,1,.37-4.44c0-1.92.05-3.84.07-5.76a2.07,2.07,0,0,0,.94-2c0-.89,0-1.77,0-2.66,1.68,0,2.73-1.1,3.86-2.09,3.14-.38,5.53-2.22,8-4,.77-.57.83-1.09.09-1.7a5.78,5.78,0,0,1,2.33-1.39A3.91,3.91,0,0,0,91,22.16a3.84,3.84,0,0,1,3.88-1.71c1.69-.75,3.65-1.08,4.61-3l.25-.19c3.09-.44,5.63-2.23,8.41-3.44C108.63,13.64,109.14,13.28,109.72,13.66Z" style="fill:#3e2722"/><path d="M71.54,85.85a3.67,3.67,0,0,0-.74,2.61A13,13,0,0,1,70,94.27a2.92,2.92,0,0,0-.09,1.19q0,11.88,0,23.77c0,.47.16,1-.2,1.4q0-13.22,0-26.43c0-3.84,0-7.68-.06-11.52,0-.63.05-1.25.08-1.88a107.66,107.66,0,0,0,1.58-15.32c0-2,.16-4,.19-5.93a5.17,5.17,0,0,1,.39-2.13l.66-.06a1.26,1.26,0,0,1,.42,1.09c.18,4-.22,7.9-.36,11.84v1.46c.7,1.65.32,3.34.24,5-1.07,2.11-.84,4.38-.87,6.63A3.92,3.92,0,0,1,71.54,85.85Z" style="fill:#685551"/><path d="M71.54,127.41l1,0c.29,1-.37,1.43-1,1.93-1.23.28-1.84-.25-1.93-1.46,0-.17,0-.33,0-.5h.94A.69.69,0,0,1,71.54,127.41Z" style="fill:#564b49"/><path d="M68.64,143.45c.48,1.44.09,2.93.24,4.39C68.34,146.4,68.75,144.91,68.64,143.45Z" style="fill:#bebfbf"/><path d="M71.81,57.42c-.09,3.39-.16,6.77-.27,10.16a64.67,64.67,0,0,1-1.49,12.09,9.5,9.5,0,0,1-.4,1.13c0-4.57-.15-9.14,0-13.71a31.93,31.93,0,0,1,1.9-9.68Z" style="fill:#ada3a1"/><path d="M171.72,32.13a2.59,2.59,0,0,0-1.25-2.7,13.91,13.91,0,0,1-3.61-3.87,4.72,4.72,0,0,0,1.94-.24c3.5,1.91,7,3.83,10.49,5.73a4,4,0,0,1,2.15,3.78c0,3.31.13,6.63,0,9.94a7.91,7.91,0,0,0,1.72,5.59,45.4,45.4,0,0,1,.23,5.83c-.62-.14-.44-.67-.56-1.08.15,1.32-1,2.27-1,3.56v3.76c0,1.29,0,2.59,0,3.88a16.22,16.22,0,0,0,.33,3.74,24.63,24.63,0,0,0,1.27,3.65c0,4-.6,8-.9,12a52.29,52.29,0,0,0-.07,8.67c-.79-.08-.88-.77-1-1.31a9.54,9.54,0,0,1-.46-4.17,39.33,39.33,0,0,0,.18-5.42c0-.48.21-1.24-.49-1.29s-.64.7-.75,1.19a3.42,3.42,0,0,1-.13,1c-.81,1.65-2,3.12-2.46,5-.35,1.28-.66,2.56-1,3.84a4.33,4.33,0,0,1-.44,1.25,11.06,11.06,0,0,0-3.24,4.06,1.16,1.16,0,0,1-1.16-.13c-.57-.87,0-1.75,0-2.63a1.86,1.86,0,0,1,.19-.77c2.09-1.07,2.59-3.2,3.31-5.14,1-2.8,1.84-5.67,3.74-8.11a3.61,3.61,0,0,0-.22-4.74c-1.28-.91-2.77-1.45-4-2.42-1.12-1.32-1-2,.33-2.31.6.31.89.93,1.36,1.37a2.89,2.89,0,0,0,2.39,1,1.87,1.87,0,0,0,1.74-2.1c-.15-2.55-.05-5.1-.07-7.64a5.49,5.49,0,0,0-.5-2.11,8,8,0,0,1-.59-4.14,14.81,14.81,0,0,0-.27-5.54,100.51,100.51,0,0,1-2.59-14.43c-.27-2.57-1.18-4.8-3.79-5.91C172.14,32.52,172,32.26,171.72,32.13Z" style="fill:#6b4d41"/><path d="M109.72,13.66c-2.17.47-4,1.78-5.92,2.71a7.51,7.51,0,0,1-4.07.92L101,15.63c1-.4,2.09-.81,3.14-1.2a4.66,4.66,0,0,0,2.43-1.67,60.87,60.87,0,0,0,15-8.56,4.94,4.94,0,0,1,3.16-1.3.33.33,0,0,0,.22,0c-1.5,3.27-4.24,5.15-7.46,6.3A24.48,24.48,0,0,0,109.72,13.66Z" style="fill:#4b3530"/><path d="M99.48,17.48c.06,1.12-.81,1.58-1.56,2.05a7.08,7.08,0,0,1-3,.92c.19-.13.5-.23.56-.4C96.07,18.06,97.82,17.84,99.48,17.48Z" style="fill:#4c3631"/><path d="M86.38,26.29c1.44.49,1.54.72.4,1.64a20.61,20.61,0,0,1-6.31,3.87,5.25,5.25,0,0,1-2.11.33c-.87-.65-2-.08-2.92-.73.27-.34.66-.26,1-.23,1.24.09,2.34,0,2.79-1.44a.68.68,0,0,1,.43-.4A23.16,23.16,0,0,0,86.38,26.29Z" style="fill:#371e19"/><path d="M75.44,31.4c.71,0,1.42,0,2.13,0,.54,0,.83.17.79.74a5.1,5.1,0,0,1-2.54,2,1.62,1.62,0,0,1-1.35-.09C74.79,33.18,75.11,32.29,75.44,31.4Z" style="fill:#2f1711"/><path d="M32.65,155.84a3.88,3.88,0,0,1-1.94-4.1c1.24.45,1.33,1.75,1.93,2.67Z" style="fill:#dfd8d6"/><path d="M72.53,70.29l-.06-12.93c0-2.66,0-5.32.09-8a13.26,13.26,0,0,1,.9-4.94c0,.64,0,1.29,0,1.93,0,3.72.08,7.42.2,11.13a34.38,34.38,0,0,1-.85,8.86A14.68,14.68,0,0,0,72.76,69C72.74,69.45,72.91,69.92,72.53,70.29Z" style="fill:#442d28"/><path d="M131.1,3c-1.69-.14-3.4.24-5.09-.19a1.17,1.17,0,0,0,.91-.45C128,1,128.73,1,130.06,2A13.71,13.71,0,0,1,131.1,3Z" style="fill:#4f3831"/><path d="M213.78,53.52a22.81,22.81,0,0,1,9.95-1.05,42.09,42.09,0,0,1,9,2,2.38,2.38,0,0,1-3.06,1.34,24.1,24.1,0,0,0-8.79-1.08c-2.14,0-4.25-.34-6.39-.26C213.88,54.46,213.77,54,213.78,53.52Z" style="fill:#664538"/><path d="M213.78,53.52l.73,1c0,3.8,0,7.61,0,11.42a6.68,6.68,0,0,1-1.18-4c0-2.68.13-5.36.23-8C213.57,53.79,213.71,53.66,213.78,53.52Z" style="fill:#715246"/><path d="M223.75,68.11c-2.14,0-2.87-.43-3.41-1.94.69,0,1.37,0,2.06,0a1.86,1.86,0,0,1,1.74,1.27C224.3,67.83,224.17,68.06,223.75,68.11Z" style="fill:#68473b"/><path d="M32.64,172.15c-1.54,0-3.08,0-4.62,0a2.11,2.11,0,0,1-1.94-.72c.42-1.15,1.52-1,2.4-1.2,3.24-.7,6.5.25,9.75,0-.24,1.23-1.3,1.2-2.17,1.28-1.61.15-3.23,0-4.85.05a5.57,5.57,0,0,0-2.36.26c-.14.08.06.27,0,.13s0-.07.06-.1a6.24,6.24,0,0,1,3.32-.17A.44.44,0,0,1,32.64,172.15Z" style="fill:#836256"/><path d="M32.64,172.15c-.92-.49-1.9-.13-2.85-.23-.42,0-.84,0-1.61,0a4.15,4.15,0,0,1,2.34-.73c1.74,0,3.48,0,5.22,0a3,3,0,0,0,2.49-1h.24a.91.91,0,0,1,1.23,0h.72c0,1.77-.46,2.18-2.24,2.19S34.5,172,32.64,172.15Z" style="fill:#7d5c4f"/><path d="M39.7,170.21H38.47c0-2.58,0-5.16,0-7.75,0-.41-.15-1,.56-1s.65.49.65,1Q39.69,166.35,39.7,170.21Z" style="fill:#836256"/><path d="M14.41,162.19v-.73c-.32-.79.1-1.65-.23-2.43a.47.47,0,0,1,.24-.48c.26.3.51.61.78.9C16.5,160.88,16.3,161.56,14.41,162.19Z" style="fill:#7c5a4d"/><path d="M71.55,129.37c.26-.68.86-1.18,1-1.93v0a4.27,4.27,0,0,1,2.12-.38c3.43,0,6.87-.05,10.3,0a43.21,43.21,0,0,0,9.76-.88,9.62,9.62,0,0,1,3,.45c1.31.22,2.61.42,3.94.54a3.45,3.45,0,0,0,1.43.14,57.55,57.55,0,0,0,10.48-1c6.64,1,13.33.82,20,.74,2.75,0,5.5-.3,8.25-.2,3.67-.09,7.32.34,11,.26a29.82,29.82,0,0,0,6.12-.6,2,2,0,0,1,1.42,0c3.91,1.38,7.92,1.07,11.94.79a19.13,19.13,0,0,1,3.63,0,13.92,13.92,0,0,0,3.59,0c1.49-.19,3-.1,3.95,1.36-1.74,0-3.38.64-5.11.8-2.84.27-5.66.1-8.48.17a10.72,10.72,0,0,0-3,.38,5.57,5.57,0,0,0,2.15.37c3.24,0,6.48,0,9.72,0a11.36,11.36,0,0,1,1.91-.13,1.62,1.62,0,0,1,1.59,1.78c-.05,1.32-1,2.67-2.15,2.69a40.31,40.31,0,0,1-5.81-.11c-1.83-.23-3.68-.31-5.52-.56-2.3-.31-4.64-.43-6.94-.78a59.31,59.31,0,0,0-11.82-.68c-14,.73-28,.24-42,.53-6.77.15-13.53.69-20.32.73a21.8,21.8,0,0,0-8.48,1.7c-1.48.64-2.68-.14-3.77-1a2.91,2.91,0,0,1-1.13-2.9c.37-2.24.38-2.24-1.86-2.24Z" style="fill:#747575"/><path d="M77.49,193.28c1.06-1.87,2.81-1.85,4.41-1.89,3.72-.09,7.45,0,11.18,0,21.22,0,42.44-.09,63.66.07,6,0,12,.08,18,.19,1.11,0,2.21-.54,3.34,0a2.5,2.5,0,0,1,.82.48c.27.3.65.62.49,1s-.65.21-1,.21H78.12Z" style="fill:#727474"/><path d="M124.06,165.1a15.3,15.3,0,0,0,1.94-7.23,3.42,3.42,0,0,1,1-2.48,4.53,4.53,0,0,1,2.53-2,1.52,1.52,0,0,1,1.48.28,2.26,2.26,0,0,1,.09,1.73c-.19.43-.63.44-1,.55a2.35,2.35,0,0,0-1.52,1.25c-.13.24-.31.55,0,.77s.51,0,.7-.24a4.27,4.27,0,0,1,1-.89c.22-.11.45-.18.62.11a4.53,4.53,0,0,1-.88,3.52c-1.47,1.3-1.2,3.21-1.72,4.84a6.42,6.42,0,0,1-2.16,3.18c-1.65.64-2.18-.27-2.31-2.05A1.81,1.81,0,0,1,124.06,165.1Z" style="fill:#bab9b9"/><path d="M137.66,158.59a4.17,4.17,0,0,0,2.39,1.67c.95.4,1.95.77,2.3,1.9-.44.48-1,.21-1.46.14s-1-.38-1.47.08a.45.45,0,0,0-.06.56c.39.58.94.24,1.42.21s1.2-.2,1.72.24a2.49,2.49,0,0,1-1.88,1.76c-.79.62-1.84.48-2.7.92a21.34,21.34,0,0,0-2.2,1.2h0c-1.78.58-3.2-.3-4.62-1.15,0-.63.64-.91.76-1.47a3.89,3.89,0,0,1,2.3-.61,7.88,7.88,0,0,0,1,0c.62-.12,1.23-.35,1.3-1.06s-.58-.88-1.12-1.05-.94-.22-1.39-.41a1.5,1.5,0,0,1-1.06-1.7,1.66,1.66,0,0,1,1.49-1.52A9.49,9.49,0,0,1,137.66,158.59Z" style="fill:#d3d1d1"/><path d="M120.21,162.21c-.55.69-.64,1.27.28,1.74a3.51,3.51,0,0,1,.69.65,1.45,1.45,0,0,1-1.05,1.92,4,4,0,0,1-1.78.09c-1.32-.55-2.71-.91-4-1.51-1.31-2-1.13-3.09.78-4.57.4-.31.79-.65,1.19-1a3.28,3.28,0,0,1,2.88-.16C120.54,159.81,120.91,160.92,120.21,162.21Z" style="fill:#d9d7d7"/><path d="M137.66,158.59l-3.15,0a1.32,1.32,0,0,0-1.4,1.24c-.13.76.3,1.19,1,1.44a11.53,11.53,0,0,1,2.09.57c1,.55,1.06,1.27.22,2a1.89,1.89,0,0,1-1.31.55,22,22,0,0,0-3.25.28,1.65,1.65,0,0,1,1.21-1.22c.27-.07.6-.12.61-.47s-.37-.37-.59-.51c-1.05-.66-2.12-1.3-3.17-1.94a17.64,17.64,0,0,0,.71-3.67,1.11,1.11,0,0,1,.21-1.19l0-2c.32-.32.65-.22,1,0-.41,2.6,0,3.22,2.7,3.89A14.39,14.39,0,0,1,137.66,158.59Z" style="fill:#949494"/><path d="M118.21,166.38a7.72,7.72,0,0,1,1,0,1.68,1.68,0,0,0,2-1.73c1,0,1.88.57,2.88.5a15.85,15.85,0,0,0,.13,2.28c.19.88.47,1.36,1.44.92a1.63,1.63,0,0,1,.59-.05,1.72,1.72,0,0,1,.74,2c-1.91.7-3.43-.27-4.94-1.2-1.19-.74-2.24-1.75-3.78-1.72A.63.63,0,0,1,118.21,166.38Z" style="fill:#999a9a"/><path d="M120.21,162.21c.19-2.16-.27-2.66-2.47-2.68l-1.43,0a6.2,6.2,0,0,1,7.78-.82c.59.45.89.77,0,1.43C122.93,161.09,121.93,162.31,120.21,162.21Z" style="fill:#a2a2a1"/><path d="M127,170.21c-.24-.65-.49-1.31-.74-2l2-2.9C129.32,167,129.45,169,127,170.21Z" style="fill:#7c7e7e"/><path d="M131.84,153.69h-1a3,3,0,0,0-2.9,1,5.29,5.29,0,0,1-1,.67,6.43,6.43,0,0,1,.86-2.73c.7-1,1.3-1.17,2.33-.51A4.57,4.57,0,0,1,131.84,153.69Z" style="fill:#787a7a"/><path d="M118.21,166.38l0,.91c-.68,0-1.36,0-2,0-1.41-.09-1.86-.64-1.86-2.19A7.65,7.65,0,0,1,118.21,166.38Z" style="fill:#7c7e7e"/><path d="M183.37,187.48a32.15,32.15,0,0,1-.21,5.1c-1.62-.86-1.78-1.31-1.08-3a4,4,0,0,0,.6-1.68C182.68,187.48,183,187.48,183.37,187.48Z" style="fill:#636666"/><path d="M142.5,163.39a12.85,12.85,0,0,0-2.62.25c-.7.13-1-.15-1-.92s.37-1.11,1.13-1a8.05,8.05,0,0,0,2.34.42A1.24,1.24,0,0,1,142.5,163.39Z" style="fill:#efecec"/><path d="M131.1,166.12c1.56.29,3,1.3,4.62,1.15-.23.38-.65.47-1,.64C132.48,169,131.6,168.58,131.1,166.12Z" style="fill:#949494"/><path d="M135.72,167.27c1.26-1.56,3-1.93,4.9-2.12.16.92-.34,1.27-1.17,1.41C138.2,166.77,137,167,135.72,167.27Z" style="fill:#959595"/><path d="M72.77,197.44c26.77,0,53.54.11,80.3-.07,8.17-.05,16.35-.07,24.52-.16a13.6,13.6,0,0,1,5.78,1c.08,3.14.08,3.14-3,3.14H76.78c-1.66,0-3.16-.26-3.85-2.08A6.1,6.1,0,0,1,72.77,197.44Z" style="fill:#6c6f6f"/><path d="M160.07,110l-.49,1a9.15,9.15,0,0,0-1.33,2.89c-1.91,1.87-4,3.51-6.06,5.22-2.24,1.86-4.42,3.79-6.74,5.56a18.16,18.16,0,0,1-6.15,1.23q-10.26-.06-20.52,0a5.4,5.4,0,0,1-3.37-1.11c-2.24-1.67-3.84-3.93-5.63-6a19,19,0,0,0-2.56-2.59,42.53,42.53,0,0,1-9-9.77c-2.35-3.44-4.56-7-7.07-10.32a2,2,0,0,1-.38-.75,1.19,1.19,0,0,1,.21-1,8,8,0,0,1,3-.39A26.87,26.87,0,0,0,106.4,95c1.61.07,3.25.39,4.71-.62,1.07-.4,2.23-.26,3.32-.55,1.76-.46,2.4-1.38,2.14-3.17a3.26,3.26,0,0,1,0-1.78,1,1,0,0,1,.77-.52c2.07-.28,3.09-1.62,3.59-3.5.52-1,1.29-1.82,1.77-2.83a8.34,8.34,0,0,0,1-4.14,3.53,3.53,0,0,1,.1-.55,10.48,10.48,0,0,1,3-4,2.07,2.07,0,0,1,2.58-.28c1.31.75,2.44,1.54,2.59,3.34a7.72,7.72,0,0,0,3.31,5.92,1.66,1.66,0,0,1,.48.54,9.7,9.7,0,0,0,1.93,3.59,5.63,5.63,0,0,0,1,1.25c.34.35.69.7,1.05,1,1.57,2,3.64,3.57,5,5.72A3.68,3.68,0,0,0,148,96c2.86.11,5.72-.1,8.58.2A4.32,4.32,0,0,0,160.06,95a3.41,3.41,0,0,1,1.08-.76,1.66,1.66,0,0,1,.58-.11c2.21.45,3.89-.18,4.84-2.34a1.84,1.84,0,0,1,1.32-1c.67-.17,1.12.06,1.2.79a4.17,4.17,0,0,1-1.39,4.14c-.12.1-.25.2-.37.32-1.61,1.53-1.46,2.2.67,2.88.27.09.55.15.68.44a1.42,1.42,0,0,1-.6,1.36,7.2,7.2,0,0,0-2.14,3.66h0a5.09,5.09,0,0,1-1.89,1.22A7.18,7.18,0,0,0,160.07,110Z" style="fill:#f9edb1"/><path d="M179.51,83.43c.08-.39.17-.78.23-1.18.09-.66.66-.67,1.1-.7s.58.44.57.79a52.76,52.76,0,0,1-.09,6,8.29,8.29,0,0,0,1.1,6V123c0,1,0,2-1.21,2.5-2.71-1.14-5.52-1-8.36-.71a23.13,23.13,0,0,1-4.48,0,3.86,3.86,0,0,1-3.59-2.81,4.29,4.29,0,0,1-.2-.7,35.43,35.43,0,0,1-.24-7.13,4.07,4.07,0,0,1,2-3.4,4,4,0,0,0,2.1-3.71,1.69,1.69,0,0,1,.88-1.61,9.14,9.14,0,0,0,3-3.41,27.27,27.27,0,0,1,3.39-5.3c.82-.85-.08-1.57-.17-2.35.69-2.55,1.07-5.2,2.34-7.56.45-.85,1-1.62,1.54-2.42.48.42.2,1.08.62,1.83C180.14,85.05,180.41,84.14,179.51,83.43Z" style="fill:#4e362e"/><path d="M175.61,94.37c1.3,1.33,1.29,1.64.08,3a26.22,26.22,0,0,0-3,4.82,8.35,8.35,0,0,1-3.38,3.65c-.53.25-.54.66-.51,1.11a3.89,3.89,0,0,1-2.14,4,4.12,4.12,0,0,0-2.12,4.18c.19,2-.13,4,.33,6s1.8,3.37,3.94,3.35c2.91,0,5.81-.2,8.72-.21a4.64,4.64,0,0,1,3.67,1.2h0a22.14,22.14,0,0,1-4.21.39c-4.6-.08-9.21.32-13.8-.38H163a1.53,1.53,0,0,1-.32-1A13.83,13.83,0,0,0,161,117.7c-.87-3.89.13-5.69,3.29-8.43a17.55,17.55,0,0,0,4.49-5.18,4.23,4.23,0,0,1,1.26-1.86,14.85,14.85,0,0,0,2.62-4C172.82,96.32,174.15,95.29,175.61,94.37Z" style="fill:#49312a"/><path d="M145.46,124.27l12.62-10.51c.74.83.64,1.9.74,2.87a59.82,59.82,0,0,0,1.19,5.93l0,2.92a1.68,1.68,0,0,1-1.36.38c-3.48,0-7,0-10.44,0a6.45,6.45,0,0,1-2.73-.49A.78.78,0,0,1,145.46,124.27Z" style="fill:#f18b69"/><path d="M183.39,73.7a8.24,8.24,0,0,1-1.9-5.57c-.16-3.26,0-6.54,0-9.81,0-.24,0-.57.08-.7.82-.85.81-2,1.07-3,.06-.22.06-.49.39-.66.43.7-.15,1.58.36,2.24,0,1.29,0,2.57.07,3.86.25.81,0,1.66.16,2.48l0,0Q183.32,68.14,183.39,73.7Z" style="fill:#5f3c2f"/><path d="M145.47,125.24c4.85.45,9.71.16,14.57.24.09.32.17.64.26,1a19.59,19.59,0,0,1-5.31,1c-4.39.19-8.77-.19-13.15-.29A3.81,3.81,0,0,1,145.47,125.24Z" style="fill:#e68667"/><path d="M165.93,104.38a3.64,3.64,0,0,1,1.22-3.13,5.53,5.53,0,0,0,1.41-1.78,2.86,2.86,0,0,1,1.91-3.18c.46-.17.69-.68,1.21-.7l-.2,2.67c-.87,1.61-1.9,3.13-2.73,4.77Z" style="fill:#ecdfa7"/><path d="M163.2,125.49h18a18.89,18.89,0,0,1-4.56,1,37.34,37.34,0,0,1-13-.72A2.41,2.41,0,0,1,163.2,125.49Z" style="fill:#4e362e"/><path d="M160,122.56a12,12,0,0,1-1.36-4.42c-.29-1.44-.39-2.92-.57-4.38a3.42,3.42,0,0,1,1.5-2.83C160.39,114.78,160,118.67,160,122.56Z" style="fill:#e68767"/><path d="M160.07,110a4.37,4.37,0,0,1,2.1-3.56,21.52,21.52,0,0,1,3.78-2c-.57,2.35-2.24,3.74-4.24,4.83C161.18,109.49,160.62,109.72,160.07,110Z" style="fill:#ecdfa7"/><path d="M161,117.7a8.45,8.45,0,0,1,1.92,5.14,25.81,25.81,0,0,1,0,2.64c-1.74-.74-2.12-2.35-2.06-3.91C161,120.28,160.94,119,161,117.7Z" style="fill:#50382f"/><path d="M168.75,103a9.42,9.42,0,0,1,2.73-4.77h1.21c-.11,2-1.69,3.16-2.78,4.6-.33.44-.73.83-1.1,1.24Z" style="fill:#50382f"/><path d="M183.58,62.53a5.63,5.63,0,0,1-.16-2.48A6.47,6.47,0,0,1,183.58,62.53Z" style="fill:#705045"/><path d="M14.17,159c.48.77.13,1.62.23,2.43C13.92,160.69,14.27,159.84,14.17,159Z" style="fill:#8b6e62"/><path d="M171.72,32.13c3.58.86,4.51,3.47,4.83,6.46.4,3.8,1.08,7.54,1.85,11.28.5,2.43,1.43,4.81,1.09,7.36a9.67,9.67,0,0,0,.9,6.31c.32.55.05,1.43.09,2.15.1,2.3-.13,4.59.16,6.89.21,1.66-1.82,2.82-3.47,2.14a5.62,5.62,0,0,1-2.54-2.49,1.93,1.93,0,0,1,.34-1.6,19.35,19.35,0,0,0,1.24-3.41c.57-2.1,0-3.47-2-4.37a25.15,25.15,0,0,0-7.09-2c-1.8-.25-3.63-.11-5.42-.45a9.69,9.69,0,0,1-2.65-.81c-1.4-.65-2.93-.88-4.34-1.51a8.93,8.93,0,0,1-3.85-2.84c-.32-.43-.78-.88-.34-1.51a47.17,47.17,0,0,0,5.49,3,19.89,19.89,0,0,0,8.36,1.59,2.37,2.37,0,0,1,2,.59,1.89,1.89,0,0,0,1.6.39c2.88-.25,5.44.92,8.08,1.75a6.67,6.67,0,0,1,2.19,1.72,41.51,41.51,0,0,1-1.77-7.09c-.34-2.19-.49-4.39-.63-6.59a55.19,55.19,0,0,0-1.48-11.09A26.87,26.87,0,0,0,171.72,32.13Z" style="fill:#53372e"/><path d="M85,78.34l-.06-.51c.2-1.91-.89-3.32-1.94-4.7a12.47,12.47,0,0,1-2.67-8.95A2.75,2.75,0,0,1,83,61.37c4.87-.71,9.69-1.7,14.61-2.07a54.62,54.62,0,0,1,7,.05c.85,1.22.53,2-.93,2.25a2.63,2.63,0,0,0-1.84.75,1.57,1.57,0,0,1-.76.23,2.55,2.55,0,0,1-.39,0,18.09,18.09,0,0,0-7.48,1,7,7,0,0,0-4.61,5.16,38.93,38.93,0,0,0-.13,4.58c0,.72.67,1.16.77,1.84a1.77,1.77,0,0,1-.88,1.17c-.77.3-.72,1.06-.9,1.68-.37,1.25-1,1.53-2.22,1C85,78.84,85.08,78.56,85,78.34Z" style="fill:#b43826"/><path d="M114.34,36c-.39,1.21-1.11,2.32-1,3.67.18.56-.18,1-.36,1.47a15.69,15.69,0,0,0-1.26,5.57,7.86,7.86,0,0,1-.09,1.53c-.38,2.72-2.24,4.56-3.89,6.52a1,1,0,0,1-.93.46l-.3,0c-.38-.39-.29-.9-.32-1.37a10.2,10.2,0,0,0-1-3.6c-.22-.47-.57-.86-1.14-.54a.91.91,0,0,0-.38,1.26c.13.3.33.55.49.84.82,1.55.43,2.5-1.26,3a15.3,15.3,0,0,1-1.9.41,3.89,3.89,0,0,0-.94.22c-.48.23-1,.53-1,1.11s.74.43,1.19.49c.94.13,1.93-.27,2.82.34a12.59,12.59,0,0,1-5.69,1.21,1.82,1.82,0,0,1-2-1.39,1.56,1.56,0,0,1,1-1.84c1.4-.7,2-2.06,2.81-3.25,2.21-3.22,4.77-6.18,7.15-9.27a43,43,0,0,0,5.94-9.78C114.17,33,115.07,34.3,114.34,36Z" style="fill:#442b24"/><path d="M117.74,41.62c.24,0,.52,0,.7-.15,1-.79,1.92-.43,2.88.17a64.29,64.29,0,0,0,9.28,5.18c.79.32,1.65,1,2.47.31s.49-1.62.25-2.48c-.19-.7-.34-1.41-.55-2.11-.47-1.6-.12-2.76,1-3.22s2-.08,2.94,1.56c-.12.55-.71.89-.65,1.52a19.42,19.42,0,0,0,2.18,9.81,1.87,1.87,0,0,1,.31,1.15.36.36,0,0,1-.25.26,2.82,2.82,0,0,1-1.7-.52c-2.1-1.15-4-2.55-6-3.83a28.13,28.13,0,0,0-6.71-3.08,13.39,13.39,0,0,1-2.92-2,3,3,0,0,0-2.51-2C118.12,42.1,117.71,42.11,117.74,41.62Z" style="fill:#65483c"/><path d="M135.74,42.1c.06-.62.52-.92,1-1.22.51,0,.85,0,1,.69a6.27,6.27,0,0,0,2.77,3.53c.5.34,1,.68,1.5,1a15.25,15.25,0,0,1,4.41,4,12.12,12.12,0,0,0,4.14,3.64c.4,1.8,1.79,2.7,3.22,3.55,1.65,1,3.58,1.22,5.3,2a1.08,1.08,0,0,1-1,.39c-2.43-.06-4.84.21-7.27.2a1.47,1.47,0,0,1-.74-.33,7.63,7.63,0,0,0-2.9-2.93,2.93,2.93,0,0,1-1-1c-.34-1-1.3-1.36-1.91-2.08-.13-.37-.17-.77-.31-1.15a8.15,8.15,0,0,0-2.16-3.18c-1.66-1.76-3.52-3.34-5.05-5.24A6,6,0,0,1,135.74,42.1Z" style="fill:#6f4b3e"/><path d="M101.66,62.23c.17-.74.77-.85,1.38-.91,1.88-.18,1.9-.19,1.53-2l1.75-1.7a.39.39,0,0,1,.47.27,1.83,1.83,0,0,0,2,1.16c4.48.69,8.91,1.68,13.4,2.33a42,42,0,0,0,15.32-.31c.89.22,1.85.29,2.43,1.16a8.26,8.26,0,0,1-3.08,1.24,2,2,0,0,1-.64.08c-4.84.07-9.67.1-14.51,0l-.42-.06c-1.5-.48-3-.88-4.52-1.39a8.45,8.45,0,0,0-6.27.31c-2.38-.19-4.75.35-7.13.21C102.76,62.61,102.12,62.77,101.66,62.23Z" style="fill:#d17a59"/><path d="M78.35,65.19c.06-4.39.39-8.78.54-13.18.12-3.86.44-7.72.44-11.6a2.2,2.2,0,0,1,1-2.2c0,1.86,0,3.72,0,5.57s.24,3.47.2,5.19c-.1,4.57,0,9.16-1.12,13.67C79.15,63.56,79.37,64.6,78.35,65.19Z" style="fill:#442b25"/><path d="M103.16,57.42h-3.4c-.45,0-1,0-1.13-.5s.19-.83.49-1.17a2.11,2.11,0,0,1,1.34-.75c.59-.09,1.19-.16,1.78-.26,2.3-.43,2.73-1.47,1.32-3.32a1.38,1.38,0,0,1,1-2.27c.7,0,.85.56,1,1a10.12,10.12,0,0,1,1,5C105.45,56,104.74,57.38,103.16,57.42Z" style="fill:#361f1c"/><path d="M80.3,77.83c-.09.92-.35,1.68-1.47,1.7s-1.39-.93-1.42-1.74c-.08-2.38,0-4.77,0-7.15a.91.91,0,0,1,.16-.57,3.66,3.66,0,0,0,.8-2.93,5.33,5.33,0,0,1,.77,6.62c-.13.25-.31.48-.42.73C77.93,76.29,78.28,77,80.3,77.83Z" style="fill:#442b25"/><path d="M117.74,41.62c.27.34.67.17,1,.25a2.82,2.82,0,0,1,2.4,2.2A4.3,4.3,0,0,1,117.85,43a5.08,5.08,0,0,0-1.53-.92c-1.22-.72-1.57-.61-2.16.72a20.09,20.09,0,0,1-1.58,3.1c-.27.41-.48,1-1.15.88a15.52,15.52,0,0,1,1.95-7l.69-.23c2.12-.73,3.27-.21,3.46,1.88C117.54,41.44,117.67,41.53,117.74,41.62Z" style="fill:#735645"/><path d="M108.51,59.34c-1.42.32-1.72-.79-2.19-1.69a8.33,8.33,0,0,1,.53-2.41A22.05,22.05,0,0,0,111,49.87c.29-.47.11-1,.38-1.48.66.81.25,1.76.35,2.64a6.51,6.51,0,0,1-2.53,5.33,1.77,1.77,0,0,0-.75,2.29A.76.76,0,0,1,108.51,59.34Z" style="fill:#e2cd92"/><path d="M114.34,36c0-2.11-.11-2.26-2-2.92.58-.82,1.16-1.63,1.72-2.46s1.07-1.22,2-.77a1.85,1.85,0,0,1,1.07,2.29c-.2.86-.56,1.67-.84,2.5A1.78,1.78,0,0,1,114.34,36Z" style="fill:#472f28"/><path d="M113.36,14.87v-.25c.75-1.74,2.24-2,3.9-1.94.18.89-.28,1.35-1.06,1.62A19.56,19.56,0,0,1,113.36,14.87Z" style="fill:#47302b"/><path d="M94.93,126.44a22.84,22.84,0,0,1-6.3,1c-5.37.07-10.74,0-16.11,0,1.73-1.23,2.07-3.11,2.16-5,.25-5,1.4-9.85,2.11-14.77.26-1.82.39-3.67.63-5.5.38-2.75,0-5.46-.06-8.19a8.09,8.09,0,0,1,2-5.43.76.76,0,0,1,.87-.15.59.59,0,0,1,.26.26,3.21,3.21,0,0,1,.13,1.44,10.81,10.81,0,0,0,2.22,6.79c1.88,2.79,4,5.4,6,8.12.57.79,1.19,1.54,1.74,2.34,1.14,1.62,2.14,3.4,4.45,3.54a1.09,1.09,0,0,1,.19.37c.24,2.26,0,4.51.11,6.76,0,2.4,0,4.8,0,7.19A1.79,1.79,0,0,1,94.93,126.44Z" style="fill:#4d352d"/><path d="M71.54,127.41h-1V102.91c.36,2.41.55,4.82.92,7.22a68.43,68.43,0,0,1,.77,13.26A15.74,15.74,0,0,1,71.54,127.41Z" style="fill:#321813"/><path d="M72.5,76.84c0-1.7,0-3.39,0-5.09.13-.19.27-.37.49-.69a17.77,17.77,0,0,1,.61,7.1c0,.52-.15,1-.15,1.56V92.58c0,.24,0,.48,0,.73s0,.79-.51.77-.46-.48-.46-.83c0-2.54,0-5.09,0-7.64a1.16,1.16,0,0,1-.34-.75C72.17,82.18,71.83,79.49,72.5,76.84Z" style="fill:#361e18"/><path d="M80.31,88.52h-1a5.84,5.84,0,0,1-.53-5.65,3.24,3.24,0,0,1,1.46-1.8c1.35-.8,2.56-1.84,4.15-2.16a.68.68,0,0,0,.55-.58l.21.48a1.61,1.61,0,0,1-.07,2,26,26,0,0,1-2.41,1.08,4.35,4.35,0,0,0-2.39,4.8C80.39,87.26,80.73,87.9,80.31,88.52Z" style="fill:#6f5742"/><path d="M77.64,48.35a3,3,0,0,1-1.43,2.87c-.56.35-.78.34-.78-.37,0-2.06,0-4.13,0-6.19,0-.66.35-1.1,1-1.07a.84.84,0,0,1,.9,1A27.4,27.4,0,0,0,77.64,48.35Z" style="fill:#442b25"/><path d="M72.5,76.84c0,2.92,0,5.85,0,8.77a1.74,1.74,0,0,0-1,.24c.15-2.45-.29-4.93.26-7.36A3.2,3.2,0,0,1,72.5,76.84Z" style="fill:#442d28"/><path d="M71.05,101.21c0,.22,0,.61-.06.62-.3,0-.14-.23-.16-.36a.77.77,0,0,1,.07-.32Z" style="fill:#57433f"/><path d="M150.58,59.61c2.83-.22,5.67-.27,8.5-.29a14.24,14.24,0,0,0,5.43,1,25.82,25.82,0,0,1,9.65,2.07c2.3,1,3,2.43,2.41,4.85a33.32,33.32,0,0,1-1.94,5c-1.44.71-.51,1.44,0,2.17A7.46,7.46,0,0,0,172,78.84c-.15.58-.22,1.53-1.29,1.34a2.71,2.71,0,0,1-.28-1.63c0-2,0-4.07,0-6.11-.35-1.32-.71-2.64-1-4a2.71,2.71,0,0,0-1.1-1.4,36,36,0,0,1-3.52-2.77c-1.14-1.92-3-1.75-4.84-1.68a22.41,22.41,0,0,1-5.23-.37,1.4,1.4,0,0,1-.71-.69c-.34-.83-1.14-.77-1.82-1S150.64,60.6,150.58,59.61Z" style="fill:#b63a28"/><path d="M171.68,95.59c-.27.18-.16.67-.53.74-1.75.32-2.2,1.7-2.59,3.14-.64-.2-1.3-.36-1.92-.61-.91-.37-1.15-1.07-.56-1.83a6.09,6.09,0,0,1,1.45-1.6,3.86,3.86,0,0,0,1.26-4.06c-.1-.28-.28-.44-.53-.38-.57.14-1.16.26-1.44.94a3.79,3.79,0,0,1-2.15,2.32,3.89,3.89,0,0,1-2.94.1c0-.72.6-.89,1.05-1.14a4.43,4.43,0,0,0,1.81-1.83,11.94,11.94,0,0,0,4.73-4.9c2.07-.13,2.3-.33,2.76-2.4a4.38,4.38,0,0,1,.46-1.49,22.37,22.37,0,0,1,1.89-2.65,2.62,2.62,0,0,1,3.93-.19.78.78,0,0,1-.22.67c-2.39,2.6-3.25,5.91-4.23,9.16-.39,1.31-.73,2.65-1.25,3.92a3.68,3.68,0,0,1-.92,1.4Z" style="fill:#f7eab0"/><path d="M172.7,82.69c-.16.71-.31,1.41-.48,2.11-.45,1.83-1.14,2.25-2.94,1.79a.21.21,0,0,1-.32-.08c-.17-.54.15-.94.4-1.34a6.43,6.43,0,0,0,1.08-3.66,1.2,1.2,0,0,1,.52-1.27A9.31,9.31,0,0,0,172.21,77a3.56,3.56,0,0,1,2.4-2.62l3.92,2.25a1.19,1.19,0,0,1,.11,1.36c-.36.3-.69,0-1-.07a9.29,9.29,0,0,0-1.87-.46,1.86,1.86,0,0,0-2.3,1.58C173.09,80.25,173.21,81.53,172.7,82.69Z" style="fill:#eddfa7"/><path d="M178.53,78.08V76.65a2.11,2.11,0,0,1,1.11,2.64,8,8,0,0,1-1.59,3.79,10.58,10.58,0,0,0-1.92,4c-.58,1.81-1.28,3.57-2,5.34a3.59,3.59,0,0,1-2.43,2.47A56.38,56.38,0,0,0,174.35,87a18.07,18.07,0,0,1,3.93-7.25A1.92,1.92,0,0,1,178.53,78.08Z" style="fill:#e0d5a0"/><path d="M180.44,40.12v7.27C178.92,45.89,178.85,42.71,180.44,40.12Z" style="fill:#785b50"/><path d="M179.51,83.43c.86-.32.86.45.92.85a3.45,3.45,0,0,1-.33,2.4c-.85-.62-.52-1.51-.61-2.29C179.5,84.07,179.5,83.75,179.51,83.43Z" style="fill:#402723"/><path d="M80.31,88.52a17.89,17.89,0,0,1-.39-3c.08-2.36,1.57-3.68,3.65-4.47.45-.17.92-.28,1.39-.42.48,0,.68.39.85.76.66,1.42,1.59,2.7,2.2,4.16a8.32,8.32,0,0,0,2.89,5,30.3,30.3,0,0,1,2.47,2.47c.27.29.77.53.48,1.09a10.49,10.49,0,0,1-2.85.22c-.53-.51-.32-1.53-1.3-1.81A7.23,7.23,0,0,0,91,95.34c2.5,3.22,4.68,6.67,7,10A43.91,43.91,0,0,0,107.6,116c2,1.51,3.35,3.61,4.94,5.48a20.19,20.19,0,0,0,4,3.64,2.53,2.53,0,0,0,1.5.37c7.49,0,15,0,22.48,0a15.68,15.68,0,0,0,4.91-1.19c0,.32,0,.65,0,1a9.29,9.29,0,0,0-3.63,1.89c-6.78.17-13.55.5-20.32.26a49.6,49.6,0,0,1-8.15-.91l-.17,0a72.13,72.13,0,0,0-7.61-6.35c-2.68-1.87-5.34-3.77-7.89-5.82A14.94,14.94,0,0,1,96,113a5.25,5.25,0,0,1-1.07-2.07h0a12.26,12.26,0,0,1-3.11-3.35,104.61,104.61,0,0,1-10.36-16.1,10.79,10.79,0,0,1-1.13-2.9Z" style="fill:#e9d092"/><path d="M96.11,112.87,97.82,114a2.16,2.16,0,0,1,0,1.76,61.2,61.2,0,0,0-1.71,7.32c0,.2-.06.4-.08.6-.14,1.87.21,2.19,2.08,2a60.38,60.38,0,0,1,13,0,4.11,4.11,0,0,1,2.26.78l.06,0A39.37,39.37,0,0,1,103,127.66c-.39-.25-.85,0-1.24-.19-2.31,0-4.52-.7-6.78-1l0-8.46a7.94,7.94,0,0,0,.63-3.12A2.32,2.32,0,0,1,96.11,112.87Z" style="fill:#dd6642"/><path d="M141.57,130.34H114.88c-.34,0-.53-.18-.5-.53s.23-.41.5-.42h26.69A.7.7,0,0,1,141.57,130.34Z" style="fill:#6f7274"/><path d="M141.57,130.34v-1h16.12c.41,0,1.13-.26,1.08.54s-.69.41-1.08.41C152.32,130.35,146.94,130.34,141.57,130.34Z" style="fill:#6f7676"/><path d="M101.71,127.47c.42,0,.86-.14,1.23.19C102.53,127.62,102.08,127.82,101.71,127.47Z" style="fill:#757676"/><path d="M130.84,155.65a1.56,1.56,0,0,1-.21,1.19,4.05,4.05,0,0,0-1.26,1.28.84.84,0,0,1-1.16.34c-.43-.2-.21-.61-.11-1A2.47,2.47,0,0,1,130.84,155.65Z" style="fill:#d6d5d5"/><path d="M93.85,94.14a17,17,0,0,0-3.32-3.45,7.52,7.52,0,0,1-2.7-5.07A7.53,7.53,0,0,1,89,82.42c.8.08.89.84,1.24,1.34a9.88,9.88,0,0,1,.92,1.84,3.07,3.07,0,0,0,2.67,2.73,1.88,1.88,0,0,1,1.15.6,1.14,1.14,0,0,1,.18.32c.8,2.22,1.38,2.57,3.74,2.26a3,3,0,0,1,1-.05,7.41,7.41,0,0,0,6.39.06,3.06,3.06,0,0,1,2.13,0c.71,1.42,2.21,1.47,3.43,2,.14.5.12.92-.54,1a4.94,4.94,0,0,1-1.76.13,5.23,5.23,0,0,0-3,.69c-4.15.41-8.29.53-12.3-.93A2.3,2.3,0,0,1,93.85,94.14Z" style="fill:#c34e38"/><path d="M135.71,83a9.58,9.58,0,0,1-4.14-7.43c-.15-1.37-1.5-1.9-2.6-2.44-.91-.46-1.63.08-2.25.71a11.13,11.13,0,0,0-2.61,3.58,5.9,5.9,0,0,1,.46-5.28,1.52,1.52,0,0,1,1.2-.46,35.54,35.54,0,0,1,4.84.06A2.71,2.71,0,0,1,132,72.91c.17,2.11,1.61,3.71,2.28,5.62.24.66,1,.81,1.52,1.1a2.79,2.79,0,0,1,.9,2,2.28,2.28,0,0,1-.67,1.21A.72.72,0,0,1,135.71,83Z" style="fill:#cb664b"/><path d="M121.17,84.93c-.38,2.53-2,3.6-4.4,3.84a.54.54,0,0,1-.32.13,2.1,2.1,0,0,1-1.17-.34c-.11-.48.23-.73.54-1A2.86,2.86,0,0,0,117,85.11a4.1,4.1,0,0,1,1.43-2.57,6.33,6.33,0,0,0,1.76-2.79.36.36,0,0,1,.36,0,13.55,13.55,0,0,0,.9,2.15A5.17,5.17,0,0,1,121.17,84.93Z" style="fill:#c5563d"/><path d="M121.15,81.72c-.93-.41-.69-1.26-.76-2,0-.51.37-.75.62-1.09a15.76,15.76,0,0,0,1.75-7.44,3,3,0,0,1,.2-1.54c.61-.37.92.14,1.12.51.57,1.09,1.31,1.2,2.37.69A4.12,4.12,0,0,1,130,71c.42.19.92.35.91,1-1.68,0-3.37,0-5.06,0a1.19,1.19,0,0,0-1.3.94,9.52,9.52,0,0,0-.4,4.49l-.09.42A9.24,9.24,0,0,1,121.15,81.72Z" style="fill:#bd3e2a"/><path d="M164.73,91.49c-.14.94-.86,1.37-1.58,1.81a5.62,5.62,0,0,0-1.42,1l-.47.05a20.66,20.66,0,0,1-11.13,1.2c-.91-.17-2.09,0-2.5-1.26.49-.44,1.09-.26,1.66-.33,1.94,0,3.88.09,5.82,0a20.33,20.33,0,0,0,6.9-2.2,5.43,5.43,0,0,1,2-.62A.87.87,0,0,1,164.73,91.49Z" style="fill:#cf7459"/><path d="M147.58,94.4a13.34,13.34,0,0,0,7.16,1.08c2.21-.19,4.34-.79,6.52-1.08a6.84,6.84,0,0,1-3.82,2.12,22.67,22.67,0,0,1-2.87-.22c-2.22,0-4.45.08-6.66,0-1.43-.06-2.85-.34-3.38-2A3.18,3.18,0,0,1,147.58,94.4Z" style="fill:#f3dea5"/><path d="M139.59,88.8l-1-.92c-.33-.94-.29-1.74.79-2.17.49,0,.75.43,1,.74a3.86,3.86,0,0,0,2,.93,5,5,0,0,1,1.22,1.06c.72,1.45,2.1,1.7,3.5,1.92a.87.87,0,0,1,.38.82c-.36,1-1.24,1.16-2.09,1.4-1.14-.21-1.8-1.16-2.63-1.82A12.68,12.68,0,0,0,139.59,88.8Z" style="fill:#bf412c"/><path d="M116.54,88.79a.37.37,0,0,1,.23,0,11.6,11.6,0,0,0,.19,2c.39,2-.88,3.33-3.39,3.54-.8.07-1.58.17-2.37.29-.16-.09-.15-.17,0-.22.62-.11.34-.65.47-1,.32-1,1.28-1.29,2-1.9A14.91,14.91,0,0,0,116.54,88.79Z" style="fill:#ecc794"/><path d="M139.59,88.8c1.85-.06,2.88,1.38,4.17,2.32.57.43,1.09.92,1.7,1.3A12.07,12.07,0,0,1,149.19,94a.34.34,0,0,1,.17.4l-1.78,0-3.05-.12C142.88,92.46,141.24,90.63,139.59,88.8Z" style="fill:#ce6f53"/><path d="M139.62,85.86c-1.1.3-.83,1.27-1,2a3.92,3.92,0,0,1-1-1.2,6.37,6.37,0,0,0-1.9-4l.73-1c1.1-.33,1.62.58,2.34,1.08a7.83,7.83,0,0,1,1,2A1.06,1.06,0,0,1,139.62,85.86Z" style="fill:#c14b35"/><path d="M121.15,81.72c.95-1.3,1.91-2.59,2.87-3.89.24,2.84-1.25,5-2.85,7.1C121.16,83.86,121.15,82.79,121.15,81.72Z" style="fill:#c95f45"/><path d="M111.22,94.4a1.5,1.5,0,0,0,0,.22c-1.41,1.17-3,.78-4.65.68a2.84,2.84,0,0,1,2.77-1.06A15.38,15.38,0,0,1,111.22,94.4Z" style="fill:#d0755a"/><path d="M135.74,82.69c1.76.8,2.11,2.26,1.9,4A6.51,6.51,0,0,1,135.71,83Z" style="fill:#c85c42"/><path d="M91,95.34c-1.23-.73-1.4-2-1.91-3.26,1.57.31,1.79.58,1.91,2.28Z" style="fill:#f1e2a1"/><path d="M89.07,82.42a10.49,10.49,0,0,1-1.24,3.2l-2.87-5c.35-.58.16-1.22.22-1.83,1.36.44,1.62.24,2-1.09.16-.63-.05-1.67,1.15-1.6.38,1.83.66,3.69,1,5.53A.81.81,0,0,1,89.07,82.42Z" style="fill:#b94f3a"/><path d="M101.66,62.23c2.52.2,5-.13,7.54-.18a4.15,4.15,0,0,1,1.53.18,5.73,5.73,0,0,1,5.44,2.33c.13.24.31.49,0,.75a2.6,2.6,0,0,1-1.82.11,21.39,21.39,0,0,0-5.1-1.82,17,17,0,0,0-6.81.42c-.53.11-1.09.38-1.61-.06a1.43,1.43,0,0,1,.09-1.65Z" style="fill:#dcac8e"/><path d="M89.07,82.42a10.64,10.64,0,0,0-.6-3.31,7.69,7.69,0,0,1-.17-3l.77-.95a1.61,1.61,0,0,1,1.3-.88,1.1,1.1,0,0,1,.84.94,5.33,5.33,0,0,1-.44,2,4.54,4.54,0,0,0,.42,4.54,4,4,0,0,1,.15,1.19,10.41,10.41,0,0,1-.13,2.43.66.66,0,0,1-.27.3Z" style="fill:#e9d092"/><path d="M88.12,73.69c.06-1.7-.31-3.42.19-5.1.23-.32.43-.69.92-.64a5.31,5.31,0,0,0,4.06.41,1.21,1.21,0,0,1,1.55.61c.36.74.6,1.52-.17,2.19a2.46,2.46,0,0,1-1.56.11C90.4,70,90.4,70,89.12,72.84,88.93,73.27,88.76,73.76,88.12,73.69Z" style="fill:#6d5854"/><path d="M101,62.31l0,1.61a1.06,1.06,0,0,1-.16,1,2.74,2.74,0,0,1-2.16.65,30.07,30.07,0,0,1-5.45-.15c-.52-.38-.15-.71.08-1a3.19,3.19,0,0,1,1.64-1,19.23,19.23,0,0,1,5.86-1.14Z" style="fill:#7b534b"/><path d="M100.72,62.29A38.09,38.09,0,0,0,95,63.75a3.09,3.09,0,0,0-2,1.43.69.69,0,0,1-.46.53,9,9,0,0,0-3.41,2.4l-.76.48c.47-2.75,2.3-4.33,4.72-5.32A17.77,17.77,0,0,1,100.72,62.29Z" style="fill:#92463a"/><path d="M88.12,73.69c.87-.46.81-1.42,1.15-2.15.8-1.77,1.58-2,3.2-.89.17.11.31.25.47.37-.46.79-1.42,1.17-1.7,2.1-.28.46-.4,1.06-1,1.31s-.69.67-1.2.75C88.79,74.66,88.22,74.32,88.12,73.69Z" style="fill:#5f4843"/><path d="M80.54,64.85c-.07-1.13.8-1.06,1.49-1.1a1.29,1.29,0,0,1,1.42,1.33A3.68,3.68,0,0,1,82,67.2C81.57,67.23,80.54,65.54,80.54,64.85Z" style="fill:#c93824"/><path d="M111.42,51.34c0-1,0-2,0-3,0-.56,0-1.11,0-1.66a8.1,8.1,0,0,0,2.06-3.21c.21-.48.39-1,.64-1.43.65-1.22,1.2-1.27,2.16-.24a12.2,12.2,0,0,0,4.13,3.82c1.32.61,2.67,1.16,4,1.72a46.47,46.47,0,0,1,6.75,3.51,35.27,35.27,0,0,0,5.26,2.43,8.83,8.83,0,0,1,2.41,2.11A5.28,5.28,0,0,0,142,57.75a1.92,1.92,0,0,1,1.71,2,.81.81,0,0,1-.29.72,5.28,5.28,0,0,1-2.87.09c-1.85-2.74-5-3.13-7.73-4.18a73.14,73.14,0,0,1-13.45-6.72,6.4,6.4,0,0,0-3.28-1.16,4.42,4.42,0,0,0-3.9,2C112,50.84,112,51.36,111.42,51.34Z" style="fill:#ead394"/><path d="M110.45,45.87c-.09.52-.11,1.24-1,1.31-.61,0-.82-.46-.89-.94-.08-.63.72-1.68,1.18-1.63S110.44,45.17,110.45,45.87Z" style="fill:#301917"/><path d="M135.74,42.1c1.79,2.71,4.28,4.79,6.5,7.12a6.67,6.67,0,0,1,2,3.1c-.59.34-.88-.18-1.23-.46a10.63,10.63,0,0,0-2.08-1.45,1.33,1.33,0,0,0-1.34,0,7,7,0,0,0,1.28,1.72,12.29,12.29,0,0,1,.95,1.4c.31.52.72,1.08.13,1.63a1.37,1.37,0,0,1-1.8,0,6.35,6.35,0,0,1-1.74-1.65c-.57-1.7-1.53-3.24-2-5A22,22,0,0,1,135.74,42.1Z" style="fill:#705042"/><path d="M136.44,53.54c-2.78-.66-5.12-2.26-7.56-3.64a30.33,30.33,0,0,0-4.54-2.23c-.42-.49-.87-1-.5-1.69,3,.58,5.45,2.15,7.95,3.71,1.7,1.06,3.43,2.11,5.09,3.24.42.28,1,.22,1.29.59C137.6,54,137,53.78,136.44,53.54Z" style="fill:#735645"/><path d="M136.44,53.54l1.73,0h.24c.6,0,.87.55,1.24.9a3,3,0,0,0,1.2.78,1,1,0,0,0,1-.28c.37-.33.1-.7-.1-1-.79-1.11-1.63-2.19-2.45-3.28-.14-.18-.42-.33-.26-.61s.43-.15.66-.17c1.5-.13,2.42.91,3.45,1.72.35.27.58.7,1.08.72a1.74,1.74,0,0,1,.23,1.22,6.09,6.09,0,0,1-2.06,3.06,18.22,18.22,0,0,1-3.76-1.1Z" style="fill:#8b6e55"/><path d="M123.84,46c.17.57.34,1.13.5,1.69a27.28,27.28,0,0,1-5.67-2.76,7,7,0,0,1-2.38-3.06c.4,0,.82,0,1.13.31,1,1.14,2.37,1.47,3.72,1.91Z" style="fill:#d7bf88"/><path d="M143.46,60.32l0-.72a7.23,7.23,0,0,1-.16-1.8,9.82,9.82,0,0,0,1.75-1.94c.26-.42.7-.82,1.3-.37a6.86,6.86,0,0,0,1.77,1.45,3.84,3.84,0,0,1,1.92,2.38,1.29,1.29,0,0,1-.83.51,38.63,38.63,0,0,1-5.47.72A.62.62,0,0,1,143.46,60.32Z" style="fill:#b69a70"/><path d="M146.39,55.49c-.76-.06-1.14.43-1.4,1s-.66,1.16-1.46,1.13c-.56-.21-1-.49-1-1.18a18.3,18.3,0,0,1,1.93-2.93A3.22,3.22,0,0,1,146.39,55.49Z" style="fill:#9e8162"/><path d="M149.34,59.59c.19-.26.48-.22.74-.27l.5.29c.4.63,1.06.64,1.69.72s1.53.18,1.94,1a19.24,19.24,0,0,1-3.18.63C149.63,62.12,148.89,61,149.34,59.59Z" style="fill:#c44d35"/><path d="M111.42,51.34c1.47-3.39,4.86-4.08,7.72-2.2a81.37,81.37,0,0,0,18.21,8.55c1.3.45,2.7,1,3,2.63-.84.46-1.87.42-2.67,1a25.94,25.94,0,0,1-6.79,1c-5.5.22-10.85-.83-16.2-1.83l-6.18-1.14c-.94-1.82-.82-2.18.79-3.44A5.75,5.75,0,0,0,111.42,51.34Z" style="fill:#f7e9ad"/><path d="M130.87,72a4.2,4.2,0,0,0-5-.59c-.88.45-1.2.19-1.63-.47-.32-.5-.55-1.1-1.14-1.37-.74-.69-1.25-1.56-1.92-2.3a4.23,4.23,0,0,0-3.25-1.8.75.75,0,0,1-.81-.42,2.12,2.12,0,0,1,2.29-2,5.22,5.22,0,0,1,1.75.24.89.89,0,0,1,.23,0,33.92,33.92,0,0,0,15.07,0h.48c1.13-.29,2.18-.3,2.87.86a1.53,1.53,0,0,1,0,1,2.6,2.6,0,0,1-1.35,1.28,3.94,3.94,0,0,0-2.91,1.94,2.18,2.18,0,0,1-1,1c-1,.26-1.25,1-1.49,1.86-.19.7-.11,1.68-1.21,1.8A2.68,2.68,0,0,1,130.87,72Z" style="fill:#bc3926"/><path d="M121.16,63.24c-.51,0-1,0-1.55,0-1.2.1-2.15.54-2.34,1.9a.53.53,0,0,1-.29.22.65.65,0,0,1-.68-.2c-1.25-2.13-3.37-2.61-5.57-3a4.94,4.94,0,0,1,4.1-.87A30.5,30.5,0,0,1,121.16,63.24Z" style="fill:#c14a33"/><path d="M136.46,63.25a22.78,22.78,0,0,1-15.07,0Z" style="fill:#bf432e"/><path d="M137.68,61.3c.61-1.09,1.66-1,2.67-1h3.2c-.81.72-1.21,1.86-2.33,2.24-.48,0-1,.1-1.32-.33Z" style="fill:#e0b984"/><path d="M139.9,62.24l1.41.08c0,1-.54,1.59-1.68,1.91a2.89,2.89,0,0,0-2.69-1Z" style="fill:#bf432e"/><path d="M80.29,88.54a104.25,104.25,0,0,0,13,20.39l1.61,2c-1.76.29-2.72-.74-3.65-2-2.62-3.61-5.3-7.19-8-10.76A13,13,0,0,1,80.29,88.54Z" style="fill:#543c31"/><path d="M96.11,112.87a11,11,0,0,0-.26,2.62A3.2,3.2,0,0,1,94.9,118c0-2.36,0-4.73,0-7.09Z" style="fill:#563d31"/><path d="M154.46,62c1.86,0,3.71.37,5.58.24a12.28,12.28,0,0,0,3.68,1.4,3.39,3.39,0,0,1,1.19.54c1.06.78,2.08,1.64,3.2,2.34A3.89,3.89,0,0,1,170,69.62a6.54,6.54,0,0,0,.78,2.38,1.22,1.22,0,0,1-1.33.17,1.06,1.06,0,0,1-.54-.9,4.36,4.36,0,0,0-2.33-3.45c-.34-.22-.61-.53-1-.74a7.33,7.33,0,0,0-4.73-1.55,25.61,25.61,0,0,1-3.5-.08,6.07,6.07,0,0,1-1.73-1,5.94,5.94,0,0,1-1.48-1.86A.44.44,0,0,1,154.46,62Z" style="fill:#9b5b4f"/><path d="M154.46,62l-.25.41a1,1,0,0,1-.8.18c-4.28-.32-8.25,1-12.18,2.38-.52.19-1,.56-1.61.17,0-.31,0-.63,0-1,.64-.57,1.42-1,1.68-1.92.38,0,.55-.33.68-.62a2.46,2.46,0,0,1,1.56-1.36l5.79-.74c.15,2,.67,2.38,2.57,1.88a3.21,3.21,0,0,1,2.3-.16C154.29,61.55,154.38,61.79,154.46,62Z" style="fill:#ca6148"/><path d="M169.3,72h1.44q0,3.54,0,7.1c0,.39-.14.81.21,1.14a2.47,2.47,0,0,0-.2.8,6.89,6.89,0,0,1-1.36,4.66,1.19,1.19,0,0,0-.34.88.94.94,0,0,1-1.2.11c-.47-.71,0-1.4,0-2.09s.32-1.32.37-2a17.32,17.32,0,0,0,.16-3.6c0-1,0-2,0-3.06a16.62,16.62,0,0,1,.09-2.82C168.78,72.74,168.58,72.05,169.3,72Z" style="fill:#c85d44"/><path d="M164.91,64.22c-1.73-.36-3.58-.44-4.87-1.94a17.42,17.42,0,0,1,2.17,0A3,3,0,0,1,164.91,64.22Z" style="fill:#af4936"/><path d="M167.83,86.59h1.23a.54.54,0,0,1,.22,0,7.72,7.72,0,0,1-4.55,4.9l-.79-.06c-.1-1.43-.24-1.52-1.63-.89-.66.3-1.28.67-1.95.94-.51.21-1,.32-1.36-.29a1.89,1.89,0,0,1,1.12-1.48c2-1.11,4-2.15,6-3.41A2.17,2.17,0,0,1,167.83,86.59Z" style="fill:#c5533c"/><path d="M178.53,78.08c-.1.56.22,1.19-.25,1.69-1.93-.93-3-.63-4.22,1.11a5.91,5.91,0,0,1-1.36,1.81,12.76,12.76,0,0,1,.48-3.93,1.92,1.92,0,0,1,2.17-1.65A5.8,5.8,0,0,1,178.53,78.08Z" style="fill:#f8f3bd"/><path d="M113.31,126.45c-4.16-1-8.4-.74-12.62-.7a23.86,23.86,0,0,0-3.93.49c-.66.12-.78-.1-1-.68a8.27,8.27,0,0,1,.23-4.28c.51-2.43,1.18-4.84,1.78-7.25,4.09,3.32,8.64,6,12.62,9.51A18,18,0,0,1,113.31,126.45Z" style="fill:#e96f49"/><path d="M91,82.94l0-1.22a1.13,1.13,0,0,1,.48-.67c3.48-2.88,5.76-6.71,8.21-10.4a2.83,2.83,0,0,0,.35-2.33c-.09-.38-.4-.88.24-1.13,3.49.74,7.08.33,10.59.83a6.59,6.59,0,0,1,2.41.72,14.19,14.19,0,0,1,3.63,3.7,2.16,2.16,0,0,0,1.1.92c.92.34,1.7-.23,1.85-1.3.11-.73-.26-1.56.45-2.17a.86.86,0,0,1,1,.18,5.72,5.72,0,0,1,.17,3,9.93,9.93,0,0,1-1.56,5.28,7.32,7.32,0,0,0-.44,1.37,5.55,5.55,0,0,1-1,1.36,8.61,8.61,0,0,0-2.13,4.62c-1.73,1.82-3.71,3.36-5.57,5-.72.41-1.36,1-2.3.87-1.79-.2-3.56.51-5.36.16a9.85,9.85,0,0,0-1.8-.23,2.58,2.58,0,0,1-2.12-1.2c.41-1.12,1.43-1,2.32-1.11,1.52-.12,3.06.1,4.16-.09a5.81,5.81,0,0,1-2.16-.27,5.61,5.61,0,0,0-5.42,1.28,4.08,4.08,0,0,1-3.18-.84c0-.08,0-.16,0-.24-.72-.78-1.53-1.47-2.26-2.25-.31-.34-.73-.62-.73-1.16a1.78,1.78,0,0,1,.29-.52c.7-1.14.56-1.55-.72-2A2.35,2.35,0,0,1,91,82.94Z" style="fill:#faf1c7"/><path d="M108.76,91.49l1.94-1a23,23,0,0,0,3.59-1.76,1.07,1.07,0,0,1,1-.21c.42.08.9-.15,1.23.28A1.21,1.21,0,0,1,116,90c-1.44,1.1-2.84,2.26-4.26,3.39-2.08.15-2.7-.18-3.15-1.68A.26.26,0,0,1,108.76,91.49Z" style="fill:#b52818"/><path d="M94.88,89.27l3.17.71a.91.91,0,0,1,1.18.33c1.06,1,2.44.86,3.71,1.12-1,.79-2.13.13-3.19.26a5.79,5.79,0,0,0-.6.07C96.61,92.37,95.61,91.79,94.88,89.27Z" style="fill:#d0755a"/><path d="M99.75,91.69c1-.55,2.14,0,3.19-.26l5.82.06-.22.23a7.42,7.42,0,0,0-3.5.56C103.21,93.05,101.44,92.51,99.75,91.69Z" style="fill:#c95f44"/><path d="M92,85.63c.78.8,1.55,1.61,2.32,2.42.27.28.66.5.6,1a2.36,2.36,0,0,0-1.23-.45c-1.82-.46-2.41-1.08-2.7-2.91l.09-.09A.63.63,0,0,1,92,85.63Z" style="fill:#e9cf92"/><path d="M131.85,73c.75-.5.8-1.33,1-2.09.21-1,.57-1.75,1.73-1.79a.73.73,0,0,1,0,.79A5.69,5.69,0,0,0,135,75c.46,1.17,1.25,2.24,1.08,3.59-.05.43,0,.89-.35,1.22a2,2,0,0,1-2-1.7,6.29,6.29,0,0,0-.91-1.81A5.32,5.32,0,0,1,131.85,73Z" style="fill:#bd3d29"/><path d="M135.73,79.77c0-1.41.25-2.86-.88-4-.15-.15-.06-.53-.09-.8.45-.4.89-.24,1.34,0a5.46,5.46,0,0,1,1.35,2.5,33.08,33.08,0,0,1,1.23,4.27c.09.41.32.85-.07,1.24a5.69,5.69,0,0,0-2.14-1.21A7.26,7.26,0,0,0,135.73,79.77Z" style="fill:#c75b41"/><path d="M115.31,88.51c-1,.57-2.06,1.12-3.08,1.69a2.8,2.8,0,0,1-1.53.28L116,85.62c.4-.18.67-.64,1.2-.52a2.78,2.78,0,0,1-1.37,2.81A3.21,3.21,0,0,0,115.31,88.51Z" style="fill:#c75941"/><path d="M117.24,85.1a1.55,1.55,0,0,1-1.2.52,9.09,9.09,0,0,1,3.14-5.85.72.72,0,0,1,1,0,2.56,2.56,0,0,1-1,2.4C118.35,83,117.35,83.77,117.24,85.1Z" style="fill:#e7b995"/><path d="M120.18,79.78h-1a4.06,4.06,0,0,1,.76-2.48,4.31,4.31,0,0,0,1-3.43.77.77,0,0,1,.21-.66c.81,1.34.33,2.81.36,4.22a4.09,4.09,0,0,1-.36,1.62l-.73.69Z" style="fill:#e9c19d"/><path d="M121.12,79V73.2c0-1,0-2.09,0-3.14a5,5,0,0,0-2.89-3.41c-.56-.28-1.25-.6-1.23-1.45l.28,0a6.55,6.55,0,0,1,5.83,4.41C123.21,72.88,122.9,76.12,121.12,79Z" style="fill:#c85e44"/><path d="M159,91.19a1.19,1.19,0,0,0,1.35,0,18.84,18.84,0,0,1,2.16-1.07c.5-.19,1.09-.64,1.58-.18s-.06,1-.19,1.51c-2.14.59-4,1.84-6.17,2.44-2.78.77-5.6.41-8.41.49l-3.9-1.94c.66-.44,1.56-.51,2-1.3.46-.17,1-.17,1.41-.32a1.25,1.25,0,0,1,.51,0,5.69,5.69,0,0,1,.65.24,6.65,6.65,0,0,1,1.07.53,4.05,4.05,0,0,0,4.22,0,3.32,3.32,0,0,1,1-.44A9.39,9.39,0,0,1,159,91.19Z" style="fill:#c14831"/><path d="M148.89,91c-.47.16-.92.49-1.44.15l-.3-.64a7.22,7.22,0,0,0-3.63-2l-1-1a14.65,14.65,0,0,0-2.89-2.89l-1-1.74c-.61-2.68-1.12-5.4-2.64-7.78a2.8,2.8,0,0,1-.56-2.39c.21-2.55.92-4.89,3-6.61l1.21-1A73.38,73.38,0,0,1,148,62.64a17.8,17.8,0,0,1,6.26-.19l1.51,1.75c-.5.5-1.14.35-1.73.37a46.79,46.79,0,0,0-6.9.27,12.38,12.38,0,0,0-6.74,3.41c2,0,3.76-.28,5.5-.37,4.36-.21,8.72-.5,13,.39a9.79,9.79,0,0,1,2,.55,8.37,8.37,0,0,0,4,2.1.71.71,0,0,1,.21.28,7.3,7.3,0,0,0,3.69,4.69l-.06,3.16c-.12.49-.12,1-.62,1.37a4.49,4.49,0,0,0-1.91,4.63c0,.53.08,1.09-.39,1.51A11.07,11.07,0,0,1,162,89a7,7,0,0,0-3,2.21c-.92.45-1.91.11-2.86.24a17.83,17.83,0,0,1-6.35-.2l-.51-.25a2.17,2.17,0,0,1,2.29-1.77,31.4,31.4,0,0,1,3.88,0c.16,0,0-.25,0-.09s0,.06-.09.06a24.78,24.78,0,0,1-3.1-.53C150.4,88.37,149.24,89.16,148.89,91Z" style="fill:#fbf1c7"/><path d="M139.62,84.68c1.3.62,2.57,1.28,2.89,2.89a3,3,0,0,1-2.89-1.71Z" style="fill:#cd6b4e"/><path d="M143.52,88.53c1.57,0,2.94.33,3.63,2C145.52,90.61,144.19,90.18,143.52,88.53Z" style="fill:#cf7155"/><path d="M113.37,69.08a12.6,12.6,0,0,0-4.91-1,32.48,32.48,0,0,1-8.46-.74.44.44,0,0,1-.35-.36,5.08,5.08,0,0,1,1-2.34c0-.27-.06-.56.21-.76,1.52-.08,3-.59,4.48-.75a13.41,13.41,0,0,1,9,2,.78.78,0,0,1,.07,1c-.48.32-1,.09-1.4,0a21.88,21.88,0,0,0-8.25-.41c-.41.11-.14.28-.24.16s0-.1.06-.1c3.23-.22,6.3.16,8.92,2.29A.86.86,0,0,1,113.37,69.08Z" style="fill:#f8eed9"/><path d="M114.34,66.17v-1l2,0,.69,0a10,10,0,0,0,2.81,2.09,2.61,2.61,0,0,1,1.31,2.77h-.93c-.87-.78-1.65-1.69-3-1.72C116.19,67.71,115,67.28,114.34,66.17Z" style="fill:#f3e0c2"/><path d="M99.75,67.13l.25.25a3.6,3.6,0,0,1-.43,4.05c-2.08,3-4,6.13-6.61,8.71a9.63,9.63,0,0,1-2,1.58c-1.19-1-1.12-2.33-.82-3.66.22-1,.55-1.94.83-2.9.23-.7.9-.86,1.45-1.16a3.33,3.33,0,0,0,1.93-2,2,2,0,0,1,.09-.33c.54-1.37,1.76-2,2.88-2.81C98.21,68.37,98.7,67.35,99.75,67.13Z" style="fill:#eddfb2"/><path d="M94.61,72c0,1.11-.81,1.55-1.56,2s-1.36.78-2,1.17a1.52,1.52,0,0,0-.73-.73L91,73A4.68,4.68,0,0,1,94.61,72Z" style="fill:#cab997"/><path d="M92,85.63l-.92,0c0-.88,0-1.76,0-2.64a1.31,1.31,0,0,1,1.82.68C93.22,84.44,92.71,85.15,92,85.63Z" style="fill:#faf6d2"/><path d="M97.5,69.06c-1,.86-2.33,1.35-2.85,2.7a.54.54,0,0,1,0-.74,1.79,1.79,0,0,0-.17-2.14c-.46-.59-1.19-.32-1.78-.06-1.38.61-2.47-.16-3.61-.71a4.1,4.1,0,0,1,2.69-2.35,9.21,9.21,0,0,0,1.18-.58l5.85,0A9.35,9.35,0,0,0,97.5,69.06Z" style="fill:#90827d"/><path d="M94.63,71l0,.74c0,.06,0,.13,0,.19L91,73a3.46,3.46,0,0,1,1.93-2Z" style="fill:#7f6056"/><path d="M97.5,69.06c-.14-1.47-.16-2.91,1.29-3.86.67-.06,1.39.06,1.91-.52a11.41,11.41,0,0,1-1,2.45Z" style="fill:#e1d6b4"/><path d="M142.54,56.47l1,1.18,0,2c-.1-1-.84-1.36-1.71-1.6a4.54,4.54,0,0,1-3.14-2.5C140.06,55.36,141.25,56.11,142.54,56.47Z" style="fill:#dfba84"/><path d="M138.41,66.16c-1.48,2.1-2.75,4.28-2.7,7a6.62,6.62,0,0,0,.26,2,1.89,1.89,0,0,0-1.21-.24c-1.45-1.89-1-3.85-.22-5.83.54-.37.73-1,1.14-1.49A3.36,3.36,0,0,1,138.41,66.16Z" style="fill:#cb664b"/><path d="M161,69.08c-7.06-1.83-14.16-.88-21.51-.32a10.46,10.46,0,0,1,4.83-3.55,16.78,16.78,0,0,1,6.4-1c1.66,0,3.32,0,5,0l1.42,1a6.37,6.37,0,0,0,2.45.9,2.12,2.12,0,0,1,1.61,1.1,2.68,2.68,0,0,1,.15,1A1.18,1.18,0,0,1,161,69.08Z" style="fill:#f6edd5"/><path d="M161,67.14a3.76,3.76,0,0,0-2.36-1,1.87,1.87,0,0,1-1.52-1,30.08,30.08,0,0,1,5.77.25,5.84,5.84,0,0,1,3,1.51c0,.36-.13.53-.46.59-1,0-2.09,0-3.14,0A1.75,1.75,0,0,1,161,67.14Z" style="fill:#cac2bf"/><path d="M165.64,67.38l.23-.45c.82.65,1.69,1.24,2.45,1.95S169,71,169.3,72c-.41.2-.12.72-.44,1l-.15-.09a3.68,3.68,0,0,0-1.59-1.74,2.85,2.85,0,0,1-1.43-1.41,3,3,0,0,1-.12-.9C165.61,68.35,165.4,67.85,165.64,67.38Z" style="fill:#c6bfb8"/><path d="M165.87,68.84l0,1A4,4,0,0,0,168.77,73h.09c0,1,0,2,0,2.92-2.55-.61-3.41-2.6-3.91-4.86a2,2,0,0,1-.22-1.77C165,68.83,165.2,68.18,165.87,68.84Z" style="fill:#f7f3e1"/><path d="M165.92,84.92a4.42,4.42,0,0,1,2.15-4.79c.43-.26.41-.76.69-1.08a13.63,13.63,0,0,1-.19,3.66A4.93,4.93,0,0,1,165.92,84.92Z" style="fill:#ecc9a4"/><path d="M165.92,84.92c.88-.74,1.76-1.48,2.65-2.21-.25,1.29-.49,2.58-.74,3.88l-2,0C165.87,86,165.89,85.47,165.92,84.92Z" style="fill:#ce7052"/><path d="M117.25,68.11a2.88,2.88,0,0,1,2.93,1.94c0,.65,0,1.29,0,1.94a1.56,1.56,0,0,1-1.05,1.7,1.61,1.61,0,0,1-2-.46c-.66-.75-1.22-1.6-1.89-2.34s-1.27-1.21-1.91-1.81v-1a1,1,0,0,1,1.34,0A2.56,2.56,0,0,0,117.25,68.11Z" style="fill:#f9f2de"/><path d="M99.23,90.31A2.44,2.44,0,0,1,98.05,90c.9-1.54,2.4-1.72,4-1.68s3,.77,4.62.31c.13,0,.33.16.59.3a6.38,6.38,0,0,1-2.9.6,17.71,17.71,0,0,0-3.85.13C100,89.76,99.5,89.83,99.23,90.31Z" style="fill:#fcfbd6"/><path d="M148.89,91c-.47,0-.46-.28-.31-.67a3.28,3.28,0,0,1,4.07-1.92,9,9,0,0,0,3.8.43,1.79,1.79,0,0,1-1.52.69,16.28,16.28,0,0,1-2.42,0,3.11,3.11,0,0,0-3.19,1.5Z" style="fill:#fcfbd5"/><path d="M149.83,91.23c2.11.15,4.24-.19,6.35.2C154,93.16,151.91,92.63,149.83,91.23Z" style="fill:#d37e61"/><path d="M164.91,69.08v2a4.47,4.47,0,0,1-3.89-2v-1A6.73,6.73,0,0,1,164.91,69.08Z" style="fill:#eae1c4"/><path d="M117.25,68.11c-.5.92-1.26.87-2.07.53a3.35,3.35,0,0,0-1.81-.53,18.61,18.61,0,0,0-9.18-2.31,16.84,16.84,0,0,1,10.15.37Z" style="fill:#fcfcfa"/><path d="M164.91,69.08a22.82,22.82,0,0,1-3.89-1v-1c1.54.11,3.1-.25,4.62.24a2.45,2.45,0,0,1,.23,1.46C165.45,68.51,165.22,69,164.91,69.08Z" style="fill:#e0dfda"/><path d="M168.77,73c-2.08-.19-2.86-1-2.87-3.18a9.47,9.47,0,0,0,2,1.51C168.49,71.71,169,72.17,168.77,73Z" style="fill:#f0e1c6"/></g></g></svg>