<?xml version="1.0" encoding="utf-8"?>
<!-- Generator: Adobe Illustrator 24.0.0, SVG Export Plug-In . SVG Version: 6.00 Build 0)  -->
<svg version="1.1" id="BACKGROUND" xmlns="http://www.w3.org/2000/svg" xmlns:xlink="http://www.w3.org/1999/xlink" x="0px" y="0px"
	 viewBox="0 0 750 500" style="enable-background:new 0 0 750 500;" xml:space="preserve">
<style type="text/css">
	.st0{fill:none;}
	.st1{fill:#FFFFFF;}
	.st2{fill:#FF7E0A;}
	.st3{opacity:0.25;}
	.st4{fill:url(#Motivo_nuevo);}
	.st5{opacity:0.5;fill:url(#Motivo_nuevo);}
	.st6{clip-path:url(#XMLID_45_);}
	.st7{fill:#D55800;}
	.st8{fill:#FF914A;}
	.st9{opacity:0.2;fill:url(#XMLID_253_);}
	.st10{opacity:0.2;fill:url(#XMLID_271_);}
	.st11{opacity:0.5;fill:url(#XMLID_276_);}
	.st12{opacity:0.2;fill:url(#XMLID_278_);}
	.st13{opacity:0.5;fill:url(#XMLID_280_);}
	.st14{opacity:0.5;fill:url(#XMLID_281_);}
	.st15{opacity:0.2;fill:url(#XMLID_283_);}
	.st16{opacity:0.5;fill:url(#XMLID_284_);}
	.st17{opacity:0.5;fill:url(#XMLID_287_);}
	.st18{opacity:0.2;fill:url(#XMLID_288_);}
	.st19{opacity:0.2;fill:url(#XMLID_302_);}
	.st20{opacity:0.5;fill:url(#XMLID_303_);}
	.st21{opacity:0.5;fill:url(#XMLID_304_);}
	.st22{opacity:0.2;fill:url(#XMLID_305_);}
	.st23{opacity:0.5;}
	.st24{opacity:0.75;fill:#FF6D38;}
</style>
<pattern  x="77.4" y="-170.9" width="19.1" height="17.5" patternUnits="userSpaceOnUse" id="Motivo_nuevo" viewBox="0 -17.5 19.1 17.5" style="overflow:visible;">
	<g id="XMLID_347_">
		<rect id="XMLID_376_" x="0" y="-17.5" class="st0" width="19.1" height="17.5"/>
		<path id="XMLID_375_" class="st1" d="M9.3-10.8c0,0.9-0.7,1.7-1.7,1.7S6-9.9,6-10.8c0-0.9,0.7-1.7,1.7-1.7S9.3-11.7,9.3-10.8z"/>
		<path id="XMLID_374_" class="st1" d="M19.1-10.8c0,0.9-0.7,1.7-1.7,1.7c-0.9,0-1.7-0.7-1.7-1.7c0-0.9,0.7-1.7,1.7-1.7
			C18.3-12.5,19.1-11.7,19.1-10.8z"/>
		<path id="XMLID_373_" class="st1" d="M9.3-1.7C9.3-0.7,8.6,0,7.7,0S6-0.7,6-1.7c0-0.9,0.7-1.7,1.7-1.7S9.3-2.6,9.3-1.7z"/>
		<path id="XMLID_372_" class="st1" d="M19.1-1.7c0,0.9-0.7,1.7-1.7,1.7c-0.9,0-1.7-0.7-1.7-1.7c0-0.9,0.7-1.7,1.7-1.7
			C18.3-3.3,19.1-2.6,19.1-1.7z"/>
	</g>
</pattern>
<rect id="XMLID_2_" class="st2" width="750" height="500"/>
<g id="XMLID_351_" class="st3">
	<path id="XMLID_348_" class="st4" d="M509.3,500H750V226.4c-18-10.9-38.5-17.6-59.5-18c-20.1-0.4-41.3,5.8-54.3,21
		c-11.5,13.5-15.7,32.7-29.2,44.2c-15.6,13.3-38.4,12.3-58.9,12.5c-20.5,0.2-44.4,4.5-54,22.6c-6.5,12.3-4.1,27.6,1.5,40.3
		c5.7,12.7,14.3,23.9,20.6,36.2c14.1,27.4,16.2,60.7,5.9,89.7C518.9,483.8,514.6,492.2,509.3,500z"/>
</g>
<path id="XMLID_350_" class="st5" d="M113.4,9.7c-31.3,24.2-54.2,62-52.4,101.6c1.1,24.5,11.6,48,26.9,67.2
	c15.3,19.2,35.3,34.2,56.7,46.2c25.8,14.5,54.7,25.1,84.3,24s59.7-15.2,74.6-40.8c13-22.4,13.3-50.6,26.6-72.8
	c10.9-18.1,29.4-30.3,48.4-39.7c19-9.4,39.1-16.6,56.9-28c17.8-11.4,33.7-28,38.2-48.6c1.3-6.1,1.4-12.6,0.3-18.8H127.4
	C122.6,3,117.9,6.2,113.4,9.7z"/>
<g id="XMLID_9_">
	<defs>
		<rect id="XMLID_7_" width="750" height="500"/>
	</defs>
	<clipPath id="XMLID_45_">
		<use xlink:href="#XMLID_7_"  style="overflow:visible;"/>
	</clipPath>
	<g id="XMLID_6_" class="st6">
		<g id="XMLID_12_">
			
				<image style="overflow:visible;opacity:0.35;" width="2407" height="2088" xlink:href="B45838BB.png"  transform="matrix(0.24 0 0 0.24 -36.16 -36.065)">
			</image>
			<g>
				<path class="st7" d="M0,0v428.8c23.8-9.1,43.3-29.8,46-55c1.5-14-2-28-2.4-42c-0.5-14,3-29.7,14.5-37.7
					c13.1-9.1,30.9-5,46.3-0.5c50.7,14.8,101.3,29.5,152,44.3c29.4,8.6,66.4,15,86-8.5c13.5-16.2,11.8-40.9,2.1-59.7
					c-9.7-18.8-25.8-33.2-40.7-48.1c-15.9-15.9-31-33.4-38.7-54.6c-7.6-21.1-6.5-46.7,8.1-63.9c17.7-20.9,49.3-23.6,76.1-18
					c26.8,5.6,52.1,17.8,79.3,21.2c27.2,3.4,58.9-5.1,71-29.7c7.4-15,5.9-32.7,4.2-49.3c-0.9-9-1.9-18.3-1.4-27.4H0z"/>
			</g>
		</g>
		<g id="XMLID_11_">
			
				<image style="overflow:visible;opacity:0.35;" width="2848" height="1755" xlink:href="B45838BE.png"  transform="matrix(0.24 0 0 0.24 102.56 114.895)">
			</image>
			<g>
				<path class="st7" d="M750,151c-2.6,7.5-6.6,14.5-12.3,20.2c-21.1,21.2-55.9,16.7-85.3,11.2c-29.4-5.5-64.9-8.4-84.2,14.5
					c-20.2,23.8-9.6,60.5,6.2,87.5c15.8,27,36.5,54.5,33.9,85.6c-2.5,29.5-26.7,53.7-54.2,64.7c-27.5,11-58,11.2-87.6,10.5
					c-84.2-2.1-168.3-10.6-251.3-25.5c-15.6-2.8-31.8-5.8-47.1-1.9c-15.4,3.9-29.7,17-29.4,32.8c0.3,16.7,15.6,28.8,29.4,38.3
					c5.5,3.8,10.9,7.5,16.4,11.3H750V151z"/>
			</g>
		</g>
		<g id="XMLID_8_">
			
				<image style="overflow:visible;opacity:0.35;" width="2199" height="1720" xlink:href="B45838BD.png"  transform="matrix(0.24 0 0 0.24 -36.16 -36.065)">
			</image>
			<g>
				<path class="st8" d="M155.7,319.4c30.4-16.6,57.3-46.8,55.7-81.4c-1.9-40.1-39.8-69.4-50-108.2c-10.5-40.3,15.3-86.5,55.1-98.7
					c24.5-7.5,51-3,75.6,4.1c24.6,7.2,48.6,17,73.9,20.4c25.4,3.4,53.3-0.5,72.2-17.8C448.7,28.4,455,14,455.5,0H0v329
					C51.2,346.4,108.5,345.2,155.7,319.4z"/>
			</g>
		</g>
		<g id="XMLID_13_">
			
				<image style="overflow:visible;opacity:0.35;" width="1887" height="1514" xlink:href="B45838B4.png"  transform="matrix(0.24 0 0 0.24 333.2 172.735)">
			</image>
			<g>
				<path class="st8" d="M750,500V216c-9.4-3.8-19.2-6.3-29.3-7c-20.9-1.4-43.5,7-54.5,24.9c-12.2,19.9-7.5,45.4-11,68.5
					c-6.4,42.7-45.1,78.4-88.2,81.2c-27.8,1.8-54.8-8.5-82.3-12.5c-27.5-4.1-59.9,0.2-75.7,23.1c-12.9,18.6-10.8,43.4-16.6,65.4
					c-4,15.2-12.1,29.2-23.1,40.5H750z"/>
			</g>
		</g>
	</g>
	<g id="XMLID_339_" class="st6">
		<linearGradient id="XMLID_253_" gradientUnits="userSpaceOnUse" x1="527.4075" y1="58.2299" x2="595.8877" y2="-10.2503">
			<stop  offset="0" style="stop-color:#FFFFFF;stop-opacity:0"/>
			<stop  offset="1" style="stop-color:#FFFFFF"/>
		</linearGradient>
		<path id="XMLID_270_" class="st9" d="M527.4,58.2L527.4,58.2c-2-2-2-5.2,0-7.1l61.4-61.4c2-2,5.2-2,7.1,0l0,0c2,2,2,5.2,0,7.1
			l-61.4,61.4C532.6,60.2,529.4,60.2,527.4,58.2z"/>
		<linearGradient id="XMLID_271_" gradientUnits="userSpaceOnUse" x1="490.5416" y1="321.5953" x2="585.8811" y2="226.2557">
			<stop  offset="0" style="stop-color:#FFFFFF;stop-opacity:0"/>
			<stop  offset="1" style="stop-color:#FFFFFF"/>
		</linearGradient>
		<path id="XMLID_279_" class="st10" d="M490.5,321.6L490.5,321.6c-2-2-2-5.2,0-7.1l88.2-88.2c2-2,5.2-2,7.1,0l0,0c2,2,2,5.2,0,7.1
			l-88.2,88.2C495.7,323.6,492.5,323.6,490.5,321.6z"/>
		<linearGradient id="XMLID_276_" gradientUnits="userSpaceOnUse" x1="667.8784" y1="256.9319" x2="763.218" y2="161.5924">
			<stop  offset="0" style="stop-color:#FFFFFF;stop-opacity:0"/>
			<stop  offset="1" style="stop-color:#FFFFFF"/>
		</linearGradient>
		<path id="XMLID_301_" class="st11" d="M667.9,256.9L667.9,256.9c-2-2-2-5.2,0-7.1l88.2-88.2c2-2,5.2-2,7.1,0l0,0c2,2,2,5.2,0,7.1
			L675,256.9C673,258.9,669.8,258.9,667.9,256.9z"/>
		<linearGradient id="XMLID_278_" gradientUnits="userSpaceOnUse" x1="32.6111" y1="327.6236" x2="127.9506" y2="232.284">
			<stop  offset="0" style="stop-color:#FFFFFF;stop-opacity:0"/>
			<stop  offset="1" style="stop-color:#FFFFFF"/>
		</linearGradient>
		<path id="XMLID_275_" class="st12" d="M32.6,327.6L32.6,327.6c-2-2-2-5.2,0-7.1l88.2-88.2c2-2,5.2-2,7.1,0l0,0c2,2,2,5.2,0,7.1
			l-88.2,88.2C37.8,329.6,34.6,329.6,32.6,327.6z"/>
		<linearGradient id="XMLID_280_" gradientUnits="userSpaceOnUse" x1="-18.5063" y1="240.0733" x2="18.1066" y2="203.4603">
			<stop  offset="0" style="stop-color:#FFFFFF;stop-opacity:0"/>
			<stop  offset="1" style="stop-color:#FFFFFF"/>
		</linearGradient>
		<path id="XMLID_272_" class="st13" d="M-18.5,240.1L-18.5,240.1c-4.2-4.2-4.2-11.1,0-15.3l21.3-21.3c4.2-4.2,11.1-4.2,15.3,0h0
			c4.2,4.2,4.2,11.1,0,15.3l-21.3,21.3C-7.4,244.3-14.3,244.3-18.5,240.1z"/>
		<linearGradient id="XMLID_281_" gradientUnits="userSpaceOnUse" x1="296.7061" y1="41.9798" x2="356.2406" y2="-17.5547">
			<stop  offset="0" style="stop-color:#FFFFFF;stop-opacity:0"/>
			<stop  offset="1" style="stop-color:#FFFFFF"/>
		</linearGradient>
		<path id="XMLID_335_" class="st14" d="M296.7,42L296.7,42c-4.2-4.2-4.2-11.1,0-15.3l44.2-44.2c4.2-4.2,11.1-4.2,15.3,0v0
			c4.2,4.2,4.2,11.1,0,15.3L312,42C307.8,46.2,300.9,46.2,296.7,42z"/>
		<linearGradient id="XMLID_283_" gradientUnits="userSpaceOnUse" x1="729.8928" y1="242.7565" x2="769.1212" y2="203.5282">
			<stop  offset="0" style="stop-color:#FFFFFF;stop-opacity:0"/>
			<stop  offset="1" style="stop-color:#FFFFFF"/>
		</linearGradient>
		<path id="XMLID_311_" class="st15" d="M729.9,242.8L729.9,242.8c-4.2-4.2-4.2-11.1,0-15.3l23.9-23.9c4.2-4.2,11.1-4.2,15.3,0l0,0
			c4.2,4.2,4.2,11.1,0,15.3l-23.9,23.9C741,247,734.1,247,729.9,242.8z"/>
		<linearGradient id="XMLID_284_" gradientUnits="userSpaceOnUse" x1="395.0745" y1="517.5939" x2="473.5073" y2="439.1611">
			<stop  offset="0" style="stop-color:#FFFFFF;stop-opacity:0"/>
			<stop  offset="1" style="stop-color:#FFFFFF"/>
		</linearGradient>
		<path id="XMLID_273_" class="st16" d="M395.1,517.6L395.1,517.6c-4.2-4.2-4.2-11.1,0-15.3l63.1-63.1c4.2-4.2,11.1-4.2,15.3,0l0,0
			c4.2,4.2,4.2,11.1,0,15.3l-63.1,63.1C406.1,521.8,399.3,521.8,395.1,517.6z"/>
		<linearGradient id="XMLID_287_" gradientUnits="userSpaceOnUse" x1="-7.8998" y1="398.9032" x2="91.6742" y2="299.3292">
			<stop  offset="0" style="stop-color:#FFFFFF;stop-opacity:0"/>
			<stop  offset="1" style="stop-color:#FFFFFF"/>
		</linearGradient>
		<path id="XMLID_46_" class="st17" d="M-7.9,398.9L-7.9,398.9c1,1,2.7,1,3.7,0L91.7,303c1-1,1-2.7,0-3.7l0,0c-1-1-2.7-1-3.7,0
			l-95.9,95.9C-8.9,396.2-8.9,397.9-7.9,398.9z"/>
		<linearGradient id="XMLID_288_" gradientUnits="userSpaceOnUse" x1="-11.8679" y1="186.0282" x2="63.1962" y2="110.9642">
			<stop  offset="0" style="stop-color:#FFFFFF;stop-opacity:0"/>
			<stop  offset="1" style="stop-color:#FFFFFF"/>
		</linearGradient>
		<path id="XMLID_327_" class="st18" d="M-11.9,186L-11.9,186c1,1,2.7,1,3.7,0l71.4-71.4c1-1,1-2.7,0-3.7l0,0c-1-1-2.7-1-3.7,0
			l-71.4,71.4C-12.9,183.4-12.9,185-11.9,186z"/>
		<linearGradient id="XMLID_302_" gradientUnits="userSpaceOnUse" x1="250.1016" y1="123.4862" x2="355.5981" y2="17.9897">
			<stop  offset="0" style="stop-color:#FFFFFF;stop-opacity:0"/>
			<stop  offset="1" style="stop-color:#FFFFFF"/>
		</linearGradient>
		<path id="XMLID_337_" class="st19" d="M250.1,123.5L250.1,123.5c1,1,2.7,1,3.7,0L355.6,21.7c1-1,1-2.7,0-3.7l0,0c-1-1-2.7-1-3.7,0
			L250.1,119.8C249.1,120.8,249.1,122.5,250.1,123.5z"/>
		<linearGradient id="XMLID_303_" gradientUnits="userSpaceOnUse" x1="399.4047" y1="360.0957" x2="504.9012" y2="254.5992">
			<stop  offset="0" style="stop-color:#FFFFFF;stop-opacity:0"/>
			<stop  offset="1" style="stop-color:#FFFFFF"/>
		</linearGradient>
		<path id="XMLID_277_" class="st20" d="M399.4,360.1L399.4,360.1c1,1,2.7,1,3.7,0l101.8-101.8c1-1,1-2.7,0-3.7l0,0
			c-1-1-2.7-1-3.7,0L399.4,356.4C398.4,357.4,398.4,359.1,399.4,360.1z"/>
		<linearGradient id="XMLID_304_" gradientUnits="userSpaceOnUse" x1="662.7079" y1="36.4419" x2="705.6962" y2="-6.5463">
			<stop  offset="0" style="stop-color:#FFFFFF;stop-opacity:0"/>
			<stop  offset="1" style="stop-color:#FFFFFF"/>
		</linearGradient>
		<path id="XMLID_319_" class="st21" d="M662.7,36.4L662.7,36.4c1,1,2.7,1,3.7,0l39.3-39.3c1-1,1-2.7,0-3.7l0,0c-1-1-2.7-1-3.7,0
			l-39.3,39.3C661.7,33.8,661.7,35.4,662.7,36.4z"/>
		<linearGradient id="XMLID_305_" gradientUnits="userSpaceOnUse" x1="442.8129" y1="507.6551" x2="535.2265" y2="415.2414">
			<stop  offset="0" style="stop-color:#FFFFFF;stop-opacity:0"/>
			<stop  offset="1" style="stop-color:#FFFFFF"/>
		</linearGradient>
		<path id="XMLID_274_" class="st22" d="M442.8,507.7L442.8,507.7c1,1,2.7,1,3.7,0l88.7-88.7c1-1,1-2.7,0-3.7l0,0c-1-1-2.7-1-3.7,0
			L442.8,504C441.8,505,441.8,506.6,442.8,507.7z"/>
	</g>
</g>
<g id="XMLID_3_">
	<g id="XMLID_14_">
		<path id="XMLID_10_" class="st1" d="M36.4,21.4c0,0.9-0.7,1.7-1.7,1.7c-0.9,0-1.7-0.7-1.7-1.7c0-0.9,0.7-1.7,1.7-1.7
			C35.7,19.7,36.4,20.5,36.4,21.4z"/>
		<path id="XMLID_15_" class="st1" d="M52.1,21.4c0,0.9-0.7,1.7-1.7,1.7s-1.7-0.7-1.7-1.7c0-0.9,0.7-1.7,1.7-1.7
			S52.1,20.5,52.1,21.4z"/>
		<path id="XMLID_16_" class="st1" d="M67.8,21.4c0,0.9-0.7,1.7-1.7,1.7s-1.7-0.7-1.7-1.7c0-0.9,0.7-1.7,1.7-1.7
			S67.8,20.5,67.8,21.4z"/>
		<path id="XMLID_17_" class="st1" d="M83.6,21.4c0,0.9-0.7,1.7-1.7,1.7c-0.9,0-1.7-0.7-1.7-1.7c0-0.9,0.7-1.7,1.7-1.7
			C82.8,19.7,83.6,20.5,83.6,21.4z"/>
		<path id="XMLID_18_" class="st1" d="M99.3,21.4c0,0.9-0.7,1.7-1.7,1.7s-1.7-0.7-1.7-1.7c0-0.9,0.7-1.7,1.7-1.7
			S99.3,20.5,99.3,21.4z"/>
		<path id="XMLID_19_" class="st1" d="M115,21.4c0,0.9-0.7,1.7-1.7,1.7s-1.7-0.7-1.7-1.7c0-0.9,0.7-1.7,1.7-1.7S115,20.5,115,21.4z"
			/>
		<path id="XMLID_20_" class="st1" d="M130.7,21.4c0,0.9-0.7,1.7-1.7,1.7s-1.7-0.7-1.7-1.7c0-0.9,0.7-1.7,1.7-1.7
			S130.7,20.5,130.7,21.4z"/>
		<path id="XMLID_21_" class="st1" d="M146.4,21.4c0,0.9-0.7,1.7-1.7,1.7s-1.7-0.7-1.7-1.7c0-0.9,0.7-1.7,1.7-1.7
			S146.4,20.5,146.4,21.4z"/>
		<path id="XMLID_22_" class="st1" d="M162.2,21.4c0,0.9-0.7,1.7-1.7,1.7s-1.7-0.7-1.7-1.7c0-0.9,0.7-1.7,1.7-1.7
			S162.2,20.5,162.2,21.4z"/>
		<path id="XMLID_24_" class="st1" d="M177.9,21.4c0,0.9-0.7,1.7-1.7,1.7c-0.9,0-1.7-0.7-1.7-1.7c0-0.9,0.7-1.7,1.7-1.7
			C177.1,19.7,177.9,20.5,177.9,21.4z"/>
		<path id="XMLID_26_" class="st1" d="M193.6,21.4c0,0.9-0.7,1.7-1.7,1.7s-1.7-0.7-1.7-1.7c0-0.9,0.7-1.7,1.7-1.7
			S193.6,20.5,193.6,21.4z"/>
		<path id="XMLID_51_" class="st1" d="M36.4,35.5c0,0.9-0.7,1.7-1.7,1.7c-0.9,0-1.7-0.7-1.7-1.7c0-0.9,0.7-1.7,1.7-1.7
			C35.7,33.9,36.4,34.6,36.4,35.5z"/>
		<path id="XMLID_50_" class="st1" d="M52.1,35.5c0,0.9-0.7,1.7-1.7,1.7s-1.7-0.7-1.7-1.7c0-0.9,0.7-1.7,1.7-1.7
			S52.1,34.6,52.1,35.5z"/>
		<path id="XMLID_49_" class="st1" d="M67.8,35.5c0,0.9-0.7,1.7-1.7,1.7s-1.7-0.7-1.7-1.7c0-0.9,0.7-1.7,1.7-1.7
			S67.8,34.6,67.8,35.5z"/>
		<path id="XMLID_48_" class="st1" d="M83.6,35.5c0,0.9-0.7,1.7-1.7,1.7c-0.9,0-1.7-0.7-1.7-1.7c0-0.9,0.7-1.7,1.7-1.7
			C82.8,33.9,83.6,34.6,83.6,35.5z"/>
		<path id="XMLID_47_" class="st1" d="M99.3,35.5c0,0.9-0.7,1.7-1.7,1.7s-1.7-0.7-1.7-1.7c0-0.9,0.7-1.7,1.7-1.7
			S99.3,34.6,99.3,35.5z"/>
		<path id="XMLID_44_" class="st1" d="M115,35.5c0,0.9-0.7,1.7-1.7,1.7s-1.7-0.7-1.7-1.7c0-0.9,0.7-1.7,1.7-1.7S115,34.6,115,35.5z"
			/>
		<path id="XMLID_43_" class="st1" d="M130.7,35.5c0,0.9-0.7,1.7-1.7,1.7s-1.7-0.7-1.7-1.7c0-0.9,0.7-1.7,1.7-1.7
			S130.7,34.6,130.7,35.5z"/>
		<path id="XMLID_40_" class="st1" d="M146.4,35.5c0,0.9-0.7,1.7-1.7,1.7s-1.7-0.7-1.7-1.7c0-0.9,0.7-1.7,1.7-1.7
			S146.4,34.6,146.4,35.5z"/>
		<path id="XMLID_39_" class="st1" d="M162.2,35.5c0,0.9-0.7,1.7-1.7,1.7s-1.7-0.7-1.7-1.7c0-0.9,0.7-1.7,1.7-1.7
			S162.2,34.6,162.2,35.5z"/>
		<path id="XMLID_36_" class="st1" d="M177.9,35.5c0,0.9-0.7,1.7-1.7,1.7c-0.9,0-1.7-0.7-1.7-1.7c0-0.9,0.7-1.7,1.7-1.7
			C177.1,33.9,177.9,34.6,177.9,35.5z"/>
		<path id="XMLID_34_" class="st1" d="M193.6,35.5c0,0.9-0.7,1.7-1.7,1.7s-1.7-0.7-1.7-1.7c0-0.9,0.7-1.7,1.7-1.7
			S193.6,34.6,193.6,35.5z"/>
		<path id="XMLID_62_" class="st1" d="M36.4,49.6c0,0.9-0.7,1.7-1.7,1.7c-0.9,0-1.7-0.7-1.7-1.7s0.7-1.7,1.7-1.7
			C35.7,48,36.4,48.7,36.4,49.6z"/>
		<path id="XMLID_61_" class="st1" d="M52.1,49.6c0,0.9-0.7,1.7-1.7,1.7s-1.7-0.7-1.7-1.7s0.7-1.7,1.7-1.7S52.1,48.7,52.1,49.6z"/>
		<path id="XMLID_60_" class="st1" d="M67.8,49.6c0,0.9-0.7,1.7-1.7,1.7s-1.7-0.7-1.7-1.7s0.7-1.7,1.7-1.7S67.8,48.7,67.8,49.6z"/>
		<path id="XMLID_59_" class="st1" d="M83.6,49.6c0,0.9-0.7,1.7-1.7,1.7c-0.9,0-1.7-0.7-1.7-1.7S81,48,81.9,48
			C82.8,48,83.6,48.7,83.6,49.6z"/>
		<path id="XMLID_58_" class="st1" d="M99.3,49.6c0,0.9-0.7,1.7-1.7,1.7s-1.7-0.7-1.7-1.7s0.7-1.7,1.7-1.7S99.3,48.7,99.3,49.6z"/>
		<path id="XMLID_57_" class="st1" d="M115,49.6c0,0.9-0.7,1.7-1.7,1.7s-1.7-0.7-1.7-1.7s0.7-1.7,1.7-1.7S115,48.7,115,49.6z"/>
		<path id="XMLID_56_" class="st1" d="M130.7,49.6c0,0.9-0.7,1.7-1.7,1.7s-1.7-0.7-1.7-1.7s0.7-1.7,1.7-1.7S130.7,48.7,130.7,49.6z"
			/>
		<path id="XMLID_55_" class="st1" d="M146.4,49.6c0,0.9-0.7,1.7-1.7,1.7s-1.7-0.7-1.7-1.7s0.7-1.7,1.7-1.7S146.4,48.7,146.4,49.6z"
			/>
		<path id="XMLID_54_" class="st1" d="M162.2,49.6c0,0.9-0.7,1.7-1.7,1.7s-1.7-0.7-1.7-1.7s0.7-1.7,1.7-1.7S162.2,48.7,162.2,49.6z"
			/>
		<path id="XMLID_53_" class="st1" d="M177.9,49.6c0,0.9-0.7,1.7-1.7,1.7c-0.9,0-1.7-0.7-1.7-1.7s0.7-1.7,1.7-1.7
			C177.1,48,177.9,48.7,177.9,49.6z"/>
		<path id="XMLID_52_" class="st1" d="M193.6,49.6c0,0.9-0.7,1.7-1.7,1.7s-1.7-0.7-1.7-1.7s0.7-1.7,1.7-1.7S193.6,48.7,193.6,49.6z"
			/>
		<circle id="XMLID_73_" class="st1" cx="34.7" cy="63.8" r="1.7"/>
		<circle id="XMLID_72_" class="st1" cx="50.5" cy="63.8" r="1.7"/>
		<path id="XMLID_71_" class="st1" d="M67.8,63.8c0,0.9-0.7,1.7-1.7,1.7s-1.7-0.7-1.7-1.7c0-0.9,0.7-1.7,1.7-1.7
			S67.8,62.8,67.8,63.8z"/>
		<circle id="XMLID_70_" class="st1" cx="81.9" cy="63.8" r="1.7"/>
		<circle id="XMLID_69_" class="st1" cx="97.6" cy="63.8" r="1.7"/>
		<circle id="XMLID_68_" class="st1" cx="113.3" cy="63.8" r="1.7"/>
		<circle id="XMLID_67_" class="st1" cx="129.1" cy="63.8" r="1.7"/>
		<circle id="XMLID_66_" class="st1" cx="144.8" cy="63.8" r="1.7"/>
		<circle id="XMLID_65_" class="st1" cx="160.5" cy="63.8" r="1.7"/>
		<path id="XMLID_64_" class="st1" d="M177.9,63.8c0,0.9-0.7,1.7-1.7,1.7c-0.9,0-1.7-0.7-1.7-1.7c0-0.9,0.7-1.7,1.7-1.7
			C177.1,62.1,177.9,62.8,177.9,63.8z"/>
		<path id="XMLID_63_" class="st1" d="M193.6,63.8c0,0.9-0.7,1.7-1.7,1.7s-1.7-0.7-1.7-1.7c0-0.9,0.7-1.7,1.7-1.7
			S193.6,62.8,193.6,63.8z"/>
		<circle id="XMLID_84_" class="st1" cx="34.7" cy="77.9" r="1.7"/>
		<circle id="XMLID_83_" class="st1" cx="50.5" cy="77.9" r="1.7"/>
		<path id="XMLID_82_" class="st1" d="M67.8,77.9c0,0.9-0.7,1.7-1.7,1.7s-1.7-0.7-1.7-1.7c0-0.9,0.7-1.7,1.7-1.7S67.8,77,67.8,77.9z
			"/>
		<circle id="XMLID_81_" class="st1" cx="81.9" cy="77.9" r="1.7"/>
		<circle id="XMLID_80_" class="st1" cx="97.6" cy="77.9" r="1.7"/>
		<circle id="XMLID_79_" class="st1" cx="113.3" cy="77.9" r="1.7"/>
		<circle id="XMLID_78_" class="st1" cx="129.1" cy="77.9" r="1.7"/>
		<circle id="XMLID_77_" class="st1" cx="144.8" cy="77.9" r="1.7"/>
		<circle id="XMLID_76_" class="st1" cx="160.5" cy="77.9" r="1.7"/>
		<path id="XMLID_75_" class="st1" d="M177.9,77.9c0,0.9-0.7,1.7-1.7,1.7c-0.9,0-1.7-0.7-1.7-1.7c0-0.9,0.7-1.7,1.7-1.7
			C177.1,76.2,177.9,77,177.9,77.9z"/>
		<path id="XMLID_74_" class="st1" d="M193.6,77.9c0,0.9-0.7,1.7-1.7,1.7s-1.7-0.7-1.7-1.7c0-0.9,0.7-1.7,1.7-1.7
			S193.6,77,193.6,77.9z"/>
		<circle id="XMLID_95_" class="st1" cx="34.7" cy="92" r="1.7"/>
		<circle id="XMLID_94_" class="st1" cx="50.5" cy="92" r="1.7"/>
		<path id="XMLID_93_" class="st1" d="M67.8,92c0,0.9-0.7,1.7-1.7,1.7s-1.7-0.7-1.7-1.7c0-0.9,0.7-1.7,1.7-1.7S67.8,91.1,67.8,92z"
			/>
		<circle id="XMLID_92_" class="st1" cx="81.9" cy="92" r="1.7"/>
		<circle id="XMLID_91_" class="st1" cx="97.6" cy="92" r="1.7"/>
		<circle id="XMLID_90_" class="st1" cx="113.3" cy="92" r="1.7"/>
		<circle id="XMLID_89_" class="st1" cx="129.1" cy="92" r="1.7"/>
		<circle id="XMLID_88_" class="st1" cx="144.8" cy="92" r="1.7"/>
		<circle id="XMLID_87_" class="st1" cx="160.5" cy="92" r="1.7"/>
		<path id="XMLID_86_" class="st1" d="M177.9,92c0,0.9-0.7,1.7-1.7,1.7c-0.9,0-1.7-0.7-1.7-1.7c0-0.9,0.7-1.7,1.7-1.7
			C177.1,90.3,177.9,91.1,177.9,92z"/>
		<path id="XMLID_85_" class="st1" d="M193.6,92c0,0.9-0.7,1.7-1.7,1.7s-1.7-0.7-1.7-1.7c0-0.9,0.7-1.7,1.7-1.7S193.6,91.1,193.6,92
			z"/>
	</g>
	<g id="XMLID_97_">
		<circle id="XMLID_108_" class="st1" cx="731.1" cy="474.6" r="2.2"/>
		<circle id="XMLID_107_" class="st1" cx="731.1" cy="453.7" r="2.2"/>
		<circle id="XMLID_106_" class="st1" cx="731.1" cy="432.9" r="2.2"/>
		<circle id="XMLID_105_" class="st1" cx="731.1" cy="412" r="2.2"/>
		<path id="XMLID_104_" class="st1" d="M731.1,388.9c1.2,0,2.2,1,2.2,2.2c0,1.2-1,2.2-2.2,2.2c-1.2,0-2.2-1-2.2-2.2
			C728.9,389.9,729.9,388.9,731.1,388.9z"/>
		<circle id="XMLID_103_" class="st1" cx="731.1" cy="370.3" r="2.2"/>
		<circle id="XMLID_102_" class="st1" cx="731.1" cy="349.4" r="2.2"/>
		<circle id="XMLID_101_" class="st1" cx="731.1" cy="328.5" r="2.2"/>
		<circle id="XMLID_100_" class="st1" cx="731.1" cy="307.7" r="2.2"/>
		<circle id="XMLID_99_" class="st1" cx="731.1" cy="286.8" r="2.2"/>
		<circle id="XMLID_98_" class="st1" cx="731.1" cy="266" r="2.2"/>
	</g>
	<g id="XMLID_109_">
		<circle id="XMLID_120_" class="st1" cx="358.1" cy="474.6" r="2.2"/>
		<circle id="XMLID_119_" class="st1" cx="337.2" cy="474.6" r="2.2"/>
		<circle id="XMLID_118_" class="st1" cx="316.4" cy="474.6" r="2.2"/>
		<circle id="XMLID_117_" class="st1" cx="295.5" cy="474.6" r="2.2"/>
		<circle id="XMLID_116_" class="st1" cx="274.6" cy="474.6" r="2.2"/>
		<circle id="XMLID_115_" class="st1" cx="253.8" cy="474.6" r="2.2"/>
		<circle id="XMLID_114_" class="st1" cx="232.9" cy="474.6" r="2.2"/>
		<circle id="XMLID_113_" class="st1" cx="212" cy="474.6" r="2.2"/>
		<circle id="XMLID_112_" class="st1" cx="191.2" cy="474.6" r="2.2"/>
		<circle id="XMLID_111_" class="st1" cx="170.3" cy="474.6" r="2.2"/>
		<circle id="XMLID_110_" class="st1" cx="149.4" cy="474.6" r="2.2"/>
	</g>
	<g id="XMLID_135_" class="st23">
		<path id="XMLID_136_" class="st0" d="M99.6,388l-70,70c1.2,1.6,2.5,3.1,3.8,4.5l70.7-70.7C102.7,390.5,101.2,389.2,99.6,388z"/>
		<path id="XMLID_137_" class="st0" d="M84.3,380.2l-62.5,62.5c0.6,2.1,1.4,4.1,2.3,6l66.3-66.3C88.4,381.6,86.4,380.8,84.3,380.2z"
			/>
		<path id="XMLID_138_" class="st0" d="M92.5,383.6l-67.4,67.4c0.9,1.8,2,3.6,3.1,5.2l69.5-69.5C96.1,385.5,94.3,384.5,92.5,383.6z"
			/>
		<path id="XMLID_139_" class="st0" d="M69.6,378c-2.3,0-4.5,0.2-6.7,0.4l-42.9,42.9c-0.3,2.2-0.4,4.4-0.4,6.7c0,0.7,0,1.4,0,2.1
			l52-52C71,378,70.3,378,69.6,378z"/>
		<path id="XMLID_140_" class="st0" d="M105.8,393.5l-70.7,70.7c1.4,1.4,2.9,2.6,4.5,3.8l70-70C108.4,396.4,107.1,394.9,105.8,393.5
			z"/>
		<path id="XMLID_141_" class="st0" d="M45.8,384l-20.1,20.1c-2.2,4.1-3.9,8.6-4.9,13.3L59,379.1C54.3,380.1,49.9,381.8,45.8,384z"
			/>
		<path id="XMLID_142_" class="st0" d="M74.7,378.3l-54.8,54.8c0.2,2.4,0.7,4.8,1.2,7.1l60.7-60.7C79.5,378.9,77.1,378.5,74.7,378.3
			z"/>
		<path id="XMLID_143_" class="st0" d="M93.4,472l20.1-20.1c2.2-4.1,3.9-8.6,4.9-13.3l-38.3,38.3C84.9,475.9,89.3,474.2,93.4,472z"
			/>
		<path id="XMLID_144_" class="st0" d="M110.9,399.9l-69.5,69.5c1.7,1.1,3.4,2.2,5.2,3.1l67.4-67.4
			C113.1,403.3,112.1,401.5,110.9,399.9z"/>
		<path id="XMLID_145_" class="st0" d="M119.6,428c0-0.7,0-1.4,0-2.1l-52,52c0.7,0,1.4,0,2.1,0c2.3,0,4.5-0.2,6.7-0.4l42.9-42.9
			C119.5,432.5,119.6,430.3,119.6,428z"/>
		<path id="XMLID_146_" class="st0" d="M115.1,407.3l-66.3,66.3c2,0.9,4,1.7,6,2.3l62.5-62.5C116.8,411.2,116,409.2,115.1,407.3z"/>
		<path id="XMLID_147_" class="st0" d="M118.1,415.8l-60.7,60.7c2.3,0.6,4.7,1,7.1,1.2l54.8-54.8
			C119.1,420.5,118.7,418.1,118.1,415.8z"/>
		<path id="XMLID_148_" class="st1" d="M25.6,404.2L45.8,384C37.3,388.7,30.3,395.7,25.6,404.2z"/>
		<path id="XMLID_149_" class="st1" d="M59,379.1l-38.3,38.3c-0.3,1.3-0.5,2.6-0.7,3.9l42.9-42.9C61.6,378.6,60.3,378.9,59,379.1z"
			/>
		<path id="XMLID_150_" class="st1" d="M71.7,378.1l-52,52c0,1,0.1,2,0.2,3l54.8-54.8C73.7,378.2,72.7,378.1,71.7,378.1z"/>
		<path id="XMLID_151_" class="st1" d="M81.8,379.5l-60.7,60.7c0.2,0.8,0.4,1.7,0.7,2.5l62.5-62.5C83.5,380,82.6,379.7,81.8,379.5z"
			/>
		<path id="XMLID_152_" class="st1" d="M90.4,382.5l-66.3,66.3c0.3,0.7,0.7,1.5,1.1,2.2l67.4-67.4C91.8,383.2,91.1,382.8,90.4,382.5
			z"/>
		<path id="XMLID_153_" class="st1" d="M97.8,386.7l-69.5,69.5c0.4,0.6,0.9,1.3,1.3,1.9l70-70C99,387.6,98.4,387.1,97.8,386.7z"/>
		<path id="XMLID_154_" class="st1" d="M104.1,391.9l-70.7,70.7c0.5,0.5,1.1,1.1,1.6,1.6l70.7-70.7
			C105.2,392.9,104.7,392.4,104.1,391.9z"/>
		<path id="XMLID_155_" class="st1" d="M109.6,398l-70,70c0.6,0.5,1.2,0.9,1.9,1.3l69.5-69.5C110.5,399.2,110.1,398.6,109.6,398z"/>
		<path id="XMLID_156_" class="st1" d="M114.1,405.1l-67.4,67.4c0.7,0.4,1.4,0.7,2.2,1.1l66.3-66.3
			C114.8,406.5,114.4,405.8,114.1,405.1z"/>
		<path id="XMLID_157_" class="st1" d="M117.4,413.3l-62.5,62.5c0.8,0.3,1.7,0.5,2.5,0.7l60.7-60.7
			C117.9,415,117.7,414.1,117.4,413.3z"/>
		<path id="XMLID_158_" class="st1" d="M119.4,422.9l-54.8,54.8c1,0.1,2,0.2,3,0.2l52-52C119.5,424.9,119.5,423.9,119.4,422.9z"/>
		<path id="XMLID_159_" class="st1" d="M118.5,438.6c0.3-1.3,0.5-2.6,0.7-3.9l-42.9,42.9c1.3-0.2,2.6-0.4,3.9-0.7L118.5,438.6z"/>
		<path id="XMLID_160_" class="st1" d="M113.6,451.8L93.4,472C101.9,467.4,109,460.3,113.6,451.8z"/>
	</g>
	<g id="XMLID_121_" class="st23">
		<path id="XMLID_172_" class="st0" d="M716.8,54.7l-70,70c1.2,1.6,2.5,3.1,3.8,4.5l70.7-70.7C719.9,57.2,718.3,55.9,716.8,54.7z"/>
		<path id="XMLID_171_" class="st0" d="M701.4,46.9l-62.5,62.5c0.6,2.1,1.4,4.1,2.3,6l66.3-66.3C705.5,48.3,703.5,47.5,701.4,46.9z"
			/>
		<path id="XMLID_170_" class="st0" d="M709.7,50.3l-67.4,67.4c0.9,1.8,2,3.6,3.1,5.2l69.5-69.5C713.2,52.2,711.5,51.2,709.7,50.3z"
			/>
		<path id="XMLID_169_" class="st0" d="M686.7,44.7c-2.3,0-4.5,0.2-6.7,0.4L637.2,88c-0.3,2.2-0.4,4.4-0.4,6.7c0,0.7,0,1.4,0,2.1
			l52-52C688.1,44.7,687.4,44.7,686.7,44.7z"/>
		<path id="XMLID_168_" class="st0" d="M722.9,60.2l-70.7,70.7c1.4,1.4,2.9,2.6,4.5,3.8l70-70C725.5,63.1,724.3,61.6,722.9,60.2z"/>
		<path id="XMLID_167_" class="st0" d="M662.9,50.7l-20.1,20.1c-2.2,4.1-3.9,8.6-4.9,13.3l38.3-38.3C671.5,46.8,667,48.5,662.9,50.7
			z"/>
		<path id="XMLID_166_" class="st0" d="M691.8,45L637,99.8c0.2,2.4,0.7,4.8,1.2,7.1l60.7-60.7C696.6,45.6,694.2,45.2,691.8,45z"/>
		<path id="XMLID_165_" class="st0" d="M710.6,138.7l20.1-20.1c2.2-4.1,3.9-8.6,4.9-13.3l-38.3,38.3
			C702,142.6,706.5,140.9,710.6,138.7z"/>
		<path id="XMLID_164_" class="st0" d="M728.1,66.6L658.6,136c1.7,1.1,3.4,2.2,5.2,3.1l67.4-67.4C730.3,70,729.2,68.2,728.1,66.6z"
			/>
		<path id="XMLID_163_" class="st0" d="M736.7,94.7c0-0.7,0-1.4,0-2.1l-52,52c0.7,0,1.4,0,2.1,0c2.3,0,4.5-0.2,6.7-0.4l42.9-42.9
			C736.6,99.2,736.7,97,736.7,94.7z"/>
		<path id="XMLID_162_" class="st0" d="M732.2,73.9L666,140.2c2,0.9,4,1.7,6,2.3L734.5,80C733.9,77.9,733.1,75.9,732.2,73.9z"/>
		<path id="XMLID_161_" class="st0" d="M735.2,82.5l-60.7,60.7c2.3,0.6,4.7,1,7.1,1.2l54.8-54.8C736.2,87.2,735.8,84.8,735.2,82.5z"
			/>
		<path id="XMLID_134_" class="st1" d="M642.8,70.9l20.1-20.1C654.4,55.4,647.4,62.4,642.8,70.9z"/>
		<path id="XMLID_133_" class="st1" d="M676.2,45.8l-38.3,38.3c-0.3,1.3-0.5,2.6-0.7,3.9l42.9-42.9
			C678.7,45.3,677.4,45.6,676.2,45.8z"/>
		<path id="XMLID_132_" class="st1" d="M688.8,44.7l-52,52c0,1,0.1,2,0.2,3L691.8,45C690.8,44.9,689.8,44.8,688.8,44.7z"/>
		<path id="XMLID_131_" class="st1" d="M698.9,46.2l-60.7,60.7c0.2,0.8,0.4,1.7,0.7,2.5l62.5-62.5C700.6,46.6,699.8,46.4,698.9,46.2
			z"/>
		<path id="XMLID_130_" class="st1" d="M707.5,49.2l-66.3,66.3c0.3,0.7,0.7,1.5,1.1,2.2l67.4-67.4C709,49.9,708.2,49.5,707.5,49.2z"
			/>
		<path id="XMLID_129_" class="st1" d="M714.9,53.4l-69.5,69.5c0.4,0.6,0.9,1.3,1.3,1.9l70-70C716.2,54.3,715.5,53.8,714.9,53.4z"/>
		<path id="XMLID_128_" class="st1" d="M721.3,58.6l-70.7,70.7c0.5,0.5,1.1,1.1,1.6,1.6l70.7-70.7C722.4,59.6,721.8,59.1,721.3,58.6
			z"/>
		<path id="XMLID_127_" class="st1" d="M726.7,64.7l-70,70c0.6,0.5,1.2,0.9,1.9,1.3l69.5-69.5C727.6,65.9,727.2,65.3,726.7,64.7z"/>
		<path id="XMLID_126_" class="st1" d="M731.2,71.8l-67.4,67.4c0.7,0.4,1.4,0.7,2.2,1.1l66.3-66.3C731.9,73.2,731.6,72.5,731.2,71.8
			z"/>
		<path id="XMLID_125_" class="st1" d="M734.5,80L672,142.5c0.8,0.3,1.7,0.5,2.5,0.7l60.7-60.7C735,81.7,734.8,80.8,734.5,80z"/>
		<path id="XMLID_124_" class="st1" d="M736.5,89.6l-54.8,54.8c1,0.1,2,0.2,3,0.2l52-52C736.7,91.6,736.6,90.6,736.5,89.6z"/>
		<path id="XMLID_123_" class="st1" d="M735.6,105.3c0.3-1.3,0.5-2.6,0.7-3.9l-42.9,42.9c1.3-0.2,2.6-0.4,3.9-0.7L735.6,105.3z"/>
		<path id="XMLID_122_" class="st1" d="M730.7,118.5l-20.1,20.1C719.1,134,726.1,127,730.7,118.5z"/>
	</g>
	<g id="XMLID_173_" class="st23">
		<path id="XMLID_198_" class="st0" d="M673.6,354.1l-105,105c1.8,2.4,3.7,4.6,5.7,6.8l106-106C678.2,357.8,675.9,355.9,673.6,354.1
			z"/>
		<path id="XMLID_197_" class="st0" d="M650.6,342.4l-93.8,93.8c1,3.1,2.1,6.1,3.4,9.1l99.4-99.4
			C656.7,344.5,653.7,343.3,650.6,342.4z"/>
		<path id="XMLID_196_" class="st0" d="M662.9,347.4L561.9,448.5c1.4,2.7,3,5.3,4.7,7.8l104.2-104.2
			C668.2,350.4,665.6,348.8,662.9,347.4z"/>
		<path id="XMLID_195_" class="st0" d="M628.5,339.1c-3.4,0-6.7,0.2-10,0.7l-64.3,64.3c-0.4,3.3-0.7,6.6-0.7,10c0,1,0,2.1,0.1,3.1
			l78-78C630.6,339.1,629.6,339.1,628.5,339.1z"/>
		<path id="XMLID_194_" class="st0" d="M682.8,362.3l-106,106c2.1,2,4.4,4,6.8,5.7l105-105C686.7,366.7,684.8,364.4,682.8,362.3z"/>
		<path id="XMLID_193_" class="st0" d="M592.8,348.1l-30.2,30.2c-3.3,6.2-5.8,12.8-7.4,19.9l57.4-57.4
			C605.6,342.3,598.9,344.8,592.8,348.1z"/>
		<path id="XMLID_192_" class="st0" d="M636.2,339.5l-82.2,82.2c0.4,3.6,1,7.2,1.9,10.7l91-91C643.3,340.5,639.8,339.8,636.2,339.5z
			"/>
		<path id="XMLID_191_" class="st0" d="M664.3,480l30.2-30.2c3.3-6.2,5.8-12.8,7.4-19.9l-57.4,57.4
			C651.4,485.9,658.1,483.4,664.3,480z"/>
		<path id="XMLID_190_" class="st0" d="M690.5,371.9L586.3,476.1c2.5,1.7,5.1,3.3,7.8,4.7l101.1-101.1
			C693.8,377,692.2,374.4,690.5,371.9z"/>
		<path id="XMLID_189_" class="st0" d="M703.5,414.1c0-1,0-2.1-0.1-3.1l-78,78c1,0,2.1,0.1,3.1,0.1c3.4,0,6.7-0.2,10-0.7l64.3-64.3
			C703.3,420.8,703.5,417.5,703.5,414.1z"/>
		<path id="XMLID_188_" class="st0" d="M696.8,382.9l-99.4,99.4c2.9,1.3,6,2.5,9.1,3.4l93.8-93.8
			C699.3,388.9,698.1,385.9,696.8,382.9z"/>
		<path id="XMLID_187_" class="st0" d="M701.3,395.8l-91,91c3.5,0.9,7,1.5,10.7,1.9l82.2-82.2C702.8,402.8,702.1,399.3,701.3,395.8z
			"/>
		<path id="XMLID_186_" class="st1" d="M562.6,378.3l30.2-30.2C580,355.1,569.5,365.6,562.6,378.3z"/>
		<path id="XMLID_185_" class="st1" d="M612.7,340.8l-57.4,57.4c-0.4,1.9-0.8,3.9-1,5.9l64.3-64.3
			C616.5,340,614.6,340.4,612.7,340.8z"/>
		<path id="XMLID_184_" class="st1" d="M631.6,339.1l-78,78c0.1,1.5,0.2,3,0.3,4.5l82.2-82.2C634.7,339.3,633.2,339.2,631.6,339.1z"
			/>
		<path id="XMLID_183_" class="st1" d="M646.8,341.3l-91,91c0.3,1.3,0.7,2.5,1.1,3.8l93.8-93.8C649.3,342,648.1,341.6,646.8,341.3z"
			/>
		<path id="XMLID_182_" class="st1" d="M659.7,345.8l-99.4,99.4c0.5,1.1,1,2.2,1.6,3.3l101.1-101.1
			C661.8,346.9,660.8,346.3,659.7,345.8z"/>
		<path id="XMLID_181_" class="st1" d="M670.8,352.1L566.5,456.3c0.7,1,1.3,1.9,2,2.8l105-105C672.6,353.4,671.7,352.7,670.8,352.1z
			"/>
		<path id="XMLID_180_" class="st1" d="M680.3,359.9l-106,106c0.8,0.8,1.6,1.6,2.4,2.4l106-106C682,361.4,681.2,360.6,680.3,359.9z"
			/>
		<path id="XMLID_179_" class="st1" d="M688.5,369l-105,105c0.9,0.7,1.9,1.4,2.8,2l104.2-104.2C689.9,370.9,689.2,370,688.5,369z"/>
		<path id="XMLID_178_" class="st1" d="M695.2,379.7L594.1,480.7c1.1,0.6,2.2,1.1,3.3,1.6l99.4-99.4
			C696.3,381.9,695.8,380.8,695.2,379.7z"/>
		<path id="XMLID_177_" class="st1" d="M700.2,392l-93.8,93.8c1.2,0.4,2.5,0.7,3.8,1.1l91-91C701,394.5,700.6,393.3,700.2,392z"/>
		<path id="XMLID_176_" class="st1" d="M703.1,406.5l-82.2,82.2c1.5,0.2,3,0.3,4.5,0.3l78-78C703.4,409.5,703.3,407.9,703.1,406.5z"
			/>
		<path id="XMLID_175_" class="st1" d="M701.8,429.9c0.4-1.9,0.8-3.9,1-5.9l-64.3,64.3c2-0.3,3.9-0.6,5.9-1L701.8,429.9z"/>
		<path id="XMLID_174_" class="st1" d="M694.5,449.8L664.3,480C677,473.1,687.5,462.6,694.5,449.8z"/>
	</g>
	<g id="XMLID_199_" class="st23">
		<path id="XMLID_224_" class="st0" d="M233.7,160.6l-56,56c1,1.3,2,2.5,3.1,3.6l56.6-56.6C236.2,162.6,235,161.5,233.7,160.6z"/>
		<path id="XMLID_223_" class="st0" d="M221.5,154.3l-50,50c0.5,1.7,1.1,3.3,1.8,4.8l53-53C224.7,155.5,223.1,154.8,221.5,154.3z"/>
		<path id="XMLID_222_" class="st0" d="M228,157l-53.9,53.9c0.7,1.4,1.6,2.8,2.5,4.2l55.6-55.6C230.9,158.6,229.5,157.8,228,157z"/>
		<path id="XMLID_221_" class="st0" d="M209.7,152.6c-1.8,0-3.6,0.1-5.3,0.4l-34.3,34.3c-0.2,1.7-0.4,3.5-0.4,5.3c0,0.6,0,1.1,0,1.7
			l41.6-41.6C210.8,152.6,210.3,152.6,209.7,152.6z"/>
		<path id="XMLID_220_" class="st0" d="M238.6,164.9l-56.6,56.6c1.1,1.1,2.3,2.1,3.6,3.1l56-56C240.7,167.3,239.7,166.1,238.6,164.9
			z"/>
		<path id="XMLID_219_" class="st0" d="M190.6,157.4l-16.1,16.1c-1.8,3.3-3.1,6.8-3.9,10.6l30.6-30.6
			C197.5,154.3,193.9,155.6,190.6,157.4z"/>
		<path id="XMLID_218_" class="st0" d="M213.8,152.8l-43.9,43.9c0.2,1.9,0.5,3.8,1,5.7l48.5-48.5C217.6,153.3,215.7,153,213.8,152.8
			z"/>
		<path id="XMLID_217_" class="st0" d="M228.8,227.7l16.1-16.1c1.8-3.3,3.1-6.8,3.9-10.6l-30.6,30.6
			C221.9,230.9,225.5,229.5,228.8,227.7z"/>
		<path id="XMLID_216_" class="st0" d="M242.8,170l-55.6,55.6c1.3,0.9,2.7,1.7,4.2,2.5l53.9-53.9C244.5,172.8,243.7,171.4,242.8,170
			z"/>
		<path id="XMLID_215_" class="st0" d="M249.7,192.6c0-0.6,0-1.1,0-1.7L208,232.5c0.5,0,1.1,0,1.7,0c1.8,0,3.6-0.1,5.3-0.4
			l34.3-34.3C249.6,196.2,249.7,194.4,249.7,192.6z"/>
		<path id="XMLID_214_" class="st0" d="M246.1,176l-53,53c1.6,0.7,3.2,1.3,4.8,1.8l50-50C247.4,179.1,246.8,177.5,246.1,176z"/>
		<path id="XMLID_213_" class="st0" d="M248.5,182.8l-48.6,48.6c1.8,0.5,3.7,0.8,5.7,1l43.9-43.9C249.3,186.6,249,184.7,248.5,182.8
			z"/>
		<path id="XMLID_212_" class="st1" d="M174.5,173.5l16.1-16.1C183.8,161.1,178.2,166.7,174.5,173.5z"/>
		<path id="XMLID_211_" class="st1" d="M201.2,153.5l-30.6,30.6c-0.2,1-0.4,2.1-0.5,3.1l34.3-34.3
			C203.3,153.1,202.3,153.2,201.2,153.5z"/>
		<path id="XMLID_210_" class="st1" d="M211.4,152.6l-41.6,41.6c0,0.8,0.1,1.6,0.2,2.4l43.9-43.9C213,152.7,212.2,152.6,211.4,152.6
			z"/>
		<path id="XMLID_209_" class="st1" d="M219.4,153.8l-48.5,48.5c0.2,0.7,0.4,1.4,0.6,2l50-50C220.8,154.1,220.1,153.9,219.4,153.8z"
			/>
		<path id="XMLID_208_" class="st1" d="M226.3,156.2l-53,53c0.3,0.6,0.5,1.2,0.8,1.7L228,157C227.5,156.7,226.9,156.4,226.3,156.2z"
			/>
		<path id="XMLID_207_" class="st1" d="M232.2,159.5l-55.6,55.6c0.3,0.5,0.7,1,1.1,1.5l56-56C233.2,160.2,232.7,159.9,232.2,159.5z"
			/>
		<path id="XMLID_206_" class="st1" d="M237.3,163.6l-56.6,56.6c0.4,0.4,0.8,0.9,1.3,1.3l56.6-56.6
			C238.2,164.5,237.8,164.1,237.3,163.6z"/>
		<path id="XMLID_205_" class="st1" d="M241.7,168.5l-56,56c0.5,0.4,1,0.7,1.5,1.1l55.6-55.6C242.4,169.5,242.1,169,241.7,168.5z"/>
		<path id="XMLID_204_" class="st1" d="M245.3,174.2l-53.9,53.9c0.6,0.3,1.1,0.6,1.7,0.8l53-53C245.8,175.4,245.5,174.8,245.3,174.2
			z"/>
		<path id="XMLID_203_" class="st1" d="M247.9,180.8l-50,50c0.7,0.2,1.3,0.4,2,0.6l48.6-48.6C248.3,182.1,248.1,181.5,247.9,180.8z"
			/>
		<path id="XMLID_202_" class="st1" d="M249.5,188.5l-43.9,43.9c0.8,0.1,1.6,0.1,2.4,0.2l41.6-41.6
			C249.6,190.1,249.6,189.3,249.5,188.5z"/>
		<path id="XMLID_201_" class="st1" d="M248.8,201c0.2-1,0.4-2.1,0.5-3.1L215,232.2c1.1-0.1,2.1-0.3,3.1-0.5L248.8,201z"/>
		<path id="XMLID_200_" class="st1" d="M244.9,211.6l-16.1,16.1C235.6,224,241.2,218.4,244.9,211.6z"/>
	</g>
	<g id="XMLID_96_" class="st23">
		<path id="XMLID_226_" class="st1" d="M196.2,420.1c-3.3,0-6-2.7-6-6c0-3.3,2.7-6,6-6s6,2.7,6,6
			C202.2,417.4,199.5,420.1,196.2,420.1z M196.2,410.1c-2.2,0-4,1.8-4,4c0,2.2,1.8,4,4,4c2.2,0,4-1.8,4-4
			C200.2,411.9,198.4,410.1,196.2,410.1z"/>
	</g>
	<g id="XMLID_245_" class="st23">
		<path id="XMLID_246_" class="st1" d="M547.5,205.1c-3.3,0-6-2.7-6-6s2.7-6,6-6c3.3,0,6,2.7,6,6S550.8,205.1,547.5,205.1z
			 M547.5,195.1c-2.2,0-4,1.8-4,4c0,2.2,1.8,4,4,4c2.2,0,4-1.8,4-4C551.5,196.9,549.7,195.1,547.5,195.1z"/>
	</g>
	<g id="XMLID_241_">
		<path id="XMLID_242_" class="st1" d="M480.6,374.1c-3.3,0-6-2.7-6-6c0-3.3,2.7-6,6-6s6,2.7,6,6
			C486.6,371.4,483.9,374.1,480.6,374.1z M480.6,364.1c-2.2,0-4,1.8-4,4c0,2.2,1.8,4,4,4c2.2,0,4-1.8,4-4
			C484.6,365.8,482.8,364.1,480.6,364.1z"/>
	</g>
	<g id="XMLID_233_" class="st23">
		<path id="XMLID_234_" class="st1" d="M636.2,298.8c-3.3,0-6-2.7-6-6s2.7-6,6-6c3.3,0,6,2.7,6,6S639.5,298.8,636.2,298.8z
			 M636.2,288.8c-2.2,0-4,1.8-4,4c0,2.2,1.8,4,4,4c2.2,0,4-1.8,4-4C640.2,290.6,638.4,288.8,636.2,288.8z"/>
	</g>
	<g id="XMLID_249_" class="st23">
		<path id="XMLID_250_" class="st1" d="M634.8,25.7c-3.3,0-6-2.7-6-6s2.7-6,6-6s6,2.7,6,6S638.1,25.7,634.8,25.7z M634.8,15.7
			c-2.2,0-4,1.8-4,4c0,2.2,1.8,4,4,4c2.2,0,4-1.8,4-4C638.8,17.5,637,15.7,634.8,15.7z"/>
	</g>
	<g id="XMLID_229_" class="st23">
		<path id="XMLID_230_" class="st1" d="M136.7,202.6c-3.3,0-6-2.7-6-6c0-3.3,2.7-6,6-6s6,2.7,6,6C142.7,199.9,140,202.6,136.7,202.6
			z M136.7,192.6c-2.2,0-4,1.8-4,4c0,2.2,1.8,4,4,4c2.2,0,4-1.8,4-4C140.7,194.4,138.9,192.6,136.7,192.6z"/>
	</g>
	<g id="XMLID_237_" class="st23">
		<path id="XMLID_238_" class="st1" d="M368.1,61.1c-3.3,0-6-2.7-6-6c0-3.3,2.7-6,6-6s6,2.7,6,6C374.1,58.4,371.4,61.1,368.1,61.1z
			 M368.1,51.1c-2.2,0-4,1.8-4,4c0,2.2,1.8,4,4,4s4-1.8,4-4C372.1,52.9,370.3,51.1,368.1,51.1z"/>
	</g>
	<g id="XMLID_225_">
		<path id="XMLID_254_" class="st1" d="M254.6,358.8l-11,8.1c-0.2,0.1-0.4,0.2-0.7,0.1c-0.2-0.1-0.4-0.3-0.4-0.5l-1.5-13.6
			c-0.1-0.5,0.5-0.9,0.9-0.7l12.5,5.5c0.2,0.1,0.4,0.3,0.4,0.5C254.9,358.4,254.8,358.6,254.6,358.8z M243.7,365.1l9.2-6.7
			l-10.4-4.6L243.7,365.1z"/>
	</g>
	<g id="XMLID_30_">
		<path id="XMLID_31_" class="st1" d="M102,366.6l-9.8-9.5c-0.2-0.2-0.2-0.4-0.2-0.6c0.1-0.2,0.2-0.4,0.5-0.5l13.2-3.7
			c0.5-0.1,0.9,0.3,0.8,0.8l-3.4,13.2c-0.1,0.2-0.2,0.4-0.5,0.5C102.4,366.8,102.2,366.8,102,366.6z M94,356.9l8.1,7.9l2.8-11
			L94,356.9z"/>
	</g>
	<g id="XMLID_25_">
		<path id="XMLID_27_" class="st1" d="M71.4,152.6H57.7c-0.2,0-0.5-0.1-0.6-0.3c-0.1-0.2-0.1-0.5,0-0.7l6.8-11.8
			c0.2-0.4,0.9-0.4,1.2,0l6.8,11.8c0.1,0.2,0.1,0.5,0,0.7C71.8,152.5,71.6,152.6,71.4,152.6z M58.8,151.3h11.4l-5.7-9.8L58.8,151.3z
			"/>
	</g>
	<g id="XMLID_257_" class="st23">
		<path id="XMLID_258_" class="st1" d="M533.8,472.6l-8.2-10.9c-0.1-0.2-0.2-0.4-0.1-0.7c0.1-0.2,0.3-0.4,0.5-0.4l13.6-1.6
			c0.5-0.1,0.9,0.5,0.7,0.9l-5.4,12.6c-0.1,0.2-0.3,0.4-0.5,0.4C534.2,472.9,533.9,472.8,533.8,472.6z M527.3,461.8l6.8,9.1
			l4.5-10.5L527.3,461.8z"/>
	</g>
	<g id="XMLID_35_">
		<path id="XMLID_37_" class="st1" d="M339.9,156.2l-11.2-7.8c-0.2-0.1-0.3-0.4-0.3-0.6c0-0.2,0.2-0.4,0.4-0.5l12.4-5.8
			c0.4-0.2,1,0.2,0.9,0.7l-1.2,13.6c0,0.2-0.2,0.4-0.4,0.5C340.4,156.4,340.1,156.4,339.9,156.2z M330.4,148l9.3,6.5l1-11.3
			L330.4,148z"/>
	</g>
	<g id="XMLID_261_">
		<path id="XMLID_262_" class="st1" d="M717.2,178.7l-9.3,10c-0.2,0.2-0.4,0.2-0.6,0.2c-0.2-0.1-0.4-0.2-0.5-0.5l-4-13.1
			c-0.1-0.5,0.3-0.9,0.8-0.8l13.3,3c0.2,0.1,0.4,0.2,0.5,0.5C717.4,178.3,717.4,178.5,717.2,178.7z M707.7,187l7.7-8.3l-11.1-2.5
			L707.7,187z"/>
	</g>
	<g id="XMLID_265_">
		<path id="XMLID_266_" class="st1" d="M230,19.8l11.4-7.6c0.2-0.1,0.4-0.1,0.7,0c0.2,0.1,0.4,0.3,0.4,0.6l0.9,13.6
			c0,0.5-0.5,0.9-1,0.6l-12.3-6c-0.2-0.1-0.4-0.3-0.4-0.6C229.7,20.1,229.8,19.9,230,19.8z M241.1,13.9l-9.4,6.3l10.2,5L241.1,13.9z
			"/>
	</g>
	<g id="XMLID_23_" class="st23">
		<path id="XMLID_290_" class="st1" d="M599.9,134.8h-10c-0.6,0-1-0.4-1-1v-10c0-0.6,0.4-1,1-1h10c0.6,0,1,0.4,1,1v10
			C600.9,134.3,600.4,134.8,599.9,134.8z M590.9,132.8h8v-8h-8V132.8z"/>
	</g>
	<g id="XMLID_282_" class="st23">
		<path id="XMLID_285_" class="st1" d="M31.4,278.9c-0.2,0.2-0.4,0.3-0.7,0.3h-10c-0.3,0-0.5-0.1-0.7-0.3c-0.2-0.2-0.3-0.4-0.3-0.7
			l0-10c0-0.6,0.4-1,1-1l10,0c0.3,0,0.5,0.1,0.7,0.3c0.2,0.2,0.3,0.4,0.3,0.7l0,10C31.6,278.4,31.5,278.7,31.4,278.9z M21.6,277.2h8
			l0-8l-8,0L21.6,277.2z"/>
	</g>
	<g id="XMLID_293_">
		<path id="XMLID_294_" class="st1" d="M404.4,462.6c-0.2,0.2-0.4,0.3-0.7,0.3h-10c-0.3,0-0.5-0.1-0.7-0.3c-0.2-0.2-0.3-0.4-0.3-0.7
			l0-10c0-0.6,0.4-1,1-1l10,0c0.3,0,0.5,0.1,0.7,0.3c0.2,0.2,0.3,0.4,0.3,0.7l0,10C404.6,462.1,404.5,462.4,404.4,462.6z
			 M394.6,460.9h8l0-8l-8,0L394.6,460.9z"/>
	</g>
	<g id="XMLID_297_" class="st23">
		<path id="XMLID_298_" class="st1" d="M423.5,278.9c-0.2,0.2-0.4,0.3-0.7,0.3h-10c-0.3,0-0.5-0.1-0.7-0.3c-0.2-0.2-0.3-0.4-0.3-0.7
			l0-10c0-0.6,0.4-1,1-1l10,0c0.3,0,0.5,0.1,0.7,0.3c0.2,0.2,0.3,0.4,0.3,0.7l0,10C423.8,278.4,423.7,278.7,423.5,278.9z
			 M413.8,277.2h8l0-8l-8,0L413.8,277.2z"/>
	</g>
</g>
<rect class="st24" width="750" height="496.6"/>
</svg>
